<?xml version="1.0" encoding="utf-8"?>
<!-- Generator: Adobe Illustrator 22.0.1, SVG Export Plug-In . SVG Version: 6.00 Build 0)  -->
<svg version="1.1" id="Lager_1" xmlns="http://www.w3.org/2000/svg" xmlns:xlink="http://www.w3.org/1999/xlink" x="0px" y="0px"
	 viewBox="0 0 98.8 161.3" style="enable-background:new 0 0 98.8 161.3;" xml:space="preserve">
<style type="text/css">
	.st0{fill:#BF6D45;}
	.st1{fill:#1E1902;}
	.st2{fill:#896846;}
	.st3{fill:#5C9B5C;}
	.st4{fill:#367F57;}
	.st5{fill:#6D9663;}
	.st6{fill:#537C67;}
	.st7{fill:#4A9E4A;}
	.st8{fill:#D39A7D;}
	.st9{fill:#DDA783;}
	.st10{fill:#CE794A;}
</style>
<title>Resurs 1</title>
<g id="Lager_2_1_">
	<g id="Lager_1-2">
		<path class="st0" d="M41,117.6c-3-0.2-6.1,0-9.1,0.7c-1.7,0.4-3.3,1-4.8,1.8c-1.4,0.6-2.9,1.5-3.2,3c-0.2,1.3,0.5,2.6,1.6,3.3
			c0.9,0.5,1.9,0.9,3,1c10.8,2,21.9,1.8,32.9,1.6c1.8,0,3.8-0.2,4.9-1.6c0.4-0.6,0.7-1.3,0.8-2c0.2-0.6,0.2-1.3,0.1-1.9
			c-0.5-1.6-2.5-2.2-3.8-2.7s-2.7-1-4-1.5c-3.5-1.4-7.9-1.3-11.6-1.4C45.6,117.6,43.3,117.6,41,117.6z"/>
		<path class="st1" d="M42.8,121.7c-4.6-0.6-9.2-0.3-13.7,0.8c-1.5,0.4-3.3,1.1-3.5,2.2c-0.2,1,0.8,1.9,2,2.5c1.2,0.5,2.5,0.8,3.8,1
			c9,1.6,18.1,2.2,27.2,1.6c2.7-0.2,6-0.8,6.7-2.7c0.5-1.3-0.8-2.7-2.5-3.4c-1.8-0.6-3.7-1-5.6-1L46.8,122
			C45.6,121.2,44.1,121.1,42.8,121.7z"/>
		<path class="st2" d="M45.9,72.9c1.7,7.1,4.7,14.3,3.6,21.5c-0.4,2.8-1.4,5.5-1.9,8.3c-0.2,2-0.6,4.1-1,6.1
			c-0.8,2.7-2.4,5.1-3.3,7.8c-0.9,2.9-0.9,6,0,8.9c2.2,0.7,4.5,0.7,6.7,0c-3-1.7-4.5-5.1-3.7-8.5c0.6-1.6,1.3-3.2,2.2-4.8
			c2.1-4.8,1.2-10.6,3.5-15.4c0.7-1.2,1.2-2.4,1.6-3.7c0.1-1,0.1-2-0.2-3c-0.7-3.7-1.8-7.3-3.4-10.8c-0.9-1.7-1.6-3.5-2.2-5.3
			c-0.5-2-0.9-4.1-1-6.2l-1.9-19.8c-1.5,0.1-1.9,2.1-1.8,3.7C43.4,58.9,44.4,65.9,45.9,72.9z"/>
		<path class="st2" d="M42.6,73.1c-1.1-0.7-2.4-1.1-3.7-1.2c-1,0.1-2,0.2-3,0.4c-2.4,0.2-4.7-0.8-6.9-1.9l-0.1,0.7
			c1.1,1.2,2.7,1.8,4.3,1.7c1.6-0.1,3.2-0.1,4.8,0c3.8,0.6,6.9,3.9,10.7,4.4c-1.2,0.2-1-2.5-1.7-3c-0.2-0.1-1.4,0.2-1.7,0.2
			C44.3,74,43.5,73.6,42.6,73.1z"/>
		<path class="st2" d="M48.2,47.8c1.5-2.3,3.3-4.3,5.4-6c1.3-0.8,2.7-1.6,4.1-2.2c3.9-1.9,7.7-4.2,11.1-6.9c0.9-0.7,1.9-1.6,2-2.8
			l-9.2,6.5c-1.7,1.3-3.5,2.3-5.4,3.2c-1.1,0.3-2.2,0.7-3.2,1.2c-1,0.6-2,1.4-2.7,2.3l-3.6,3.8c-0.6,0.7-3.9,4.2-2.3,5
			C45.5,52.5,47.7,48.5,48.2,47.8z"/>
		<path class="st2" d="M44.8,49c1-1.5-0.3-3.4-1.4-4.8c-1.5-2-2.8-4.2-3.7-6.5c-0.9-2.3-1.6-4.8-3.2-6.6c-0.8-0.9-1.8-1.7-2.7-2.5
			c-1.9-1.9-3.2-4.4-3.5-7.1c-1.1,2-0.2,4.6,1.1,6.5s3.2,3.4,4.6,5.3c0.9,1.3,1.6,2.7,2.1,4.1c2.6,6,5.2,12.1,6,18.5"/>
		<path class="st2" d="M27.6,29.6c-0.7-0.4-1.2-1.1-2-1.5C24,27.3,22,28.2,20.2,28c-1.5-0.2-2.9-1.2-4.2-1.9
			c1.1,1.1,2.3,2.4,3.9,2.4c0.8,0,1.5-0.3,2.3-0.3c2.3-0.1,4.1,2.3,6.4,2.7c0.8,0.1,1.6,0.1,2.4,0.1c1.9,0.1,3.6,1,5.3,1.7
			C36.8,28.8,29.7,30.8,27.6,29.6z"/>
		<path class="st2" d="M23.2,77.5c1.3-1.4,4-0.1,5.5-1.3c1.5-1.4,3.2-2.6,5.1-3.6c-2.4-0.3-3.2,1.2-4.8,2.6S24.3,75.8,23.2,77.5z"/>
		<path class="st2" d="M47.1,47c1.7-2.1,2.9-4.5,3.6-7.1c1.2-4.5,0.7-9.5,3.3-13.3c0.8-1.2,2-2.3,2.5-3.8c0.6-1.9-0.2-4-1.1-5.8
			c-1.4-2.9-2.9-5.7-4.5-8.4c1.4,3.2,2.8,6.5,4.1,9.8c0.6,1.1,0.8,2.3,0.8,3.6c-0.3,1.7-1.8,2.9-2.8,4.4C51,29,51,32.6,50.6,35.9
			c-0.5,4-1.7,7.9-3.6,11.5c1.6-0.4,2.8-1.8,2.9-3.5"/>
		<path class="st2" d="M59.2,14.7c0.7-0.9,2-1,3.1-1.4c2.1-0.8,3.4-3.2,5.6-3.5c0.9-0.1,2,0.1,2.5-0.7c-0.7,1.4-2.8,0.9-4.1,1.7
			c-0.7,0.4-1.1,1.2-1.7,1.8c-1.5,1.4-4.3,1.2-5.4,3.1c-0.4,0.6-0.5,1.4-1,2c-0.8,0.6-1.6,1-2.5,1.3c0-1.5,0.9-0.9,1.7-1.6
			C58.1,16.5,58.7,15.6,59.2,14.7z"/>
		<path class="st2" d="M33.1,42.9C32,43.3,31,43.7,30,44.2c-2.1,1-4.6,1.7-6.8,0.8c-2.4-0.9-4.1-3.4-6.6-3.4
			c-1.1,0.1-2.1,0.3-3.1,0.6c-1.1,0.3-2.2-0.1-2.9-0.9c0.1,1.2,1.5,1.8,2.7,1.8c1.2-0.2,2.4-0.3,3.5-0.2c1.4,0.2,2.5,1.2,3.6,2
			c2.7,1.7,6,2.1,9.1,1.1c1.3-0.6,2.7-1.1,4.1-1.4c3.5-0.6,6.8,1.7,9.6,3.9c0.5,0.4,0.8-2.5,0.6-3c-0.6-1.1-1-0.8-2-1.2
			C39.2,43.3,35.9,42.2,33.1,42.9z"/>
		<path class="st2" d="M14.9,50.8c-1,0.6-2.6,0.3-3.1,1.4c1.8-0.2,3.9-0.6,4.9-2.1c0.2-0.4,0.5-0.8,0.9-1.1c0.5-0.2,1-0.3,1.5-0.3
			c0.8-0.2,1.4-1.1,2-1.7c0.6-0.7,1.5-0.9,2.3-0.7c0.5-3.7-3.3,0.9-4,1.3c-0.9,0.6-1.8,0.4-2.6,1.1S15.8,50.3,14.9,50.8z"/>
		<path class="st2" d="M72.6,35.2l2.1-0.5c1-0.3,2-0.4,3-0.1c0.8,0.3,1.4,1.1,2.3,1.3c1,0.1,1.9,0,2.8-0.3c0.9-0.3,2-0.1,2.7,0.6
			c-1.9-0.9-4.2,1.2-6.1,0.4c-0.4-0.2-0.8-0.5-1.2-0.7c-1.9-1.1-4.3-0.4-6.6-0.2c-0.6,0.1-1.3,0.1-1.9-0.2c-0.5-0.4-0.9-0.9-1.3-1.5
			c-0.4-0.5-1.1-0.8-1.7-0.6C67.4,30.1,70.8,35.7,72.6,35.2z"/>
		<path class="st2" d="M63.5,40c0.7,0.1,1.3,0.1,2,0.2c1.4,0,2.7,0.3,4,0.8c1.2,0.5,2.5,1.3,3.8,1.1c-0.9,0.4-1.8-0.3-2.7-0.7
			c-1.7-0.7-3.5-0.1-5.3-0.1c-2.5,0-4.9-1-6.6-2.7C60.2,37.2,61.8,39.7,63.5,40z"/>
		<path class="st2" d="M22.3,40.6c-0.4-1.3-0.8-2.8-2-3.6c-1.5-0.9-3.4-0.4-4.3,1.1c-0.1,0.2-0.2,0.4-0.3,0.7
			c-0.1-0.5,0.4-0.9,0.9-1.1c1.6-0.6,3.4,0.1,4.3,1.6c0.4,0.9,0.7,2,0.7,3c0.1,1.1,0.2,2.2,0.3,3.2C24.4,45.2,22.7,42,22.3,40.6z"/>
		<path class="st2" d="M50.2,62.3c1.5,0.3,3,0.7,4.4,1.2c3.6,0.8,7.4-0.4,9.9-3.3c0.4-0.6,0.9-1.1,1.3-1.5c1.3-1,3-1,4.6-0.9
			c-2.3,0.1-4.5,1.2-5.9,3.1c-0.6,0.8-1.2,1.5-1.8,2.2c-1.6,1.4-3.9,1.5-5.9,1.5c-2.5-0.1-4.9-0.4-7.3-0.9c-0.6-0.2-1.4-0.2-2,0
			c-1.2,0.5-1.2,2.3-1,3.7c-0.2-1.2-2.4-1.6-1-3.5C46.3,62.7,48.9,62.2,50.2,62.3z"/>
		<path class="st2" d="M53.7,62c0.3-0.7,0.6-1.6,1.3-1.9c0.3-0.1,0.6-0.1,0.9-0.1c1.6-0.2,3-1,4-2.3c0.1,1.1-1.2,1.8-2.2,2.1
			s-2.4,0.4-2.9,1.5c-0.3,0.6-0.2,1.4-0.6,1.9c-0.5,0.5-1.3,0.6-1.8,0.2C53,63.1,53.5,62.6,53.7,62z"/>
		<path class="st3" d="M26.3,26.8c-0.6-0.4-1.3-0.5-1.9-0.4c-1.7,0.1-3.4-0.3-4.8-1.2c-1.3-1-2-2.5-2-4.1c0.1-0.7,0.2-1.4,0.1-2.1
			c0.8,0.7,1.7,1.4,2.6,2c0.6,0.5,1.3,1.1,1.8,1.6C23.5,24,24.9,25.4,26.3,26.8z"/>
		<path class="st4" d="M26.5,27.1c-1.5-1.5-3.1-3-4.6-4.4l-1-0.9l-3.8-3.4c0.6,0.5,1.4,0.1,2.1,0c0.6,0,1.3,0.1,1.9,0.2
			c0.4,0.1,0.9,0.2,1.3,0.4c1.2,0.7,2.2,1.8,2.6,3.2c0.4,0.9,0.6,1.8,0.8,2.7C25.8,25.8,26.1,26.5,26.5,27.1z"/>
		<path class="st5" d="M10.2,22.2c1.9-0.4,4,0,5.6,1.2c0.5,0.4,0.9,0.9,1.3,1.4c0.5,0.5,1,1,1.6,1.5l-2.1-0.4l-1.3-0.3
			c-1.8-0.4-3.5-0.7-5.3-1c-0.8-0.1-1.6-0.2-2.4-0.1c-0.3,0-0.7,0-1,0.1s-1.4,0-1.5-0.3s1-0.7,1.3-0.8C7.5,22.8,8.9,22.4,10.2,22.2z
			"/>
		<path class="st6" d="M7.4,25.2c0.9,0.5,1.7,1,2.6,1.5c0.9,0.5,1.9,0.8,3,0.8c0.9-0.1,1.9-0.3,2.8-0.6c1.3-0.3,2.6-0.3,3.9-0.1
			c-1.5-0.8-3-1.4-4.5-2.1c-0.7-0.4-1.5-0.6-2.3-0.9c-0.7-0.1-1.3-0.2-2-0.2c-2.3-0.1-5-0.5-7.3,0.4C5,24.3,6.2,24.7,7.4,25.2z"/>
		<path class="st6" d="M24,24.7c0.1,0.8,0.4,1.6,0.9,2.3c0.1,0.2,0.2,0.4,0.4,0.6c0.2,0.2,0.5,0.4,0.9,0.5c1.1,0.4,2.3,0.3,3.3-0.3
			c-0.3-0.2-0.6-0.5-0.9-0.8c-0.3-0.4-0.5-0.8-0.5-1.3c0-0.4,0.1-0.8,0.2-1.2c0.1-0.4,0-0.8-0.1-1.1c-0.2-0.3-0.6-0.3-0.9-0.5
			c-0.3-0.2-0.6-0.5-0.8-0.8c-0.2-0.3-0.7-0.4-1-0.2c-0.2,0.1-0.3,0.3-0.4,0.5c-0.2,0.1-0.3,0.2-0.4,0.3C24,23.3,23.8,24,24,24.7z"
			/>
		<path class="st4" d="M6.7,30.3c-0.5-0.1-1-0.4-1.2-0.9c-0.1-0.5,0-0.9,0.2-1.3c0.3-0.4,0.6-0.7,1-0.9c0.5-0.4,1-0.7,1.7-0.8
			c0.6,0,1.2,0.1,1.8,0.4l4.1,1.7c-1.1,0.6-2.5,0.3-3.7,0.6c-0.4,0.1-0.7,0.2-1.1,0.4C8.7,30.1,7.7,30.3,6.7,30.3z"/>
		<path class="st7" d="M8.6,30c3.1-1.1,6.5-1,9.5,0.3c-1.2-1.1-2-2.8-3.5-3.5c-0.2-0.1-0.3-0.1-0.5-0.2l-0.4-0.3
			c-0.6-0.4-1.4-0.4-2.1,0C10.1,27.1,9.5,28.5,8.6,30z"/>
		<path class="st5" d="M25.5,32c1.2-1.2,2.6-2,3.8-1.9c0.4,0.1,0.8,0.2,1.1,0.3c0.4,0.1,0.9,0.2,1.3,0.3l-1.4,0.7l-0.9,0.5
			c-1.2,0.6-2.4,1.2-3.5,1.9c-0.5,0.3-1,0.7-1.5,1.1c-0.2,0.2-0.4,0.4-0.6,0.5s-0.9,0.7-1,0.5s0.5-1,0.6-1.2
			C24,33.8,24.7,32.8,25.5,32z"/>
		<path class="st6" d="M24.5,35.4c0.7-0.1,1.3-0.1,2-0.2c0.8-0.1,1.5-0.4,2.1-0.9c0.6-0.5,1.1-1.1,1.6-1.8c0.7-0.8,1.5-1.5,2.4-2
			c-1.1,0.2-2.2,0.5-3.3,0.8c-0.6,0.1-1.1,0.3-1.6,0.5c-0.5,0.2-0.9,0.5-1.3,0.8c-1.7,1-3.2,2.3-4.4,3.8
			C22.7,36,23.6,35.6,24.5,35.4z"/>
		<path class="st3" d="M19.8,29.4c-0.6,0.5-0.9,1.2-1,2c-0.3,1.9-1.3,3.7-2.7,5c-1.4,1.2-3.3,1.6-5.1,1.1c-0.7-0.4-1.5-0.6-2.3-0.7
			c1.1-0.7,2.1-1.5,3-2.3c0.7-0.6,1.5-1.1,2.3-1.6C16,31.7,17.9,30.6,19.8,29.4z"/>
		<path class="st4" d="M20.2,29.2c-2.1,1.2-4.1,2.5-6.1,3.9L12.8,34L8,37.2c0.7-0.5,0.5-1.6,0.7-2.3c0.2-0.7,0.5-1.4,0.8-2
			c0.2-0.5,0.5-0.9,0.8-1.3c1.1-1.2,2.6-1.9,4.2-2c1-0.1,2.1-0.2,3.1-0.1C18.5,29.6,19.4,29.5,20.2,29.2z"/>
		<path class="st3" d="M23,28.7c-0.5,0.1-0.9,0.6-1.2,1c-0.7,1.1-1.8,2-3,2.4c-1.2,0.2-2.4-0.2-3.1-1.2c-0.3-0.5-0.6-1-1.1-1.3
			c0.8-0.1,1.6-0.2,2.4-0.5c0.6-0.1,1.2-0.2,1.8-0.2C20.2,28.8,21.6,28.8,23,28.7z"/>
		<path class="st4" d="M23.3,28.7c-1.5,0-3.1,0.2-4.6,0.4l-1,0.1l-3.6,0.4c0.5-0.1,0.7-0.9,1.1-1.3c0.3-0.4,0.7-0.8,1.1-1.1
			c0.2-0.2,0.5-0.5,0.8-0.6c1-0.4,2.1-0.3,3,0.2c0.6,0.3,1.2,0.7,1.8,1.1C22.2,28.3,22.7,28.6,23.3,28.7z"/>
		<path class="st4" d="M21.4,30.8c-0.5-0.1-1-0.4-1.2-0.9c-0.1-0.5,0-0.9,0.3-1.3c0.3-0.4,0.6-0.7,1-0.9c0.5-0.4,1-0.7,1.6-0.8
			c0.6,0,1.3,0.1,1.8,0.4l4.1,1.8c-1.1,0.6-2.5,0.3-3.7,0.6c-0.4,0.1-0.7,0.2-1.1,0.4C23.4,30.6,22.4,30.8,21.4,30.8z"/>
		<path class="st7" d="M23.2,30.5c3.1-1.1,6.5-1,9.5,0.3c-1.2-1.1-2-2.8-3.5-3.5c-0.2-0.1-0.3-0.1-0.5-0.2s-0.3-0.2-0.4-0.3
			c-0.6-0.4-1.4-0.4-2.1,0C24.8,27.5,24.1,29,23.2,30.5z"/>
		<path class="st6" d="M20.4,34.4c0.8,0.2,1.6,0.3,2.4,0.1c0.2,0,0.5-0.1,0.7-0.1c0.3-0.1,0.6-0.3,0.8-0.6c0.8-0.9,1.2-2,1.1-3.2
			c-0.3,0.2-0.7,0.4-1.1,0.5c-0.4,0.1-0.9,0.1-1.3-0.1c-0.4-0.2-0.7-0.4-1-0.6c-0.3-0.2-0.6-0.3-1-0.3c-0.4,0.1-0.5,0.5-0.8,0.7
			c-0.3,0.2-0.7,0.3-1,0.5c-0.4,0.1-0.7,0.4-0.6,0.8c0,0.2,0.2,0.4,0.2,0.6s0,0.3,0.1,0.5C19.1,33.7,19.7,34.2,20.4,34.4z"/>
		<path class="st3" d="M77.3,31.2c0.6-0.3,1.2-0.3,1.8-0.2c1.6,0.4,3.2,0.2,4.7-0.5c1.4-0.8,2.3-2.2,2.5-3.8c0-0.7,0-1.4,0.2-2.1
			c-0.9,0.6-1.8,1.2-2.7,1.7c-0.7,0.4-1.3,0.9-2,1.4C80.3,28.8,78.9,30,77.3,31.2z"/>
		<path class="st4" d="M77.1,31.5c1.6-1.3,3.3-2.5,5-3.7l1.1-0.8l4-2.8c-0.6,0.4-1.3-0.1-2-0.2c-0.6-0.1-1.2-0.1-1.8,0
			c-0.4,0-0.9,0.1-1.3,0.2c-1.3,0.5-2.3,1.5-2.9,2.8c-0.5,0.8-0.8,1.7-1.1,2.5C77.9,30.2,77.6,30.9,77.1,31.5z"/>
		<path class="st5" d="M93,28.8c-1.8-0.6-3.7-0.5-5.4,0.4c-0.5,0.4-1,0.8-1.4,1.2c-0.5,0.5-1.1,0.9-1.7,1.3l2.1-0.1l1.3-0.1
			c1.7-0.1,3.4-0.2,5.1-0.2c0.8,0,1.5,0,2.3,0.2c0.3,0.1,0.7,0.1,1,0.2s1.3,0.2,1.4-0.1s-0.8-0.8-1.1-1C95.5,29.8,94.3,29.2,93,28.8
			z"/>
		<path class="st6" d="M95.2,32.1c-0.9,0.3-1.8,0.8-2.7,1.2c-0.9,0.4-1.9,0.5-2.9,0.4c-0.9-0.2-1.7-0.5-2.5-0.9
			c-1.2-0.5-2.4-0.7-3.7-0.7c1.5-0.5,3-1,4.5-1.5c0.7-0.3,1.5-0.4,2.2-0.5c0.6-0.1,1.3-0.1,1.9,0c2.2,0.2,4.8,0.2,6.8,1.4
			C97.6,31.6,96.4,31.8,95.2,32.1z"/>
		<path class="st6" d="M79.7,28.6c0,0.8-0.1,1.6-0.5,2.4c-0.1,0.2-0.2,0.4-0.3,0.6c-0.2,0.3-0.4,0.5-0.7,0.6c-1,0.5-2.1,0.6-3.2,0.2
			c0.3-0.3,0.5-0.6,0.7-0.9c0.2-0.4,0.3-0.9,0.2-1.3c-0.1-0.4-0.2-0.8-0.3-1.1c-0.1-0.3-0.2-0.7-0.1-1.1c0.1-0.4,0.5-0.4,0.8-0.6
			c0.3-0.3,0.5-0.6,0.7-0.9c0.2-0.3,0.6-0.5,0.9-0.3c0.2,0.1,0.3,0.3,0.5,0.4c0.2,0.1,0.3,0.1,0.4,0.2
			C79.4,27.2,79.7,27.9,79.7,28.6z"/>
		<path class="st4" d="M95.2,37.3c0.5,0,1-0.3,1.2-0.8c0.2-0.4,0.2-0.9-0.1-1.3c-0.2-0.4-0.5-0.7-0.8-1c-0.4-0.5-0.9-0.8-1.4-1
			c-0.6-0.1-1.2,0-1.8,0.2l-4.1,1.2c0.9,0.8,2.3,0.7,3.4,1.1c0.3,0.1,0.7,0.3,1,0.5C93.4,36.8,94.3,37.2,95.2,37.3z"/>
		<path class="st7" d="M93.5,36.7c-2.7-1.6-6-1.9-9-1c1.3-1,2.2-2.5,3.8-3c0.2,0,0.3-0.1,0.5-0.2c0.1-0.1,0.3-0.2,0.4-0.2
			c0.7-0.2,1.4-0.1,1.9,0.3C92.4,33.6,92.8,35.2,93.5,36.7z"/>
		<path class="st3" d="M83.1,34.6c0.5,0.6,0.7,1.4,0.7,2.1c0,1.9,0.7,3.8,1.8,5.3c1.1,1.3,2.9,2,4.6,1.8c0.7-0.3,1.5-0.4,2.2-0.4
			c-0.9-0.8-1.7-1.7-2.5-2.7c-0.6-0.7-1.3-1.3-2-1.9C86.3,37.4,84.7,36.1,83.1,34.6z"/>
		<path class="st4" d="M82.7,34.4c1.8,1.5,3.5,3.1,5.2,4.7l1.1,1l4,3.9c-0.6-0.6-0.2-1.6-0.3-2.4c-0.1-0.7-0.2-1.4-0.5-2.1
			c-0.1-0.5-0.3-1-0.5-1.5c-0.9-1.3-2.2-2.2-3.7-2.5c-0.9-0.3-1.9-0.4-2.9-0.5C84.3,35,83.4,34.8,82.7,34.4z"/>
		<path class="st3" d="M80.2,33.5c0.5,0.2,0.7,0.7,1,1.1c0.5,1.2,1.3,2.2,2.5,2.8c1.1,0.4,2.3,0.1,3.1-0.7c0.4-0.4,0.7-0.9,1.2-1.2
			c-0.7-0.2-1.4-0.5-2.1-0.8c-0.5-0.2-1.1-0.3-1.6-0.4C82.8,34,81.5,33.7,80.2,33.5z"/>
		<path class="st4" d="M79.9,33.5c1.4,0.2,2.8,0.6,4.2,1l0.9,0.2l3.3,0.9c-0.5-0.2-0.6-1-0.8-1.5c-0.2-0.4-0.5-0.9-0.8-1.2
			c-0.2-0.3-0.4-0.5-0.7-0.7c-0.8-0.5-1.9-0.6-2.8-0.2c-0.6,0.2-1.2,0.5-1.8,0.9C81,33.2,80.5,33.4,79.9,33.5z"/>
		<path class="st4" d="M81.4,35.8c0.5,0,1-0.3,1.2-0.8c0.2-0.4,0.2-0.9-0.1-1.3c-0.2-0.4-0.5-0.7-0.8-1c-0.4-0.5-0.9-0.8-1.4-1
			c-0.6-0.1-1.2,0-1.8,0.2l-4.1,1.2c0.9,0.8,2.3,0.7,3.4,1.1c0.3,0.2,0.7,0.3,1,0.5C79.6,35.3,80.5,35.7,81.4,35.8z"/>
		<path class="st7" d="M79.3,35.8c-2.7-1.5-6-1.9-9-1c1.3-1,2.2-2.5,3.8-3c0.2-0.1,0.3-0.1,0.5-0.2s0.3-0.1,0.4-0.2
			c0.7-0.2,1.4-0.1,1.9,0.3C78.3,32.7,78.7,34.2,79.3,35.8z"/>
		<path class="st6" d="M81.8,39.5c-0.8,0.1-1.5,0-2.2-0.2c-0.2-0.1-0.4-0.1-0.6-0.2c-0.3-0.2-0.5-0.4-0.7-0.7
			c-0.6-1-0.8-2.2-0.6-3.3c0.3,0.3,0.6,0.5,0.9,0.7c0.4,0.2,0.8,0.2,1.3,0.1c0.3-0.1,0.7-0.3,1-0.5c0.3-0.2,0.7-0.3,1-0.2
			c0.4,0.1,0.4,0.5,0.7,0.8c0.3,0.2,0.6,0.4,0.9,0.6c0.3,0.2,0.5,0.5,0.4,0.9c-0.1,0.2-0.2,0.4-0.3,0.5s-0.1,0.3-0.2,0.5
			C83.1,39,82.5,39.4,81.8,39.5z"/>
		<path class="st5" d="M76.2,36.9c-1-1.3-2.2-2.4-3.3-2.4c-0.4,0-0.7,0.1-1.1,0.2c-0.4,0.1-0.9,0.1-1.3,0.1l1.2,0.9l0.8,0.6
			c1,0.8,2,1.5,3,2.4c0.5,0.4,0.9,0.8,1.3,1.3c0.2,0.2,0.3,0.4,0.5,0.6s0.7,0.8,0.9,0.7s-0.3-1-0.4-1.3
			C77.4,38.9,76.9,37.9,76.2,36.9z"/>
		<path class="st6" d="M76.7,40.4c-0.6-0.2-1.2-0.3-1.8-0.5c-0.7-0.2-1.3-0.6-1.8-1.2c-0.5-0.6-0.9-1.3-1.2-2
			c-0.5-0.9-1.2-1.6-2-2.3c1,0.3,2,0.8,3,1.2c0.5,0.2,1,0.5,1.4,0.8c0.4,0.3,0.8,0.6,1.1,1c1.4,1.2,2.7,2.7,3.6,4.4
			C78.3,41.3,77.5,40.8,76.7,40.4z"/>
		<path class="st3" d="M63,10.3c0.5-0.5,1.1-0.8,1.8-0.9c1.7-0.3,3.2-1.1,4.4-2.3c1-1.2,1.4-2.9,1-4.5c-0.3-0.6-0.5-1.3-0.6-2.1
			c-0.6,0.9-1.3,1.8-2,2.6c-0.5,0.7-1,1.3-1.4,2C65,7,64.1,8.6,63,10.3z"/>
		<path class="st4" d="M62.9,10.7c1-1.9,2.3-3.6,3.5-5.4l0.8-1.1L70,0c-0.4,0.6-1.4,0.4-2,0.6c-0.6,0.2-1.2,0.4-1.8,0.7
			c-0.4,0.2-0.8,0.4-1.2,0.7c-1,1-1.7,2.3-1.8,3.7c-0.1,0.9-0.2,1.9-0.1,2.8C63.2,9.2,63.1,10,62.9,10.7z"/>
		<path class="st5" d="M77.5,2c-2,0.1-3.8,1-5.1,2.5C72,5,71.7,5.6,71.5,6.2c-0.3,0.6-0.7,1.3-1.2,1.8l2-1l1.2-0.6
			c1.6-0.8,3.2-1.5,4.9-2.2c0.7-0.3,1.5-0.6,2.3-0.7c0.3-0.1,0.7-0.1,1-0.2s1.3-0.3,1.4-0.6S82,2.2,81.6,2.2
			C80.3,1.9,78.9,1.9,77.5,2z"/>
		<path class="st6" d="M80.9,4.2c-0.8,0.7-1.4,1.4-2.2,2.1C78,7,77.1,7.6,76.1,7.8C75.1,8,74.2,8,73.2,8c-1.3,0-2.6,0.3-3.8,0.8
			c1.2-1.1,2.5-2.1,3.8-3.1c0.6-0.5,1.3-1,2-1.4c0.6-0.3,1.2-0.5,1.9-0.7c2.2-0.7,4.8-1.7,7.1-1.4C83.1,2.8,82,3.4,80.9,4.2z"/>
		<path class="st6" d="M64.7,7.6c0.1,0.8,0.1,1.6-0.2,2.4c-0.1,0.2-0.1,0.5-0.2,0.7c-0.2,0.3-0.4,0.6-0.7,0.8
			c-0.9,0.7-2.1,0.9-3.2,0.7c0.3-0.3,0.5-0.7,0.6-1c0.2-0.4,0.2-0.9,0.1-1.4C61,9.3,60.9,9,60.7,8.7c-0.2-0.3-0.3-0.7-0.2-1.1
			c0.1-0.4,0.5-0.5,0.8-0.7c0.2-0.3,0.4-0.6,0.6-1c0.1-0.4,0.5-0.6,0.9-0.5c0.2,0.1,0.4,0.2,0.5,0.3c0.2,0.1,0.3,0.1,0.5,0.2
			C64.3,6.3,64.7,6.9,64.7,7.6z"/>
		<path class="st4" d="M82.8,9c0.5-0.2,0.8-0.7,0.9-1.2c0-0.5-0.2-0.9-0.6-1.2C82.8,6.3,82.4,6.1,82,6c-0.6-0.3-1.2-0.4-1.8-0.4
			c-0.6,0.1-1.2,0.4-1.6,0.9L75,9.2c1.2,0.3,2.5-0.3,3.7-0.3c0.4,0,0.8,0,1.1,0.1C80.8,9.2,81.8,9.2,82.8,9z"/>
		<path class="st7" d="M80.9,9.1c-3.3-0.3-6.5,0.6-9.1,2.6c0.9-1.4,1.2-3.2,2.5-4.3c0.1-0.1,0.3-0.2,0.4-0.3
			c0.1-0.1,0.2-0.2,0.3-0.4c0.5-0.5,1.3-0.6,2-0.5C78.7,6.6,79.7,7.9,80.9,9.1z"/>
		<path class="st5" d="M65,15c-1.6-0.6-3.2-0.8-4.2-0.2c-0.3,0.2-0.6,0.5-0.9,0.7c-0.3,0.3-0.7,0.6-1.1,0.8l1.6,0.1l1,0.1
			c1.3,0.1,2.6,0.2,4,0.3c0.6,0.1,1.2,0.2,1.8,0.4l0.8,0.3c0.2,0.1,1.1,0.3,1.1,0.1c0.1-0.2-0.8-0.7-1-0.8
			C67.1,15.9,66.1,15.4,65,15z"/>
		<path class="st6" d="M67.8,18.1c-0.7,0.1-1.3,0.3-2,0.5c-0.7,0.2-1.5,0.1-2.2-0.1c-0.7-0.3-1.4-0.7-2.1-1.1
			c-0.9-0.5-1.9-0.9-2.9-1c1.1-0.2,2.2-0.3,3.3-0.4c0.6-0.1,1.1-0.1,1.7,0c0.5,0.1,1,0.2,1.5,0.3c1.9,0.4,3.7,1.1,5.4,2.1
			C69.7,18.1,68.7,18,67.8,18.1z"/>
		<path class="st3" d="M69.9,11.3c0.7,0.4,1.2,1,1.4,1.7c0.7,1.8,2.1,3.2,3.8,4.2c1.6,0.8,3.6,0.7,5.2-0.2c0.6-0.5,1.3-0.9,2.1-1.2
			c-1.2-0.4-2.3-0.9-3.4-1.5c-0.9-0.4-1.7-0.7-2.6-0.9C74.1,12.5,72.1,11.9,69.9,11.3z"/>
		<path class="st4" d="M69.5,11.2c2.3,0.6,4.6,1.5,6.8,2.3l1.5,0.5l5.4,2c-0.8-0.3-0.8-1.4-1.1-2c-0.3-0.6-0.8-1.2-1.2-1.8
			c-0.3-0.4-0.7-0.8-1.1-1.2c-1.3-0.9-3-1.2-4.5-0.9c-1,0.1-2.1,0.3-3.1,0.7C71.2,11.1,70.4,11.3,69.5,11.2z"/>
		<path class="st3" d="M66.6,11.3c0.5,0.1,1,0.3,1.4,0.7c0.9,0.9,2.1,1.5,3.4,1.6c1.2,0,2.3-0.8,2.8-1.9c0.2-0.6,0.4-1.1,0.7-1.6
			c-0.8,0.1-1.6,0.1-2.4,0.1c-0.6,0-1.2,0.1-1.8,0.2C69.4,10.8,68,11.1,66.6,11.3z"/>
		<path class="st4" d="M66.4,11.5c1.5-0.3,3-0.6,4.5-0.8l1-0.1l3.6-0.5c-0.5,0-0.9-0.7-1.3-1c-0.4-0.3-0.8-0.6-1.3-0.8
			c-0.3-0.2-0.6-0.3-1-0.4c-1-0.1-2.1,0.2-2.8,0.9c-0.5,0.4-1,1-1.5,1.5C67.3,10.8,66.9,11.2,66.4,11.5z"/>
		<path class="st4" d="M68.7,13c0.5-0.2,0.8-0.6,0.9-1.2c0-0.5-0.2-0.9-0.6-1.2c-0.4-0.3-0.8-0.5-1.2-0.6c-0.6-0.3-1.2-0.4-1.8-0.4
			c-0.6,0.1-1.2,0.4-1.7,0.9l-3.6,2.7c1.2,0.3,2.5-0.3,3.7-0.3c0.4,0,0.8,0,1.1,0.1C66.7,13.2,67.8,13.2,68.7,13z"/>
		<path class="st7" d="M66.8,12.2c-3.3,0.4-6.3,1.9-8.4,4.5c0.6-1.6,0.6-3.4,1.6-4.7c0.1-0.1,0.2-0.3,0.3-0.4s0.2-0.3,0.2-0.4
			c0.4-0.6,1.1-0.9,1.9-0.9C64.1,10.2,65.3,11.3,66.8,12.2z"/>
		<path class="st6" d="M70,16.8c-0.8,0.2-1.6,0.2-2.4,0c-0.2,0-0.4-0.1-0.7-0.2c-0.3-0.1-0.6-0.3-0.8-0.6c-0.7-0.9-1.1-2.1-0.9-3.2
			c0.3,0.2,0.7,0.4,1.1,0.6c0.4,0.1,0.9,0.1,1.3,0c0.3-0.2,0.7-0.4,1-0.6c0.3-0.2,0.7-0.3,1-0.3c0.4,0.1,0.5,0.5,0.8,0.7
			c0.3,0.2,0.7,0.4,1,0.5c0.3,0.2,0.6,0.5,0.5,0.9c-0.1,0.2-0.2,0.4-0.3,0.6s-0.1,0.3-0.1,0.5C71.3,16.2,70.7,16.6,70,16.8z"/>
		<path class="st3" d="M37.9,67.7c-0.5-0.4-1.1-0.7-1.8-0.7c-1.7-0.2-3.3-0.9-4.5-2.1c-1.1-1.2-1.5-2.9-1.2-4.4
			c0.3-0.7,0.5-1.4,0.6-2.1c0.7,0.9,1.4,1.7,2.2,2.5c0.5,0.6,1,1.3,1.5,2C35.7,64.5,36.8,66.1,37.9,67.7z"/>
		<path class="st4" d="M38.1,68.1c-1.1-1.8-2.4-3.5-3.7-5.2l-0.8-1.1l-3-4.1c0.5,0.6,1.4,0.4,2,0.5c0.6,0.1,1.3,0.3,1.8,0.6
			c0.4,0.2,0.8,0.4,1.2,0.6c1.1,0.9,1.8,2.2,1.9,3.6c0.2,0.9,0.3,1.9,0.2,2.8C37.7,66.6,37.8,67.4,38.1,68.1z"/>
		<path class="st5" d="M23,60c2,0,3.9,0.9,5.2,2.3c0.4,0.5,0.7,1.1,1,1.6c0.3,0.6,0.8,1.2,1.2,1.8l-2-0.9l-1.3-0.5
			c-1.6-0.7-3.3-1.4-5-2c-0.8-0.3-1.5-0.5-2.3-0.6c-0.4-0.1-0.7-0.1-1-0.2s-1.4-0.2-1.4-0.6s1.1-0.5,1.5-0.5
			C20.3,60.1,21.7,59.9,23,60z"/>
		<path class="st6" d="M19.7,62.3c0.8,0.6,1.5,1.4,2.3,2c0.8,0.7,1.7,1.2,2.8,1.4c1,0.1,1.9,0.1,2.9,0c1.3,0,2.6,0.2,3.9,0.7
			c-1.3-1-2.6-2-4-3c-0.7-0.5-1.3-0.9-2.1-1.3c-0.6-0.3-1.3-0.5-1.9-0.6c-2.2-0.6-4.9-1.5-7.2-1.1C17.5,61,18.6,61.6,19.7,62.3z"/>
		<path class="st6" d="M36,65.1c-0.1,0.8,0,1.6,0.3,2.4c0.1,0.2,0.1,0.4,0.3,0.6c0.2,0.3,0.4,0.5,0.7,0.7c1,0.6,2.2,0.8,3.3,0.5
			c-0.3-0.3-0.5-0.6-0.7-1c-0.2-0.4-0.2-0.9-0.1-1.4c0.1-0.4,0.3-0.7,0.4-1.1c0.2-0.3,0.2-0.7,0.1-1.1c-0.1-0.4-0.5-0.5-0.8-0.7
			c-0.2-0.3-0.5-0.6-0.6-1c-0.2-0.4-0.6-0.5-0.9-0.4c-0.2,0.1-0.3,0.3-0.5,0.4c-0.2,0.1-0.3,0.1-0.5,0.2
			C36.4,63.7,36.1,64.4,36,65.1z"/>
		<path class="st4" d="M18,67.2c-0.5-0.2-0.9-0.6-1-1.1c0-0.5,0.1-0.9,0.5-1.2c0.3-0.3,0.7-0.5,1.2-0.7c0.5-0.3,1.2-0.4,1.8-0.4
			c0.6,0.1,1.2,0.4,1.7,0.8l3.7,2.6c-1.2,0.4-2.5-0.2-3.8-0.1c-0.4,0-0.7,0.1-1.1,0.2C20,67.4,19,67.4,18,67.2z"/>
		<path class="st7" d="M19.9,67.3c3.3-0.5,6.6,0.3,9.3,2.2c-1-1.4-1.4-3.2-2.7-4.2c-0.1-0.1-0.3-0.2-0.4-0.3s-0.2-0.2-0.3-0.3
			c-0.6-0.5-1.3-0.6-2-0.4C22,64.7,21.1,66,19.9,67.3z"/>
		<path class="st5" d="M34.9,73.4c1.4-0.9,3-1.4,4.1-1.1c0.4,0.1,0.7,0.3,1,0.6c0.4,0.2,0.8,0.4,1.3,0.5l-1.6,0.4l-1,0.3
			c-1.3,0.4-2.5,0.7-3.8,1.2c-0.6,0.2-1.2,0.4-1.7,0.7l-0.7,0.4c-0.2,0.1-1,0.5-1.1,0.3s0.6-0.8,0.8-1
			C32.9,74.8,33.9,74.1,34.9,73.4z"/>
		<path class="st6" d="M33.2,76.5c0.7,0,1.3,0.2,2,0.2c0.8,0,1.5-0.1,2.2-0.5c0.7-0.4,1.3-0.9,1.9-1.4c0.8-0.6,1.8-1.1,2.8-1.5
			c-1.1,0-2.2,0-3.4,0.1c-0.6,0-1.1,0.1-1.7,0.2c-0.5,0.1-1,0.3-1.5,0.5c-1.8,0.6-3.6,1.6-5.1,2.8C31.4,76.8,32.3,76.6,33.2,76.5z"
			/>
		<path class="st3" d="M31,69c-0.6,0.4-1.1,1-1.4,1.8c-0.7,1.8-2,3.3-3.6,4.2c-1.6,0.8-3.6,0.8-5.2,0c-0.6-0.5-1.4-0.9-2.1-1.2
			c1.2-0.5,2.3-1,3.4-1.7c0.8-0.4,1.7-0.7,2.6-1C26.8,70.4,28.9,69.7,31,69z"/>
		<path class="st4" d="M31.5,68.9c-2.3,0.7-4.5,1.6-6.8,2.6l-1.4,0.6L18,74.3c0.8-0.4,0.8-1.4,1.1-2.1c0.3-0.7,0.7-1.3,1.2-1.8
			c0.3-0.4,0.6-0.8,1-1.2c1.3-0.9,2.9-1.3,4.5-1.1c1.1,0.1,2.1,0.3,3.1,0.5C29.7,68.9,30.6,69,31.5,68.9z"/>
		<path class="st3" d="M34.3,68.9c-0.5,0.1-1,0.3-1.3,0.7c-0.9,1-2.1,1.6-3.4,1.7c-1.2,0-2.3-0.7-2.9-1.8c-0.2-0.5-0.4-1.1-0.8-1.5
			c0.8,0.1,1.6,0.1,2.4,0c0.6,0,1.2,0.1,1.8,0.2C31.5,68.5,32.9,68.7,34.3,68.9z"/>
		<path class="st4" d="M34.6,69c-1.5-0.3-3-0.5-4.6-0.6l-1-0.1L25.4,68c0.5,0,0.9-0.7,1.3-1.1c0.4-0.3,0.8-0.6,1.2-0.9
			c0.3-0.2,0.6-0.3,0.9-0.4c1-0.2,2.1,0.1,2.8,0.8c0.6,0.4,1.1,0.9,1.5,1.4C33.6,68.4,34,68.8,34.6,69z"/>
		<path class="st4" d="M32.3,70.7c-0.5-0.2-0.9-0.6-1-1.1c0-0.5,0.1-0.9,0.5-1.2c0.4-0.3,0.8-0.5,1.2-0.7c0.5-0.3,1.2-0.4,1.8-0.4
			c0.6,0.1,1.2,0.4,1.7,0.8l3.7,2.6c-1.2,0.4-2.5-0.2-3.8-0.1c-0.4,0-0.8,0.1-1.1,0.2C34.3,70.8,33.3,70.9,32.3,70.7z"/>
		<path class="st7" d="M34.2,69.8c3.3,0.2,6.4,1.7,8.6,4.1c-0.7-1.5-0.7-3.4-1.8-4.6c-0.1-0.1-0.2-0.3-0.4-0.4l-0.2-0.4
			c-0.5-0.6-1.2-0.9-1.9-0.8C36.8,67.7,35.6,68.8,34.2,69.8z"/>
		<path class="st6" d="M26.7,73.3c0.6,0.6,1.3,1,2.1,1.2c0.2,0.1,0.4,0.2,0.7,0.2c0.3,0.1,0.7,0,1-0.1c1.1-0.4,2-1.2,2.5-2.3
			c-0.4,0-0.8,0-1.2-0.1c-0.4-0.1-0.8-0.4-1.1-0.7c-0.2-0.3-0.4-0.7-0.6-1c-0.2-0.4-0.4-0.7-0.8-0.8c-0.4-0.1-0.7,0.1-1,0.2
			c-0.4,0-0.8,0-1.1-0.1c-0.4,0-0.8,0.1-0.9,0.5c-0.1,0.2,0,0.4-0.1,0.6c0,0.2-0.1,0.3-0.1,0.5C25.8,72,26.2,72.7,26.7,73.3z"/>
		<path class="st3" d="M54.1,56.1c0.4-0.6,0.7-1.4,0.6-2.1c0-1.9,0.6-3.8,1.7-5.3c1.1-1.4,2.9-2.1,4.6-1.9c0.7,0.2,1.5,0.3,2.3,0.3
			c-0.9,0.9-1.7,1.8-2.5,2.8c-0.6,0.7-1.2,1.3-1.9,1.9C57.3,53.3,55.7,54.7,54.1,56.1z"/>
		<path class="st4" d="M53.7,56.4c1.8-1.5,3.5-3.2,5.2-4.8l1.1-1.1l4-3.9c-0.6,0.6-0.2,1.6-0.2,2.3c-0.1,0.7-0.2,1.4-0.5,2.1
			c-0.1,0.5-0.3,1-0.5,1.4c-0.8,1.3-2.2,2.3-3.7,2.7c-1,0.3-2,0.5-3,0.6C55.3,55.7,54.4,55.9,53.7,56.4z"/>
		<path class="st3" d="M46.5,57.3c-0.2-0.6-1-0.8-1.6-1c-1.7-0.5-3.3-1.2-4-2.7c-0.5-1.6-0.2-3.4,1-4.7c0.6-0.6,1.2-1.3,1.7-2.1
			c0.3,1,0.7,1.9,1.1,2.8c0.3,0.7,0.5,1.5,0.7,2.2C45.8,53.7,46.1,55.5,46.5,57.3z"/>
		<path class="st4" d="M46.5,57.7c-0.4-2-0.9-3.9-1.5-5.8l-0.4-1.2l-1.4-4.5c0.2,0.6,1.4,0.5,2.1,0.7c0.6,0.2,1.2,0.5,1.8,0.8
			c0.4,0.2,0.7,0.5,1.1,0.8c0.9,0.9,0.7,2.5,0.3,3.9c-0.3,1-0.7,2-1.2,2.9C46.9,56,46.6,56.8,46.5,57.7z"/>
		<path class="st3" d="M59.4,70.6c-0.4-0.4-1.1-0.3-1.7-0.2c-1.6,0.2-3.3,0.2-4.3-0.7c-0.9-1-1.1-2.6-0.4-3.8
			c0.4-0.6,0.7-1.3,0.9-2.1c0.5,0.6,1.1,1.2,1.8,1.8c0.4,0.4,0.8,0.9,1.2,1.4C57.7,68.2,58.5,69.4,59.4,70.6z"/>
		<path class="st4" d="M59.5,70.9c-0.9-1.3-1.8-2.6-2.9-3.8l-0.7-0.8l-2.4-2.9c0.4,0.4,1.4,0,2.1-0.1c0.6-0.1,1.2-0.1,1.8,0
			c0.4,0,0.8,0.1,1.2,0.2c1,0.4,1.3,1.6,1.3,2.8c0,0.8-0.1,1.7-0.3,2.5C59.3,69.5,59.3,70.2,59.5,70.9z"/>
		<path class="st6" d="M57.8,64.8c-0.6,0.3-1.3,0.5-2,0.5c-0.2,0-0.4,0-0.6,0c-0.3,0-0.5-0.2-0.7-0.3c-0.7-0.6-1.1-1.4-1.1-2.3
			c0.3,0.1,0.6,0.2,0.9,0.2c0.4,0,0.8-0.1,1.1-0.3c0.3-0.2,0.5-0.4,0.8-0.7c0.2-0.2,0.5-0.4,0.8-0.5c0.3,0,0.5,0.3,0.7,0.4
			c0.3,0.1,0.6,0.2,0.9,0.2c0.3,0.1,0.6,0.2,0.5,0.6c0,0.2-0.1,0.3-0.2,0.5s0,0.3,0,0.4C58.9,64,58.3,64.5,57.8,64.8z"/>
		<path class="st6" d="M50.2,47.9c-0.6,0.9-0.9,1.9-1,3c-0.1,0.3-0.1,0.6-0.1,0.9c0,0.4,0.1,0.8,0.3,1.2c0.7,1.3,2,2.2,3.4,2.4
			c-0.1-0.5-0.2-1-0.2-1.5c0-0.6,0.3-1.2,0.6-1.7c0.4-0.4,0.7-0.7,1.1-1c0.4-0.3,0.7-0.7,0.8-1.2c0.1-0.5-0.3-0.8-0.5-1.3
			c-0.1-0.5-0.2-1-0.2-1.5c0-0.5-0.3-1-0.8-1c-0.3,0-0.5,0.1-0.8,0.1s-0.4-0.1-0.7-0.1C51.4,46.5,50.6,47.1,50.2,47.9z"/>
		<path class="st4" d="M41,54.3c-0.3-0.4-0.3-1,0-1.4c0.3-0.4,0.8-0.7,1.2-0.7c0.5,0,0.9,0,1.4,0.1c0.6,0,1.2,0.2,1.7,0.6
			c0.4,0.4,0.7,0.9,0.8,1.5l1.2,3.9c-1.2-0.3-1.9-1.4-2.9-2c-0.3-0.2-0.7-0.3-1-0.5C42.5,55.5,41.7,55,41,54.3z"/>
		<path class="st7" d="M42.5,55.4c2.8,1.2,5,3.6,5.9,6.6c0.1-1.6,1.1-3.2,0.7-4.7C49.1,57,49,56.9,49,56.7c0-0.1,0-0.3,0-0.4
			c-0.2-0.7-0.7-1.2-1.4-1.4C46,54.4,44.3,55,42.5,55.4z"/>
		<path class="st5" d="M63.1,59.6c-1.5-1-3.3-1.3-5-0.8c-0.6,0.2-1.2,0.5-1.7,0.8c-0.6,0.3-1.3,0.6-2,0.8l1.9,0.3l1.2,0.2
			c1.6,0.2,3.2,0.5,4.7,0.9c0.7,0.1,1.4,0.4,2,0.7c0.3,0.1,0.5,0.3,0.8,0.4s1.1,0.5,1.3,0.2s-0.4-0.9-0.6-1.2
			C65,61,64.1,60.2,63.1,59.6z"/>
		<path class="st6" d="M63.9,63.1c-1,0.1-1.9,0.4-2.8,0.5c-0.9,0.2-1.9,0.1-2.8-0.2c-0.7-0.4-1.4-0.9-2-1.4c-0.9-0.7-2-1.2-3.1-1.4
			c1.5-0.2,3.1-0.3,4.6-0.4c0.7-0.1,1.5-0.1,2.2,0c0.6,0.1,1.2,0.3,1.7,0.5c1.9,0.6,4.2,1.2,5.6,2.8C66.2,63.2,65.1,63.1,63.9,63.1z
			"/>
		<path class="st3" d="M51.4,60.6c0.5-0.3,0.9-0.7,1.2-1.3c0.7-1.3,1.8-2.4,3.1-3.1c1.1-0.6,2.5-0.7,3.6-0.1
			c0.4,0.3,0.8,0.6,1.3,0.8c-0.9,0.4-1.7,0.8-2.5,1.2c-0.6,0.3-1.3,0.5-1.9,0.8C54.5,59.5,53,60,51.4,60.6z"/>
		<path class="st4" d="M51.1,60.6c1.7-0.5,3.4-1.2,5-1.9l1.1-0.5l4-1.7c-0.6,0.3-0.7,1-1.1,1.5c-0.3,0.5-0.7,0.9-1.1,1.3
			c-0.3,0.3-0.5,0.6-0.8,0.8c-1,0.7-2.1,1-3.3,0.9c-0.7,0-1.4-0.1-2.1-0.3C52.2,60.6,51.6,60.5,51.1,60.6z"/>
		<path class="st5" d="M54.3,54.3c0.4,1.5,0.2,3.2-0.6,4.5c-0.3,0.5-0.6,0.9-1,1.3c-0.4,0.5-0.8,1-1.1,1.5l0.2-1.8l0.1-1.1
			c0.2-1.4,0.3-2.8,0.4-4.3c0.1-0.6,0.1-1.2,0-1.9c0-0.3-0.1-0.5-0.1-0.8s-0.1-1,0.1-1.2s0.6,0.6,0.7,0.8
			C53.7,52.4,54.1,53.3,54.3,54.3z"/>
		<path class="st6" d="M51.8,52.8c-0.3,0.8-0.7,1.6-1,2.4c-0.4,0.8-0.5,1.6-0.5,2.5c0.1,0.7,0.3,1.4,0.6,2c0.3,1,0.4,2,0.3,3
			c0.5-1.3,0.9-2.6,1.4-3.9c0.2-0.6,0.4-1.3,0.5-1.9c0-0.5,0-1.1,0-1.6c0-1.8,0-4-0.8-5.5C52.3,50.8,52.1,51.8,51.8,52.8z"/>
		<path class="st4" d="M55.3,66.4c0.4,0,0.9-0.1,1.2-0.4c0.2-0.3,0.3-0.6,0.3-1c-0.1-0.3-0.2-0.6-0.4-0.9c-0.2-0.4-0.5-0.7-0.9-0.9
			c-0.5-0.1-1-0.1-1.5,0l-3.6,0.6c0.6,0.7,1.7,0.7,2.5,1.2c0.2,0.1,0.5,0.3,0.7,0.5C54,65.9,54.6,66.3,55.3,66.4z"/>
		<path class="st7" d="M54.1,65.8c-2-1.5-4.6-2-7-1.5c1.3-0.6,2.4-1.8,3.8-2c0.1,0,0.3,0,0.4-0.1l0.4-0.1c0.5-0.1,1.1,0,1.5,0.4
			C54,63.3,54,64.6,54.1,65.8z"/>
		<path class="st5" d="M51,59.1c-0.1,1.7-0.8,3.2-1.9,4.5c-0.4,0.4-0.9,0.7-1.3,1c-0.5,0.4-1,0.8-1.4,1.2l0.7-1.7l0.5-1.1
			c0.6-1.4,1.2-2.8,1.7-4.2c0.2-0.6,0.4-1.3,0.5-1.9c0-0.3,0.1-0.6,0.1-0.8s0.2-1.1,0.5-1.2s0.4,0.8,0.4,1.1
			C51,56.9,51.1,58,51,59.1z"/>
		<path class="st6" d="M49.2,56.8c-0.5,0.7-1.1,1.4-1.7,2.1c-0.6,0.7-1,1.5-1.2,2.4c-0.1,0.7-0.1,1.5,0,2.2c0,1.1-0.2,2.1-0.6,3.2
			c0.8-1.2,1.6-2.3,2.4-3.5c0.4-0.6,0.8-1.2,1.1-1.8c0.2-0.5,0.4-1.1,0.5-1.6c0.5-1.8,1.2-4,1-5.8C50.3,54.9,49.7,55.9,49.2,56.8z"
			/>
		<path class="st3" d="M13.2,46.4c-0.7,0-1.4-0.3-2-0.7C9.7,44.6,7.9,44,6,44c-1.8,0.2-3.3,1.2-4.1,2.8c-0.2,0.8-0.6,1.5-1.1,2.1
			c1.2-0.2,2.4-0.4,3.6-0.5c0.9-0.1,1.8-0.3,2.6-0.5C9.1,47.5,11.1,46.9,13.2,46.4z"/>
		<path class="st4" d="M13.5,46.2c-2.2,0.7-4.5,1.1-6.7,1.5L5.4,48l-5.4,1c0.8-0.1,1.4,0.8,2,1.2c0.6,0.4,1.3,0.7,2,0.9
			c0.5,0.2,0.9,0.3,1.4,0.4c1.5,0,3-0.5,4.1-1.5c0.8-0.6,1.5-1.4,2.2-2.1C12.1,47.2,12.8,46.6,13.5,46.2z"/>
		<path class="st3" d="M18.3,40.7c-0.3-0.7-0.2-1.4,0.1-2c0.5-1.7,0.9-3.5,0.1-4.9c-0.9-1.4-2.6-2.2-4.3-2C13.3,32,12.5,32,11.6,32
			c0.6,0.8,1.2,1.7,1.6,2.6c0.4,0.6,0.9,1.3,1.4,1.8C15.8,37.9,17.1,39.3,18.3,40.7z"/>
		<path class="st4" d="M18.6,40.9c-1.4-1.5-2.6-3-3.8-4.7l-0.8-1l-2.8-3.8c0.4,0.6-0.4,1.5-0.6,2.2c-0.2,0.7-0.3,1.3-0.3,2
			c-0.1,0.4-0.1,0.9,0,1.3c0.3,1.3,1.6,2.1,3,2.6c1,0.3,2,0.6,3,0.7C17.1,40.3,17.9,40.5,18.6,40.9z"/>
		<path class="st3" d="M21.7,59.3c-0.1-0.5,0.4-1.1,0.8-1.6c1-1.2,2-2.7,1.8-4c-0.3-1.4-1.4-2.4-2.8-2.6c-0.7,0-1.5-0.2-2.2-0.4
			c0.2,0.8,0.4,1.7,0.4,2.5c0.1,0.6,0.3,1.2,0.5,1.8C20.7,56.5,21.3,57.9,21.7,59.3z"/>
		<path class="st4" d="M21.9,59.6c-0.6-1.5-1.1-3.1-1.5-4.7l-0.3-1l-1-3.8c0.1,0.6-0.8,1.1-1.2,1.7c-0.4,0.5-0.7,1-1,1.5
			c-0.2,0.3-0.4,0.7-0.5,1.1c-0.1,1.1,0.5,2.2,1.5,2.8c0.7,0.5,1.4,0.9,2.2,1.2C20.9,58.7,21.5,59,21.9,59.6z"/>
		<path class="st6" d="M18,54.6c0.6-0.3,1.1-0.8,1.5-1.4c0.1-0.2,0.2-0.3,0.3-0.5c0.1-0.2,0.2-0.5,0.1-0.8c0-0.9-0.5-1.8-1.3-2.3
			c-0.1,0.3-0.2,0.6-0.3,0.9c-0.2,0.3-0.5,0.6-0.9,0.8c-0.3,0.1-0.7,0.2-1,0.2c-0.3,0-0.6,0.2-0.8,0.4c-0.2,0.3-0.1,0.6-0.1,0.8
			c-0.1,0.3-0.2,0.6-0.4,0.9c-0.1,0.3-0.1,0.6,0.2,0.8c0.2,0.1,0.3,0.1,0.5,0.2c0.1,0.1,0.2,0.2,0.4,0.2C16.9,55,17.5,54.9,18,54.6z
			"/>
		<path class="st6" d="M8.8,38.3c1.1,0.1,2.1,0.4,3,0.9c0.3,0.1,0.5,0.3,0.8,0.4c0.3,0.3,0.6,0.6,0.8,1c0.6,1.4,0.6,2.9,0,4.3
			c-0.3-0.4-0.7-0.8-1.1-1.1c-0.5-0.3-1.1-0.5-1.7-0.4c-0.5,0.1-1,0.2-1.4,0.4c-0.5,0.2-1,0.2-1.4,0C7.2,43.5,7.2,43,7,42.6
			c-0.3-0.4-0.7-0.7-1.1-1c-0.4-0.3-0.6-0.8-0.3-1.3c0.1-0.2,0.4-0.4,0.5-0.6s0.2-0.4,0.3-0.6C7,38.5,7.9,38.2,8.8,38.3z"/>
		<path class="st4" d="M19,34.3c-0.2-0.5-0.6-0.8-1.1-0.8c-0.5,0-1,0.3-1.3,0.6c-0.3,0.4-0.5,0.8-0.7,1.2c-0.3,0.5-0.5,1.2-0.5,1.8
			c0.1,0.6,0.4,1.1,0.7,1.6l2.5,3.3c0.4-1.2-0.1-2.4,0-3.7c0-0.4,0.1-0.8,0.2-1.1C19.1,36.3,19.2,35.3,19,34.3z"/>
		<path class="st7" d="M18.9,36.2c-0.6,3.1,0.1,6.3,1.9,8.8c-1.4-0.8-3.2-1-4.1-2.2c-0.1-0.1-0.2-0.3-0.3-0.4
			c-0.1-0.1-0.2-0.2-0.3-0.3c-0.5-0.6-0.6-1.3-0.3-2C16.3,38.6,17.6,37.5,18.9,36.2z"/>
		<path class="st5" d="M10.9,56c0-1.8,0.8-3.5,2.1-4.7c0.5-0.4,1.1-0.7,1.6-1c0.6-0.4,1.2-0.8,1.8-1.2L15.6,51l-0.5,1.1
			c-0.7,1.5-1.4,3-1.9,4.5c-0.3,0.7-0.5,1.4-0.6,2.1c-0.1,0.3-0.1,0.6-0.1,0.9s-0.2,1.2-0.5,1.3s-0.5-0.9-0.6-1.2
			C11,58.4,10.8,57.2,10.9,56z"/>
		<path class="st6" d="M13.3,58.8c0.6-0.7,1.4-1.4,2-2.1c0.7-0.7,1.1-1.6,1.4-2.5c0.1-0.8,0.1-1.7-0.1-2.5c0-1.2,0.1-2.3,0.6-3.4
			c-1,1.2-1.9,2.4-2.9,3.6c-0.5,0.6-0.9,1.2-1.3,1.9c-0.2,0.6-0.4,1.1-0.6,1.7c-0.6,1.9-1.4,4.3-0.9,6.3
			C12,60.8,12.6,59.7,13.3,58.8z"/>
		<path class="st3" d="M18.2,46.7c-0.5,0.2-1.1,0.3-1.7,0.3c-1.4-0.1-2.9,0.1-4.2,0.8c-1.1,0.6-1.9,1.7-2.1,3c0.1,0.5,0,1.1-0.1,1.6
			c0.8-0.5,1.6-1,2.4-1.4c0.6-0.3,1.1-0.8,1.7-1.2C15.6,48.7,16.9,47.7,18.2,46.7z"/>
		<path class="st4" d="M18.4,46.5c-1.4,1.1-2.9,2.1-4.3,3.1l-1,0.7l-3.5,2.4c0.5-0.3,1.2,0,1.8,0c0.5,0,1.1,0,1.6-0.1
			c0.4,0,0.8-0.1,1.1-0.2c1.1-0.4,2-1.2,2.5-2.3c0.4-0.6,0.7-1.3,0.9-2C17.7,47.5,18,46.9,18.4,46.5z"/>
		<path class="st5" d="M11.6,45.5c1,1.2,2.4,2,4,2.2c0.5,0,1.1,0,1.6-0.1c0.6,0,1.2,0,1.8,0l-1.5-0.8l-0.9-0.5
			c-1.2-0.7-2.5-1.4-3.6-2.1c-0.5-0.3-1-0.7-1.5-1.1l-0.6-0.6c-0.2-0.2-0.8-0.7-1-0.6s0.1,0.9,0.2,1.1
			C10.5,43.8,10.9,44.7,11.6,45.5z"/>
		<path class="st6" d="M11.8,42.5c0.8,0.2,1.6,0.3,2.5,0.5c0.8,0.2,1.6,0.5,2.2,1.1c0.5,0.5,0.9,1.1,1.3,1.7c0.6,0.8,1.3,1.5,2.2,2
			c-1.3-0.3-2.6-0.7-3.9-1.1c-0.6-0.2-1.2-0.4-1.8-0.7c-0.5-0.3-0.9-0.6-1.3-0.9C11.5,44,9.7,42.8,9,41.2
			C9.9,41.7,10.8,42.1,11.8,42.5z"/>
		<path class="st4" d="M20.7,53.5c-0.2,0.4-0.6,0.6-1,0.7c-0.4,0-0.7-0.1-1-0.4c-0.2-0.2-0.4-0.5-0.5-0.8c-0.2-0.4-0.3-0.9-0.2-1.3
			c0.2-0.5,0.4-0.9,0.8-1.2l2.5-2.7c0.2,0.9-0.4,1.8-0.5,2.7c0,0.3,0,0.6,0,0.8C21,52,20.9,52.8,20.7,53.5z"/>
		<path class="st7" d="M20.9,52.1c-0.1-2.5,0.9-5,2.7-6.8c-1.2,0.7-2.8,1-3.7,2c-0.1,0.1-0.2,0.2-0.3,0.3l-0.3,0.2
			c-0.4,0.4-0.6,0.9-0.5,1.5C18.9,50.5,20,51.2,20.9,52.1z"/>
		<path class="st5" d="M17.3,45.5c1.4,0.9,3,1.2,4.6,1c0.5-0.1,1-0.3,1.5-0.5c0.6-0.2,1.2-0.4,1.8-0.5l-1.8-0.4l-1.1-0.2
			c-1.4-0.3-2.9-0.6-4.3-1.1c-0.6-0.2-1.2-0.4-1.8-0.7c-0.2-0.1-0.5-0.3-0.8-0.4s-1-0.5-1.2-0.3s0.4,0.8,0.6,1
			C15.5,44.3,16.4,44.9,17.3,45.5z"/>
		<path class="st6" d="M16.5,42.7c0.9,0,1.7-0.1,2.6-0.2c0.9-0.1,1.7,0.1,2.5,0.4c0.7,0.4,1.3,0.8,1.8,1.3c0.9,0.6,1.8,1.1,2.8,1.3
			c-1.4,0-2.8,0-4.2-0.1c-0.7,0-1.3-0.1-2-0.2c-0.5-0.1-1.1-0.3-1.6-0.5c-1.7-0.6-3.9-1.3-5.2-2.6C14.3,42.4,15.4,42.6,16.5,42.7z"
			/>
		<path class="st3" d="M42.2,29.5c0.1-0.6-0.1-1.2-0.4-1.8c-0.7-1.4-1-2.9-0.8-4.5c0.2-1.3,1.2-2.4,2.5-2.8c0.6-0.1,1.2-0.2,1.7-0.5
			c-0.3,0.9-0.5,1.8-0.6,2.8c-0.2,0.7-0.4,1.3-0.6,2C43.4,26.4,42.8,27.9,42.2,29.5z"/>
		<path class="st4" d="M42.1,29.7c0.7-1.6,1.2-3.4,1.7-5.1l0.3-1.1l1.2-4.1c-0.2,0.6,0.5,1.2,0.8,1.8c0.2,0.5,0.4,1.1,0.5,1.7
			c0.1,0.4,0.2,0.8,0.2,1.2c-0.1,1.2-0.6,2.3-1.5,3c-0.6,0.5-1.2,1-1.8,1.3C42.9,28.8,42.4,29.2,42.1,29.7z"/>
		<path class="st3" d="M37.4,32.5c-0.5-0.3-1-0.4-1.5-0.3c-1.3,0.2-2.7-0.1-3.8-0.8c-1-1-1.5-2.4-1.2-3.8c0.2-0.6,0.3-1.3,0.3-2
			c0.6,0.6,1.2,1.2,1.9,1.8c0.5,0.5,0.9,0.9,1.3,1.5C35.4,30,36.3,31.3,37.4,32.5z"/>
		<path class="st4" d="M37.5,32.8c-1-1.3-2.2-2.6-3.3-3.9l-0.8-0.8l-2.7-3c0.4,0.4,1.2,0,1.7-0.1c0.5,0,1.1,0,1.6,0.1
			c0.3,0,0.7,0.1,1,0.3c1,0.6,1.6,1.7,1.8,2.8c0.2,0.8,0.3,1.7,0.3,2.5C37.1,31.5,37.2,32.2,37.5,32.8z"/>
		<path class="st3" d="M51.7,38.7c-0.4-0.2-0.9,0.1-1.3,0.3c-1,0.7-2.1,0.9-3.3,0.7c-1.1-0.5-1.8-1.5-1.8-2.7c0-0.6,0-1.2-0.2-1.8
			c0.6,0.3,1.3,0.6,1.9,0.8c0.5,0.2,0.9,0.4,1.4,0.7C49.5,37.4,50.6,38,51.7,38.7z"/>
		<path class="st4" d="M51.8,38.9c-1.1-0.7-2.3-1.4-3.5-2l-0.8-0.4L44.7,35c0.4,0.2,1-0.4,1.4-0.7c0.4-0.2,0.8-0.4,1.3-0.5
			c0.3-0.1,0.6-0.2,0.9-0.2c0.9,0,1.6,0.8,2.1,1.7c0.3,0.6,0.6,1.3,0.8,2C51.2,37.9,51.5,38.4,51.8,38.9z"/>
		<path class="st6" d="M48.2,34.8c-0.3,0.4-0.7,0.7-1.2,0.9c-0.1,0.1-0.3,0.1-0.4,0.2C46.5,36,46.2,36,46,36
			c-0.7-0.2-1.3-0.7-1.7-1.4c0.3,0,0.5,0,0.8-0.1c0.3-0.1,0.5-0.3,0.7-0.6c0.1-0.2,0.2-0.5,0.3-0.7c0.1-0.2,0.2-0.4,0.4-0.6
			c0.2-0.1,0.4,0.1,0.7,0.1c0.2,0,0.5-0.1,0.7-0.1c0.2-0.1,0.5,0,0.6,0.3c0,0.1,0,0.3,0.1,0.4s0.1,0.2,0.1,0.3
			C48.7,34,48.5,34.5,48.2,34.8z"/>
		<path class="st6" d="M36.2,24.5c0,0.9,0.1,1.7,0.4,2.5c0.1,0.2,0.2,0.5,0.3,0.7c0.2,0.3,0.4,0.6,0.8,0.8c1,0.7,2.2,1,3.4,0.8
			c-0.3-0.3-0.6-0.7-0.8-1.1c-0.2-0.4-0.3-0.9-0.2-1.4c0.1-0.4,0.2-0.7,0.4-1.1c0.2-0.4,0.2-0.8,0.1-1.1c-0.2-0.4-0.6-0.5-0.8-0.8
			c-0.3-0.3-0.5-0.7-0.7-1c-0.2-0.4-0.6-0.6-1-0.5c-0.2,0.1-0.3,0.2-0.5,0.3s-0.3,0.1-0.5,0.1C36.5,22.9,36.3,23.7,36.2,24.5z"/>
		<path class="st4" d="M32.3,31.9c-0.5-0.3-0.7-1-0.5-1.5c0.1-0.2,0.3-0.3,0.5-0.5c0.3-0.2,0.6-0.3,1-0.4c0.5-0.2,1-0.2,1.4-0.1
			c0.5,0.2,0.9,0.5,1.2,0.9l2.4,2.6c-1,0.1-1.9-0.5-2.9-0.7c-0.3,0-0.6-0.1-0.9-0.1C33.9,32.3,33.1,32.2,32.3,31.9z"/>
		<path class="st7" d="M33.8,32.2c2.6,0.1,5,1.3,6.8,3.2c-0.5-1.2-0.5-2.7-1.4-3.7l-0.3-0.3c-0.1-0.1-0.1-0.2-0.2-0.3
			c-0.4-0.4-0.9-0.7-1.5-0.6C35.9,30.5,34.9,31.4,33.8,32.2z"/>
		<path class="st5" d="M50,29.4c-1.4-0.3-2.8,0-3.8,0.9c-0.3,0.3-0.6,0.7-0.9,1.1c-0.3,0.4-0.7,0.8-1.1,1.2l1.5-0.3l0.9-0.2
			c1.2-0.3,2.4-0.5,3.7-0.7c0.5-0.1,1.1-0.1,1.7-0.1c0.2,0,0.5,0.1,0.7,0.1s1,0,1-0.2s-0.7-0.6-0.9-0.7C51.9,29.9,51,29.6,50,29.4z"
			/>
		<path class="st6" d="M51.9,31.8c-0.6,0.4-1.2,0.8-1.8,1.2c-0.6,0.4-1.3,0.6-2.1,0.6c-0.7-0.1-1.3-0.3-1.9-0.5
			c-0.9-0.3-1.8-0.3-2.7-0.2c1-0.6,2-1.1,3.1-1.6c0.5-0.3,1-0.5,1.6-0.6c0.5-0.1,0.9-0.2,1.4-0.2c1.6-0.1,3.5-0.3,5,0.4
			C53.6,31.2,52.7,31.4,51.9,31.8z"/>
		<path class="st3" d="M42.1,33.6c0.2-0.4,0.4-0.8,0.3-1.3c0-1.1,0.3-2.3,0.9-3.2c0.6-0.8,1.5-1.2,2.5-1.1c0.4,0.1,0.8,0.2,1.2,0.2
			c-0.5,0.5-0.9,1.1-1.3,1.7c-0.3,0.4-0.7,0.8-1,1.2C43.8,31.8,43,32.7,42.1,33.6z"/>
		<path class="st4" d="M41.9,33.7c1-0.9,1.9-1.9,2.8-2.9l0.6-0.6l2.1-2.4c-0.3,0.4-0.1,1-0.1,1.4c0,0.4-0.1,0.9-0.3,1.3
			c-0.1,0.3-0.2,0.6-0.3,0.9c-0.4,0.8-1.1,1.3-2,1.6c-0.5,0.2-1,0.3-1.6,0.4C42.7,33.3,42.3,33.4,41.9,33.7z"/>
		<path class="st5" d="M41.7,28c0.9,1,1.4,2.2,1.4,3.6c0,0.4-0.1,0.8-0.2,1.3c-0.1,0.5-0.1,1-0.2,1.5l-0.5-1.4l-0.3-0.8
			c-0.4-1.1-0.9-2.2-1.4-3.3c-0.2-0.5-0.5-0.9-0.8-1.4c-0.1-0.2-0.3-0.4-0.4-0.5s-0.5-0.8-0.4-0.9s0.7,0.3,0.8,0.4
			C40.5,26.8,41.1,27.3,41.7,28z"/>
		<path class="st6" d="M39.3,27.6c0.1,0.7,0.1,1.4,0.2,2.1c0.1,0.7,0.3,1.4,0.7,2c0.4,0.5,0.8,0.9,1.2,1.3c0.6,0.6,1.1,1.3,1.4,2.1
			c-0.2-1.1-0.4-2.2-0.6-3.3c-0.1-0.5-0.2-1.1-0.4-1.6c-0.2-0.4-0.4-0.8-0.6-1.2c-0.6-1.5-1.6-2.8-2.7-3.9
			C38.9,26,39.1,26.8,39.3,27.6z"/>
		<path class="st4" d="M47.2,36.8c0.3-0.1,0.5-0.4,0.6-0.7c0.1-0.3,0-0.6-0.2-0.9c-0.2-0.2-0.4-0.4-0.6-0.5c-0.3-0.2-0.6-0.4-1-0.4
			c-0.4,0-0.7,0.2-1,0.4l-2.3,1.5c0.7,0.3,1.5,0,2.2,0.2c0.2,0,0.4,0.1,0.7,0.2C46,36.7,46.6,36.8,47.2,36.8z"/>
		<path class="st7" d="M46.1,36.7c-1.9-0.5-3.9-0.2-5.5,0.9c0.7-0.8,1-2,1.8-2.6c0.1-0.1,0.2-0.1,0.3-0.2c0.1-0.1,0.1-0.1,0.2-0.2
			c0.3-0.3,0.8-0.3,1.2-0.1C45,34.8,45.5,35.8,46.1,36.7z"/>
		<path class="st5" d="M41.2,32.6c0.6,1.2,0.7,2.6,0.4,3.9c-0.1,0.4-0.3,0.8-0.5,1.1c-0.2,0.4-0.4,0.9-0.5,1.3l-0.2-1.5l-0.1-0.9
			c-0.1-1.2-0.3-2.4-0.5-3.6c-0.1-0.5-0.2-1.1-0.4-1.6c-0.1-0.2-0.2-0.4-0.2-0.7s-0.3-0.9-0.1-1s0.6,0.5,0.7,0.7
			C40.4,31,40.8,31.8,41.2,32.6z"/>
		<path class="st6" d="M39,31.4c-0.1,0.7-0.2,1.3-0.3,2c-0.1,0.7-0.1,1.4,0.1,2.1c0.2,0.6,0.5,1.2,0.8,1.7c0.4,0.8,0.7,1.6,0.8,2.5
			c0.1-1.1,0.2-2.2,0.3-3.3c0.1-0.6,0.1-1.1,0-1.7c-0.1-0.5-0.1-0.9-0.3-1.4c-0.3-1.6-0.8-3.2-1.6-4.6C39,29.6,39.1,30.5,39,31.4z"
			/>
		<path class="st3" d="M52.4,11.3C52,11,51.5,10.9,51,11c-1.2,0.1-2.5-0.2-3.6-0.7c-0.9-0.5-1.5-1.5-1.5-2.6C46,7.2,46,6.7,46,6.3
			c0.6,0.5,1.3,0.9,2,1.3c0.5,0.3,0.9,0.7,1.4,1C50.3,9.5,51.3,10.4,52.4,11.3z"/>
		<path class="st4" d="M52.6,11.5c-1.1-1-2.3-1.9-3.5-2.8l-0.8-0.6L45.5,6c0.4,0.3,1.1,0,1.6,0c0.5,0,1,0,1.4,0.1
			c0.3,0,0.7,0.1,1,0.2c0.9,0.4,1.6,1.1,2,2c0.2,0.5,0.4,1.1,0.5,1.7C52.1,10.6,52.2,11.1,52.6,11.5z"/>
		<path class="st4" d="M65.6,25.9c0.6-0.2,1-0.7,1.2-1.3c0.1-0.5,0-1.1-0.4-1.5c-0.3-0.4-0.7-0.6-1.2-0.8c-0.6-0.4-1.2-0.6-1.9-0.6
			c-0.7,0.1-1.4,0.4-2,0.8l-4.4,2.8c1.3,0.5,2.8-0.1,4.1,0c0.4,0,0.8,0.1,1.2,0.2C63.3,26,64.5,26.1,65.6,25.9z"/>
		<path class="st7" d="M63.5,25.9c-3.6-0.7-7.4,0.1-10.5,2.2c1.2-1.5,1.9-3.7,3.5-4.8c0.2-0.1,0.4-0.2,0.5-0.3
			c0.1-0.1,0.3-0.3,0.4-0.4c0.7-0.5,1.5-0.6,2.3-0.3C61.4,22.8,62.3,24.4,63.5,25.9z"/>
		<path class="st5" d="M71.6,24.5c-2.2,1.2-3.9,2.8-4.2,4.4c-0.1,0.5-0.1,1.1,0,1.6c0,0.6,0,1.3-0.1,1.9l1.7-1.7l1-1
			c1.3-1.4,2.6-2.7,4.1-4.1c0.7-0.6,1.4-1.2,2.1-1.7c0.3-0.2,0.7-0.4,1-0.7s1.3-0.9,1.2-1.2s-1.5,0.3-2,0.4
			C74.7,23,73.1,23.6,71.6,24.5z"/>
		<path class="st6" d="M76.9,24.3c-0.4,0.9-0.7,1.8-1.1,2.6c-0.4,1-1.2,1.8-2.1,2.5c-1,0.6-2,1.1-3.1,1.5c-1.4,0.6-2.7,1.5-3.8,2.5
			c0.7-1.4,1.5-2.8,2.3-4.2c0.4-0.7,0.9-1.4,1.4-2c0.5-0.5,1.1-1,1.7-1.5c2-1.6,4.3-3.6,7.2-4.6C78.4,22.2,77.6,23.2,76.9,24.3z"/>
		<path class="st6" d="M74,43c-0.3-0.7-0.7-1.4-1.3-1.9c-0.1-0.2-0.3-0.3-0.5-0.5c-0.3-0.2-0.6-0.3-1-0.4c-1.2-0.2-2.4,0.1-3.3,0.7
			c0.4,0.1,0.7,0.3,1.1,0.6c0.3,0.3,0.6,0.7,0.7,1.1c0,0.4,0,0.7,0,1.1c0,0.4,0.1,0.7,0.3,1c0.3,0.3,0.7,0.2,1,0.3
			c0.4,0.2,0.7,0.4,1,0.6c0.3,0.2,0.7,0.2,1.1,0c0.2-0.1,0.2-0.3,0.4-0.5s0.3-0.2,0.4-0.3C74.1,44.3,74.2,43.6,74,43z"/>
		<path class="st5" d="M30.9,15.8c0.7,1.5,1,3.2,0.6,4.2c-0.2,0.4-0.4,0.7-0.7,1c-0.3,0.4-0.5,0.8-0.7,1.2l-0.2-1.6l-0.1-1
			c-0.2-1.3-0.4-2.6-0.7-4c-0.1-0.6-0.3-1.2-0.5-1.8c-0.1-0.3-0.2-0.5-0.3-0.8s-0.4-1-0.2-1.1s0.7,0.7,0.9,1
			C29.7,13.8,30.4,14.7,30.9,15.8z"/>
		<path class="st6" d="M28.1,13.7c-0.1,0.7-0.3,1.3-0.4,2c-0.1,0.8-0.1,1.6,0.2,2.3c0.3,0.7,0.7,1.4,1.1,2.1C29.4,21,29.8,22,30,23
			c0.2-1.1,0.2-2.3,0.3-3.4c0.1-0.6,0.1-1.2,0-1.8c-0.1-0.5-0.2-1-0.3-1.5c-0.4-1.9-1.1-3.8-2.1-5.5C28,11.8,28.1,12.8,28.1,13.7z"
			/>
		<path class="st4" d="M74.2,58.2c0.3-0.1,0.6-0.2,0.6-0.5c0-0.3-0.2-0.5-0.4-0.7c-0.3-0.2-0.6-0.3-0.9-0.5
			c-0.4-0.2-0.8-0.3-1.3-0.4c-0.4,0-0.8,0.1-1.1,0.3l-2.5,1c0.9,0.2,1.8,0.3,2.6,0.2c0.3,0,0.6,0.1,0.8,0.2
			C72.8,58.1,73.5,58.2,74.2,58.2z"/>
		<path class="st7" d="M72.9,58.1c-2.1-0.5-4.4-0.4-6.4,0.4c0.6-0.6,0.8-1.6,1.6-2l0.3-0.1l0.2-0.2c0.5-0.2,1-0.2,1.4,0
			C71.1,56.6,72.1,57.3,72.9,58.1z"/>
		<path class="st3" d="M26.1,76.6c-0.3,0.4-0.5,0.8-0.5,1.3c-0.1,1.1-0.5,2.2-1.2,3.1c-0.8,0.8-1.9,1.2-3,1
			c-0.4-0.1-0.9-0.2-1.4-0.2c0.6-0.5,1.1-1,1.6-1.6c0.4-0.4,0.8-0.8,1.3-1.1C23.9,78.3,25,77.5,26.1,76.6z"/>
		<path class="st4" d="M26.3,76.5c-1.2,0.9-2.3,1.8-3.4,2.8l-0.7,0.6l-2.6,2.3c0.4-0.3,0.2-1,0.2-1.4c0.1-0.4,0.2-0.9,0.3-1.3
			c0.1-0.3,0.2-0.6,0.4-0.8c0.6-0.8,1.4-1.3,2.4-1.5c0.6-0.2,1.3-0.3,1.9-0.3C25.3,76.8,25.8,76.7,26.3,76.5z"/>
		<path class="st0" d="M64.4,136.7c0.3,0.5,0.5,1.1,0.6,1.6c0.1,1.1-0.2,2.2-0.9,3c-0.7,0.8-1.2,1.7-1.7,2.7c-0.4,1-0.5,2.1-0.5,3.1
			l-0.5,9.1c0.1,1.1-0.3,2.3-1,3.2c-0.8,0.6-1.7,1-2.6,1c-3.8,0.6-7.6,1.2-11.4,0.7c-0.4,0-0.8-0.2-1.1-0.5
			c-0.3-0.4-0.4-0.9-0.3-1.4c0.5-7.7,3-15.2,7.1-21.7c0.8-1.3,1.8-2.6,2.5-4c0.3-0.6,0.6-1.1,1-1.6c0.9-0.8,2.1-1.2,3.3-1.1
			c1.2,0.1,2.4,0,3.5-0.3c1.7-0.6,1.6,0.6,1.5,1.9C63.8,133.9,63.9,135.3,64.4,136.7z"/>
		<path class="st8" d="M26.7,128.7l1.3,3.8c0.3,1.5,0.4,3,0.1,4.5c0,0.5-0.2,1.4-0.2,1.9c0,1.7,2.1,3.4,2.9,4.9
			c1.9,4.1,0.5,8.8,1.2,13.3c0,0.3,0.1,0.6,0.3,0.9c0.2,0.2,0.4,0.4,0.7,0.5c3.9,2.1,9.7,2.8,14.2,2.5c0.5,0,1.1-0.1,1.6-0.3
			c0.5-0.2,0.9-0.4,1.3-0.7c2.5-1.8,3.4-4.9,4.5-7.8s0.9-6,1.2-9c0.1-0.8,0.8-1.7,0.8-2.5c0-2.7-1.2-5.3-0.8-7.9
			c-2.4-0.3-5-0.3-7.4-0.4c-6.3-0.2-12.4-1.9-18.4-3.6C28.8,128.6,27.7,128.5,26.7,128.7z"/>
		<path class="st5" d="M58.7,33.9c0.3,1.3,0,2.7-0.8,3.8c-0.3,0.3-0.6,0.5-1,0.7c-0.4,0.3-0.7,0.6-1,0.9l0.3-1.5l0.2-0.9
			c0.2-1.2,0.5-2.4,0.6-3.6c0.1-0.5,0.1-1.1,0.1-1.7c0-0.2,0-0.5,0-0.8s0-1,0.2-1s0.5,0.8,0.6,1C58.3,31.9,58.6,32.9,58.7,33.9z"/>
		<path class="st6" d="M56.7,31.6c-0.3,0.6-0.7,1.1-1,1.7c-0.4,0.6-0.6,1.3-0.6,2c0.1,0.7,0.2,1.3,0.4,2c0.2,0.9,0.2,1.8,0.1,2.8
			c0.5-0.9,1-1.9,1.4-2.9c0.2-0.5,0.4-1,0.6-1.5c0.1-0.5,0.1-0.9,0.2-1.4c0.2-1.7,0.1-3.5-0.3-5.1C57.3,29.9,57,30.8,56.7,31.6z"/>
		<path class="st5" d="M54.2,73.2c-1.6,0.3-3,1.2-3.9,2.5c-0.2,0.5-0.4,0.9-0.5,1.4c-0.2,0.5-0.4,1.1-0.7,1.6l1.5-1l0.9-0.6
			c1.2-0.8,2.4-1.6,3.7-2.3c0.6-0.3,1.2-0.6,1.8-0.8c0.3-0.1,0.6-0.2,0.8-0.3s1.1-0.4,1.1-0.7s-1-0.2-1.3-0.2
			C56.4,72.8,55.3,72.9,54.2,73.2z"/>
		<path class="st6" d="M57.3,74.5c-0.5,0.6-1,1.3-1.5,1.9c-0.5,0.7-1.2,1.2-2,1.5c-0.8,0.2-1.5,0.3-2.3,0.4
			c-1.1,0.2-2.1,0.5-3.1,1.1c0.9-1,1.8-1.9,2.7-2.9c0.5-0.5,0.9-0.9,1.5-1.3c0.5-0.3,1-0.6,1.5-0.8c1.7-0.8,3.7-1.8,5.7-1.9
			C58.9,73.1,58.1,73.8,57.3,74.5z"/>
		<path class="st9" d="M25.4,127.6c1.4,1.3,3,2.2,4.9,2.7c9.3,2.9,19.1,3.7,28.7,2.3c1.9-0.2,3.8-0.8,5.4-1.8c1.1-0.8,2-1.8,2.6-3
			c0.8-1.5,1.2-3.6,0.2-5c-0.7,1.5-1.6,2.9-2.7,4.2c-2.2,2.1-5.2,2.4-8,2.6c-5.6,0.6-11.3,0.4-16.9-0.4c-3.8-0.6-7.5-1.9-10.9-3.8
			c-0.8-0.4-4.1-3.3-4.6-2.9C23,123.5,24.7,126.9,25.4,127.6z"/>
		<path class="st10" d="M62.2,128.5c-1.8,0.9-3.7,0.8-5.6,1.2c-2.5,0.6-4.8,2.2-7.3,2.7c-1.9,0.4-3.9,0.1-5.7,0.5
			c5.5,1.2,11.2,0.3,16.7-0.5c1-0.1,2-0.4,3-0.7c1.4-0.6,2.6-1.6,3.5-2.8c0.5-0.8,2.1-6.2,0.2-5.6c-0.6,0.2-1.6,2.3-2.1,2.9
			C64.1,127.1,63.2,127.9,62.2,128.5z"/>
	</g>
</g>
</svg>
