<?xml version="1.0" encoding="utf-8"?>
<!-- Generator: Adobe Illustrator 22.0.1, SVG Export Plug-In . SVG Version: 6.00 Build 0)  -->
<svg version="1.1" id="Lager_1" xmlns="http://www.w3.org/2000/svg" xmlns:xlink="http://www.w3.org/1999/xlink" x="0px" y="0px"
	 viewBox="0 0 96.9 161.1" style="enable-background:new 0 0 96.9 161.1;" xml:space="preserve">
<style type="text/css">
	.st0{fill:#B78B5E;}
	.st1{fill:#E8BB89;}
	.st2{fill:#C99A6F;}
	.st3{fill:#C99D75;}
	.st4{fill:#C69C77;}
	.st5{fill:#C19874;}
	.st6{fill:#C19770;}
	.st7{fill:#B28F6F;}
</style>
<title>Resurs 2</title>
<g id="Lager_2_1_">
	<g id="Seed">
		<path class="st0" d="M74.7,42.8c5.3,8,10.5,16.1,14.4,24.9c9.6,21.5,10.6,46.8,1.9,68.6c-3,7.5-7.4,14.8-14.3,19
			c-7.5,4.5-16.8,4.6-25.6,4.1c-3.8-0.2-7.7-0.6-10.9-2.7c-7-4.5-7.2-14.5-6.3-22.8c2.1-18.2,6.1-36.2,12-53.6
			c4.7-14,10.7-28.7,7-42.9c-1.2-4.5-11-27.9,0.4-25.4C59.8,13.2,70.9,37.1,74.7,42.8z"/>
		<path class="st1" d="M2.4,84.6c-3.2,14.7-3.6,30.3,1.4,44.4s16.2,26.6,30.6,30.8s31.8-1.3,39.3-14.3c4.7-8.1,5.2-17.9,5.7-27.2
			c0.9-18.1,1.6-37-5.3-53.8c-2.6-6.3-6.2-12.2-8.5-18.7c-2.9-8.3-3.4-17.2-6.2-25.5C57,13.4,53,7.1,47.8,2c-1.1-1-2.4-2.1-3.9-2
			c-1.7,0.2-2.9,1.8-3.8,3.3c-7.8,13.3-11.9,27-20.3,39.9C11.5,55.8,5.6,69.9,2.4,84.6z"/>
		<path class="st2" d="M24.2,75.4c-2.3,5.2,0,11.3,1.7,16.7s2.4,12.6-1.8,16c-2.4-12.9-2.2-26.1,0.7-38.8"/>
		<path class="st3" d="M44.7,48.1c-1.7,5.5,1.2,11.2,3.6,16.3s3.8,12.2,0,16.1c-3.8-12.5-5.1-25.7-3.7-38.7"/>
		<path class="st4" d="M57.5,114.2c-2.3,5.2,0,11.3,1.7,16.7s2.4,12.6-1.8,16C55,134,55.2,120.8,58.1,108"/>
		<path class="st5" d="M40.8,104c-2.3,5.2,0,11.3,1.7,16.7s2.4,12.6-1.8,16c-2.4-12.8-2.2-26.1,0.7-38.8"/>
		<path class="st6" d="M19.4,114.2c-2.3,5.2,0,11.3,1.7,16.7s2.4,12.6-1.8,16c-2.4-12.8-2.2-26,0.7-38.8"/>
		<path class="st7" d="M32.8,28.5c-2.3,5.2,0,11.3,1.7,16.6s2.4,12.5-1.8,16c-2.4-12.9-2.2-26.1,0.7-38.8"/>
		<path class="st6" d="M64.5,72.3c-2.3,5.2,0,11.3,1.7,16.7s2.4,12.6-1.8,16c-2.4-12.9-2.2-26.1,0.7-38.8"/>
	</g>
</g>
</svg>
