<svg xmlns="http://www.w3.org/2000/svg" viewBox="0 0 45.54 75.9"><defs><style>.cls-1{fill:#5a3a12;}.cls-2{fill:#c49830;}.cls-3{fill:#f2e73d;}.cls-4{fill:#558f56;}.cls-5{fill:#5c9b5c;}.cls-6{font-size:60px;fill:#1d1d1b;font-family:AvenirNext-Regular, Avenir Next;letter-spacing:-0.02em;}</style></defs><title>Resurs 3</title><g id="Lager_2" data-name="Lager 2"><g id="Lager_1-2" data-name="Lager 1"><path class="cls-1" d="M19.08,14.56A5.93,5.93,0,0,1,20.76,17a1.41,1.41,0,0,1,.11.78.7.7,0,0,1-.58.56c-.43.06-.73-.33-.93-.67-.58-1-1.17-2.16-.64-3.2l.37,0"/><path class="cls-2" d="M21,18.14a1.12,1.12,0,0,1,.62-1.57c.35.2.75,0,1.13,0a1.89,1.89,0,0,1,1.81,1.09.63.63,0,0,1,.08.29c0,.25-.29.36-.52.41a7.77,7.77,0,0,1-3.39-.11"/><path class="cls-2" d="M30.75,19.36a8.66,8.66,0,0,1,2.68,1.58,8.32,8.32,0,0,1,1.81,2.89A14.24,14.24,0,0,1,36.07,33c-.91,3.13-3.26,5.63-3.73,8.89a10.68,10.68,0,0,1-.48,2.67,1.64,1.64,0,0,1-2.05,1.06c-.76-.36-1-1.36-1.16-2.23-1-5.54-1.82-11.2-4.18-16.32a44.3,44.3,0,0,1-2.65-5.94,4.45,4.45,0,0,1,0-3.05C23.05,15.43,28.92,18.59,30.75,19.36Z"/><path class="cls-3" d="M15.08,20.94a10.78,10.78,0,0,0-3.43,7.9,15.45,15.45,0,0,0,2.9,7.88c1.91,2.92,4.61,5.72,7.86,5.94,1.82.13,3.95-.47,5.27,1,.75.81,1.11,2.17,2.13,2.42.59.06,1-.67.93-1.31a13.84,13.84,0,0,0-.53-1.85c-.39-1.59.32-3.14.78-4.66,1.38-4.56.43-9.77-1.62-14.25-1.19-2.62-3.12-5.58-5.83-6.54S17,19.08,15.08,20.94Z"/><path class="cls-3" d="M22.52,19.56a2,2,0,0,0,.54-1.36c-.72-.87-1.64-1.81-2.68-1.67a12.24,12.24,0,0,0-1.49.56c-.69.19-1.66.14-1.81.89.27.15.22.56.27.89A1.51,1.51,0,0,0,18.8,20a5.36,5.36,0,0,0,1.83-.46,2.25,2.25,0,0,1,1.85,0"/><path class="cls-4" d="M18.5,24.51a5.45,5.45,0,0,0,2.39-2.09,4.29,4.29,0,0,0,.48-1.62,4.47,4.47,0,0,0-.5-2.64,2.79,2.79,0,0,0-2.1-1.45c-.79,1-.92,2.46-1.41,3.68a7.08,7.08,0,0,1-2.25,2.87C12.89,25,10.25,25.16,7.71,26,10.23,27.9,16.15,25.76,18.5,24.51Z"/><path class="cls-5" d="M15,18.23A19.45,19.45,0,0,0,12.13,22a13.37,13.37,0,0,1-5.32,4.45,21.54,21.54,0,0,0,6.83-1.64,10.6,10.6,0,0,0,5.16-4.76c.47-.94,1.33-2.91.07-3.49C17.88,16.12,15.64,17.64,15,18.23Z"/><text class="cls-6" transform="translate(0 51.24)">G</text></g></g></svg>