<svg xmlns="http://www.w3.org/2000/svg" viewBox="0 0 78.43 26.34"><defs><style>.cls-1{fill:#ba554a;}.cls-2{fill:#5a3a12;}.cls-3{fill:#c49830;}.cls-4{fill:#f2e73d;}.cls-5{fill:#558f56;}.cls-6{fill:#5c9b5c;}</style></defs><title>Resurs 9</title><g id="Lager_2" data-name="Lager 2"><g id="Lager_2-2" data-name="Lager 2"><path class="cls-1" d="M13.8,8.36a6.21,6.21,0,0,0-2.11-1.45,7.08,7.08,0,0,0-2.81-.52A7,7,0,0,0,5.94,7,6.71,6.71,0,0,0,3.72,8.61,7,7,0,0,0,2.32,11a8.23,8.23,0,0,0,0,5.65,6.79,6.79,0,0,0,3.62,4,7,7,0,0,0,2.94.6,10.38,10.38,0,0,0,2.64-.32,6.41,6.41,0,0,0,1.94-.79V14.91h-4V13.38h5.69v7.67a11,11,0,0,1-3,1.25,13.1,13.1,0,0,1-3.33.41A9.25,9.25,0,0,1,5.3,22,8.34,8.34,0,0,1,.66,17.36,9.46,9.46,0,0,1,0,13.78a9.26,9.26,0,0,1,.67-3.57A8.43,8.43,0,0,1,5.34,5.53a9,9,0,0,1,3.52-.67,9.43,9.43,0,0,1,3.55.61A7.55,7.55,0,0,1,15,7.16Z"/><path class="cls-1" d="M21.33,22.28H19.61v-17h5a10.66,10.66,0,0,1,2.32.24,5.2,5.2,0,0,1,1.84.78A3.75,3.75,0,0,1,30,7.71a4.81,4.81,0,0,1,.43,2.11,4.18,4.18,0,0,1-1.25,3,4.18,4.18,0,0,1-1.37.9,5.93,5.93,0,0,1-1.73.43l5,8.09H28.92l-4.71-7.94H21.33Zm0-9.43h3a5.7,5.7,0,0,0,3.22-.76,2.55,2.55,0,0,0,1.13-2.27,2.88,2.88,0,0,0-.31-1.41,2.53,2.53,0,0,0-.87-.94,4.08,4.08,0,0,0-1.34-.53,8.62,8.62,0,0,0-1.75-.16H21.33Z"/><path class="cls-1" d="M61.8,19.9h.05L66.1,5.29h2.06L72.41,19.9h0L76.61,5.29h1.82l-5,17h-2L67.13,7.69h0L62.81,22.28h-2l-5-17H57.6Z"/><path class="cls-2" d="M40.9.05a5.05,5.05,0,0,1,1.4,2.06,1.16,1.16,0,0,1,.09.66.6.6,0,0,1-.49.46c-.36,0-.61-.28-.77-.56-.49-.82-1-1.8-.54-2.67l.31,0"/><path class="cls-3" d="M42.46,3A.93.93,0,0,1,43,1.73c.28.16.62,0,.94,0a1.57,1.57,0,0,1,1.51.91.43.43,0,0,1,.06.24c0,.21-.24.3-.43.34a6.44,6.44,0,0,1-2.83-.09"/><path class="cls-3" d="M50.64,4.06a7.16,7.16,0,0,1,2.24,1.32,7.08,7.08,0,0,1,1.51,2.41,11.89,11.89,0,0,1,.69,7.66c-.76,2.62-2.72,4.71-3.12,7.43a9.06,9.06,0,0,1-.39,2.23,1.37,1.37,0,0,1-1.72.88c-.63-.3-.84-1.13-1-1.85-.81-4.63-1.52-9.36-3.5-13.64a36.58,36.58,0,0,1-2.21-5,3.64,3.64,0,0,1,0-2.54C44.21.78,49.11,3.41,50.64,4.06Z"/><path class="cls-4" d="M37.55,5.37A9.05,9.05,0,0,0,34.69,12a13,13,0,0,0,2.42,6.59c1.59,2.44,3.85,4.77,6.56,5,1.52.1,3.3-.39,4.4.8.63.67.93,1.81,1.78,2,.5.05.82-.56.78-1.09a9.42,9.42,0,0,0-.44-1.55c-.33-1.32.27-2.62.65-3.89C52,16,51.2,11.65,49.49,7.91c-1-2.19-2.61-4.67-4.87-5.46S39.17,3.82,37.55,5.37Z"/><path class="cls-4" d="M43.76,4.22a1.59,1.59,0,0,0,.46-1.13c-.61-.72-1.37-1.52-2.24-1.4a9.9,9.9,0,0,0-1.24.48c-.58.15-1.39.11-1.52.73.23.13.19.48.23.75a1.25,1.25,0,0,0,1.21.94,4.53,4.53,0,0,0,1.52-.38,1.9,1.9,0,0,1,1.55,0"/><path class="cls-5" d="M40.41,8.36a4.65,4.65,0,0,0,2-1.75,3.69,3.69,0,0,0,.39-1.35,3.66,3.66,0,0,0-.42-2.2,2.3,2.3,0,0,0-1.74-1.21c-.67.84-.77,2.05-1.18,3.07a5.94,5.94,0,0,1-1.88,2.4c-1.86,1.44-4.06,1.59-6.18,2.31C33.51,11.19,38.45,9.4,40.41,8.36Z"/><path class="cls-6" d="M37.45,3.11a16.24,16.24,0,0,0-2.36,3.17A11.3,11.3,0,0,1,30.65,10a18.15,18.15,0,0,0,5.7-1.37,8.89,8.89,0,0,0,4.31-4c.39-.79,1.11-2.44.06-2.93C39.89,1.35,38,2.62,37.45,3.11Z"/></g></g></svg>