<svg xmlns="http://www.w3.org/2000/svg" viewBox="0 0 114.9 187.53"><defs><style>.cls-1{fill:#bf6d45;}.cls-2{fill:#1e1902;}.cls-3{fill:#896846;}.cls-4{fill:#5c9b5c;}.cls-5{fill:#367f57;}.cls-6{fill:#6d9663;}.cls-7{fill:#537c67;}.cls-8{fill:#4a9e4a;}.cls-9{fill:#d39a7d;}.cls-10{fill:#dda783;}.cls-11{fill:#ce794a;}.cls-12{fill:#5b3806;}.cls-13{fill:#c49731;}.cls-14{fill:#f4ea34;}.cls-15{fill:#558e55;}.cls-16{fill:#f7f5f7;}.cls-17{fill:#d3ead7;}.cls-18{fill:#cfe5d0;}.cls-19{fill:#f7f703;}.cls-20{fill:#e5e5e5;}.cls-21{fill:#d3d3d3;}.cls-22{fill:#205b16;}.cls-23{fill:#53d356;}</style></defs><title>Resurs 1</title><g id="Lager_2" data-name="Lager 2"><g id="Lager_1-2" data-name="Lager 1"><g id="Lager_2-2" data-name="Lager 2"><g id="Lager_1-2-2" data-name="Lager 1-2"><path class="cls-1" d="M47.7,136.7a38,38,0,0,0-10.6.8,26.89,26.89,0,0,0-5.6,2.1c-1.6.7-3.4,1.7-3.7,3.5a4,4,0,0,0,1.9,3.8,9.67,9.67,0,0,0,3.5,1.2c12.6,2.3,25.5,2.1,38.3,1.9,2.1,0,4.4-.2,5.7-1.9a5,5,0,0,0,.9-2.3,5.45,5.45,0,0,0,.1-2.2c-.6-1.9-2.9-2.6-4.4-3.1s-3.1-1.2-4.7-1.7c-4.1-1.6-9.2-1.5-13.5-1.6A42,42,0,0,0,47.7,136.7Z"/><path class="cls-2" d="M49.8,141.5a44.79,44.79,0,0,0-15.9.9c-1.7.5-3.8,1.3-4.1,2.6s.9,2.2,2.3,2.9a22,22,0,0,0,4.4,1.2A128.91,128.91,0,0,0,68.1,151c3.1-.2,7-.9,7.8-3.1.6-1.5-.9-3.1-2.9-4a20.74,20.74,0,0,0-6.5-1.2l-12.1-.8A4.49,4.49,0,0,0,49.8,141.5Z"/><path class="cls-3" d="M53.4,84.8c2,8.3,5.5,16.6,4.2,25-.5,3.3-1.6,6.4-2.2,9.7a58.48,58.48,0,0,1-1.2,7.1c-.9,3.1-2.8,5.9-3.8,9.1a18.06,18.06,0,0,0,0,10.3,13,13,0,0,0,7.8,0,8.94,8.94,0,0,1-4.3-9.9,35.08,35.08,0,0,1,2.6-5.6c2.4-5.6,1.4-12.3,4.1-17.9a23.46,23.46,0,0,0,1.9-4.3,10.33,10.33,0,0,0-.2-3.5,52.73,52.73,0,0,0-4-12.6A47.84,47.84,0,0,1,55.7,86a43.29,43.29,0,0,1-1.2-7.2l-2.2-23c-1.7.1-2.2,2.4-2.1,4.3A136.93,136.93,0,0,0,53.4,84.8Z"/><path class="cls-3" d="M49.5,85a9.51,9.51,0,0,0-4.3-1.4,21.08,21.08,0,0,0-3.5.5c-2.8.2-5.5-.9-8-2.2l-.1.8a6.29,6.29,0,0,0,5,2,52.3,52.3,0,0,1,5.6,0c4.4.7,8,4.5,12.4,5.1-1.4.2-1.2-2.9-2-3.5a16.83,16.83,0,0,0-2,.2C51.5,86,50.6,85.6,49.5,85Z"/><path class="cls-3" d="M56,55.6a28,28,0,0,1,6.3-7A36.69,36.69,0,0,1,67.1,46,71.25,71.25,0,0,0,80,38c1-.8,2.2-1.9,2.3-3.3L71.6,42.3A33.52,33.52,0,0,1,65.3,46a14.91,14.91,0,0,0-3.7,1.4,10.09,10.09,0,0,0-3.1,2.7l-4.2,4.4c-.7.8-4.5,4.9-2.7,5.8C52.9,61,55.5,56.4,56,55.6Z"/><path class="cls-3" d="M52.1,57c1.2-1.7-.3-4-1.6-5.6a31.68,31.68,0,0,1-4.3-7.6c-1-2.7-1.9-5.6-3.7-7.7-.9-1-2.1-2-3.1-2.9a14.27,14.27,0,0,1-4.1-8.3c-1.3,2.3-.2,5.3,1.3,7.6s3.7,4,5.3,6.2a18,18,0,0,1,2.4,4.8c3,7,6,14.1,7,21.5"/><path class="cls-3" d="M32.1,34.4a19.52,19.52,0,0,0-2.3-1.7c-1.9-.9-4.2.1-6.3-.1-1.7-.2-3.4-1.4-4.9-2.2,1.3,1.3,2.7,2.8,4.5,2.8.9,0,1.7-.3,2.7-.3,2.7-.1,4.8,2.7,7.4,3.1H36c2.2.1,4.2,1.2,6.2,2C42.8,33.5,34.5,35.8,32.1,34.4Z"/><path class="cls-3" d="M27,90.1c1.5-1.6,4.7-.1,6.4-1.5a28.5,28.5,0,0,1,5.9-4.2c-2.8-.3-3.7,1.4-5.6,3S28.3,88.1,27,90.1Z"/><path class="cls-3" d="M54.8,54.6A21.06,21.06,0,0,0,59,46.3c1.4-5.2.8-11,3.8-15.5.9-1.4,2.3-2.7,2.9-4.4.7-2.2-.2-4.7-1.3-6.7-1.6-3.4-3.4-6.6-5.2-9.8,1.6,3.7,3.3,7.6,4.8,11.4a8.6,8.6,0,0,1,.9,4.2c-.3,2-2.1,3.4-3.3,5.1-2.3,3-2.3,7.2-2.8,11A39.53,39.53,0,0,1,54.6,55,4.48,4.48,0,0,0,58,50.9"/><path class="cls-3" d="M68.8,17.1c.8-1,2.3-1.2,3.6-1.6,2.4-.9,4-3.7,6.5-4.1,1-.1,2.3.1,2.9-.8-.8,1.6-3.3,1-4.8,2a13.36,13.36,0,0,0-2,2.1c-1.7,1.6-5,1.4-6.3,3.6-.5.7-.6,1.6-1.2,2.3a8.93,8.93,0,0,1-2.9,1.5c0-1.7,1-1,2-1.9A14.8,14.8,0,0,0,68.8,17.1Z"/><path class="cls-3" d="M38.5,49.9a38.79,38.79,0,0,0-3.6,1.5c-2.4,1.2-5.3,2-7.9.9-2.8-1-4.8-4-7.7-4a14.36,14.36,0,0,0-3.6.7,3.48,3.48,0,0,1-3.4-1c.1,1.4,1.7,2.1,3.1,2.1a19.1,19.1,0,0,1,4.1-.2c1.6.2,2.9,1.4,4.2,2.3a12.7,12.7,0,0,0,10.6,1.3,19.36,19.36,0,0,1,4.8-1.6c4.1-.7,7.9,2,11.2,4.5.6.5.9-2.9.7-3.5-.7-1.3-1.2-.9-2.3-1.4C45.6,50.3,41.7,49.1,38.5,49.9Z"/><path class="cls-3" d="M17.3,59.1c-1.2.7-3,.3-3.6,1.6,2.1-.2,4.5-.7,5.7-2.4a4.12,4.12,0,0,1,1-1.3,5.55,5.55,0,0,1,1.7-.3c.9-.2,1.6-1.3,2.3-2a2.73,2.73,0,0,1,2.7-.8c.6-4.3-3.8,1-4.7,1.5-1,.7-2.1.5-3,1.3S18.4,58.5,17.3,59.1Z"/><path class="cls-3" d="M84.4,40.9l2.4-.6a6,6,0,0,1,3.5-.1c.9.3,1.6,1.3,2.7,1.5a9.06,9.06,0,0,0,3.3-.3,3.22,3.22,0,0,1,3.1.7c-2.2-1-4.9,1.4-7.1.5-.5-.2-.9-.6-1.4-.8-2.2-1.3-5-.5-7.7-.2a4.16,4.16,0,0,1-2.2-.2,8.3,8.3,0,0,1-1.5-1.7,2,2,0,0,0-2-.7C78.4,35,82.3,41.5,84.4,40.9Z"/><path class="cls-3" d="M73.8,46.5c.8.1,1.5.1,2.3.2a13.06,13.06,0,0,1,4.7.9c1.4.6,2.9,1.5,4.4,1.3-1,.5-2.1-.3-3.1-.8-2-.8-4.1-.1-6.2-.1a11.34,11.34,0,0,1-7.7-3.1C70,43.3,71.9,46.2,73.8,46.5Z"/><path class="cls-3" d="M25.9,47.2c-.5-1.5-.9-3.3-2.3-4.2a3.62,3.62,0,0,0-5,1.3,6.89,6.89,0,0,0-.3.8c-.1-.6.5-1,1-1.3a4.09,4.09,0,0,1,5,1.9,8.17,8.17,0,0,1,.8,3.5c.1,1.3.2,2.6.3,3.7C28.4,52.6,26.4,48.8,25.9,47.2Z"/><path class="cls-3" d="M58.4,72.4a29.58,29.58,0,0,1,5.1,1.4A12,12,0,0,0,75,70a8.62,8.62,0,0,1,1.5-1.7c1.5-1.2,3.5-1.2,5.3-1a9.12,9.12,0,0,0-6.9,3.6c-.7.9-1.4,1.7-2.1,2.6C71,75,68.4,75.1,66,75.1a59.78,59.78,0,0,1-8.5-1,4.48,4.48,0,0,0-2.3,0c-1.4.6-1.4,2.7-1.2,4.3-.2-1.4-2.8-1.9-1.2-4.1C53.8,72.9,56.9,72.3,58.4,72.4Z"/><path class="cls-3" d="M62.4,72.1c.3-.8.7-1.9,1.5-2.2a3.4,3.4,0,0,1,1-.1,6.91,6.91,0,0,0,4.7-2.7c.1,1.3-1.4,2.1-2.6,2.4s-2.8.5-3.4,1.7c-.3.7-.2,1.6-.7,2.2a1.56,1.56,0,0,1-2.1.2A2.21,2.21,0,0,0,62.4,72.1Z"/><path class="cls-4" d="M30.6,31.2a3,3,0,0,0-2.2-.5,9,9,0,0,1-5.6-1.4,6,6,0,0,1-2.3-4.8,9.66,9.66,0,0,0,.1-2.4,34,34,0,0,0,3,2.3c.7.6,1.5,1.3,2.1,1.9C27.3,27.9,29,29.5,30.6,31.2Z"/><path class="cls-5" d="M30.8,31.5c-1.7-1.7-3.6-3.5-5.3-5.1l-1.2-1-4.4-4c.7.6,1.6.1,2.4,0a16.35,16.35,0,0,1,2.2.2,4.42,4.42,0,0,1,1.5.5,6.15,6.15,0,0,1,3,3.7,12.11,12.11,0,0,1,.9,3.1A5,5,0,0,0,30.8,31.5Z"/><path class="cls-6" d="M11.9,25.8a8,8,0,0,1,6.5,1.4,11.37,11.37,0,0,1,1.5,1.6,15.37,15.37,0,0,0,1.9,1.7L19.4,30l-1.5-.3c-2.1-.5-4.1-.8-6.2-1.2a13.13,13.13,0,0,0-2.8-.1,5.28,5.28,0,0,0-1.2.1c-.3.1-1.6,0-1.7-.3s1.2-.8,1.5-.9A10.46,10.46,0,0,1,11.9,25.8Z"/><path class="cls-7" d="M8.6,29.3c1,.6,2,1.2,3,1.7a6.76,6.76,0,0,0,3.5.9,13.94,13.94,0,0,0,3.3-.7,13.6,13.6,0,0,1,4.5-.1c-1.7-.9-3.5-1.6-5.2-2.4a10.79,10.79,0,0,0-2.7-1,17.85,17.85,0,0,0-2.3-.2c-2.7-.1-5.8-.6-8.5.5A20.43,20.43,0,0,1,8.6,29.3Z"/><path class="cls-7" d="M27.9,28.7a6.82,6.82,0,0,0,1,2.7,1.53,1.53,0,0,0,.5.7,2.42,2.42,0,0,0,1,.6,4.56,4.56,0,0,0,3.8-.3,8.12,8.12,0,0,1-1-.9,2.81,2.81,0,0,1-.6-1.5,6.75,6.75,0,0,1,.2-1.4,2.77,2.77,0,0,0-.1-1.3c-.2-.3-.7-.3-1-.6a3.84,3.84,0,0,1-.9-.9.9.9,0,0,0-1.2-.2c-.2.1-.3.3-.5.6-.2.1-.3.2-.5.3A2.11,2.11,0,0,0,27.9,28.7Z"/><path class="cls-5" d="M7.8,35.2a1.87,1.87,0,0,1-1.4-1,2.51,2.51,0,0,1,.2-1.5,2.34,2.34,0,0,1,1.2-1,3.67,3.67,0,0,1,2-.9,4.06,4.06,0,0,1,2.1.5l4.8,2c-1.3.7-2.9.3-4.3.7a3.49,3.49,0,0,0-1.3.5A7.25,7.25,0,0,1,7.8,35.2Z"/><path class="cls-8" d="M10,34.9a14.92,14.92,0,0,1,11,.3c-1.4-1.2-2.3-3.2-4-4a4.17,4.17,0,0,0-.6-.2l-.5-.3a2.11,2.11,0,0,0-2.4,0C11.7,31.5,11,33.1,10,34.9Z"/><path class="cls-6" d="M29.6,37.2c1.4-1.4,3-2.3,4.4-2.2.5.1.9.2,1.3.3l1.5.3-1.6.8-1,.6c-1.4.7-2.8,1.4-4.1,2.2a7,7,0,0,0-1.7,1.3,3.74,3.74,0,0,1-.7.6c-.2.1-1,.8-1.2.6s.6-1.2.7-1.4A23.4,23.4,0,0,1,29.6,37.2Z"/><path class="cls-7" d="M28.5,41.2c.8-.1,1.5-.1,2.3-.2a5.13,5.13,0,0,0,2.4-1,9.74,9.74,0,0,0,1.9-2.1,10.44,10.44,0,0,1,2.8-2.3c-1.3.2-2.6.6-3.8.9a6,6,0,0,0-1.9.6c-.6.3-1,.6-1.5.9a19.77,19.77,0,0,0-5.1,4.4A8.44,8.44,0,0,1,28.5,41.2Z"/><path class="cls-4" d="M23,34.2a4,4,0,0,0-1.2,2.3,10,10,0,0,1-3.1,5.8,6.29,6.29,0,0,1-5.9,1.3,6.08,6.08,0,0,0-2.7-.8,23.27,23.27,0,0,0,3.5-2.7,18.48,18.48,0,0,1,2.7-1.9C18.6,36.9,20.8,35.6,23,34.2Z"/><path class="cls-5" d="M23.5,34c-2.4,1.4-4.8,2.9-7.1,4.5l-1.5,1L9.3,43.2c.8-.6.6-1.9.8-2.7a15.71,15.71,0,0,1,.9-2.3,7.46,7.46,0,0,1,.9-1.5,7.09,7.09,0,0,1,4.9-2.3,21.66,21.66,0,0,1,3.6-.1A7.81,7.81,0,0,0,23.5,34Z"/><path class="cls-4" d="M26.7,33.4c-.6.1-1,.7-1.4,1.2a6.89,6.89,0,0,1-3.5,2.8A3.55,3.55,0,0,1,18.2,36a3.18,3.18,0,0,0-1.3-1.5,9.37,9.37,0,0,0,2.8-.6,14.92,14.92,0,0,1,2.1-.2C23.5,33.5,25.1,33.5,26.7,33.4Z"/><path class="cls-5" d="M27.1,33.4a31.68,31.68,0,0,0-5.3.5l-1.2.1-4.2.5c.6-.1.8-1,1.3-1.5A5.35,5.35,0,0,1,19,31.7a3.11,3.11,0,0,1,.9-.7,4.27,4.27,0,0,1,3.5.2,12,12,0,0,1,2.1,1.3A2.53,2.53,0,0,0,27.1,33.4Z"/><path class="cls-5" d="M24.9,35.8a1.87,1.87,0,0,1-1.4-1,2,2,0,0,1,.3-1.5,2.34,2.34,0,0,1,1.2-1,3.72,3.72,0,0,1,1.9-.9,3.84,3.84,0,0,1,2.1.5L33.8,34c-1.3.7-2.9.3-4.3.7a3.49,3.49,0,0,0-1.3.5A9.19,9.19,0,0,1,24.9,35.8Z"/><path class="cls-8" d="M27,35.5a14.92,14.92,0,0,1,11,.3c-1.4-1.3-2.3-3.3-4.1-4.1a4.17,4.17,0,0,0-.6-.2c-.2-.1-.3-.2-.5-.3a2.11,2.11,0,0,0-2.4,0C28.8,32,28,33.7,27,35.5Z"/><path class="cls-7" d="M23.7,40a6.62,6.62,0,0,0,2.8.1c.2,0,.6-.1.8-.1a1.5,1.5,0,0,0,.9-.7,5,5,0,0,0,1.3-3.7,3.93,3.93,0,0,1-1.3.6,2.57,2.57,0,0,1-1.5-.1,12.75,12.75,0,0,1-1.2-.7,2.13,2.13,0,0,0-1.2-.3c-.5.1-.6.6-.9.8a13.35,13.35,0,0,0-1.2.6.78.78,0,0,0-.7.9c0,.2.2.5.2.7a1.49,1.49,0,0,0,.1.6A3.81,3.81,0,0,0,23.7,40Z"/><path class="cls-4" d="M89.9,36.3a3.8,3.8,0,0,1,2.1-.2,8.07,8.07,0,0,0,5.5-.6,5.87,5.87,0,0,0,2.9-4.4,9.74,9.74,0,0,1,.2-2.4c-1,.7-2.1,1.4-3.1,2-.8.5-1.5,1-2.3,1.6C93.4,33.5,91.7,34.9,89.9,36.3Z"/><path class="cls-5" d="M89.6,36.6c1.9-1.5,3.8-2.9,5.8-4.3l1.3-.9,4.7-3.3c-.7.5-1.5-.1-2.3-.2a7.39,7.39,0,0,0-2.1,0,7.72,7.72,0,0,0-1.5.2,6.11,6.11,0,0,0-3.4,3.3,18.47,18.47,0,0,0-1.3,2.9A5.67,5.67,0,0,1,89.6,36.6Z"/><path class="cls-6" d="M108.1,33.5a7.72,7.72,0,0,0-6.3.5,11.43,11.43,0,0,0-1.6,1.4,14.91,14.91,0,0,1-2,1.5l2.4-.1,1.5-.1c2-.1,4-.2,5.9-.2a12.74,12.74,0,0,1,2.7.2c.3.1.8.1,1.2.2s1.5.2,1.6-.1-.9-.9-1.3-1.2A12.27,12.27,0,0,0,108.1,33.5Z"/><path class="cls-7" d="M110.7,37.3a21.19,21.19,0,0,0-3.1,1.4,6.43,6.43,0,0,1-3.4.5,14.19,14.19,0,0,1-2.9-1,10.6,10.6,0,0,0-4.3-.8c1.7-.6,3.5-1.2,5.2-1.7a11,11,0,0,1,2.6-.6,8.1,8.1,0,0,1,2.2,0c2.6.2,5.6.2,7.9,1.6A20.26,20.26,0,0,0,110.7,37.3Z"/><path class="cls-7" d="M92.7,33.3a5.68,5.68,0,0,1-.6,2.8c-.1.2-.2.5-.3.7a1.78,1.78,0,0,1-.8.7,4.35,4.35,0,0,1-3.7.2,7,7,0,0,0,.8-1,2.62,2.62,0,0,0,.2-1.5c-.1-.5-.2-.9-.3-1.3a2.65,2.65,0,0,1-.1-1.3c.1-.5.6-.5.9-.7a7,7,0,0,0,.8-1c.2-.3.7-.6,1-.3.2.1.3.3.6.5s.3.1.5.2A2.21,2.21,0,0,1,92.7,33.3Z"/><path class="cls-5" d="M110.7,43.4a1.42,1.42,0,0,0,1.4-.9A1.6,1.6,0,0,0,112,41a5.38,5.38,0,0,0-.9-1.2,4.49,4.49,0,0,0-1.6-1.2,5,5,0,0,0-2.1.2l-4.8,1.4c1,.9,2.7.8,4,1.3a4.45,4.45,0,0,1,1.2.6A5.15,5.15,0,0,0,110.7,43.4Z"/><path class="cls-8" d="M108.7,42.7a13.27,13.27,0,0,0-10.5-1.2c1.5-1.2,2.6-2.9,4.4-3.5.2,0,.3-.1.6-.2a.76.76,0,0,1,.5-.2,2.76,2.76,0,0,1,2.2.3C107.4,39.1,107.9,40.9,108.7,42.7Z"/><path class="cls-4" d="M96.6,40.2a3.66,3.66,0,0,1,.8,2.4,10.76,10.76,0,0,0,2.1,6.2,6.35,6.35,0,0,0,5.3,2.1,7.51,7.51,0,0,1,2.6-.5,28.68,28.68,0,0,1-2.9-3.1,23.91,23.91,0,0,0-2.3-2.2C100.3,43.5,98.5,42,96.6,40.2Z"/><path class="cls-5" d="M96.2,40a78.2,78.2,0,0,1,6,5.5l1.3,1.2,4.7,4.5c-.7-.7-.2-1.9-.3-2.8a7.06,7.06,0,0,0-.6-2.4,4.92,4.92,0,0,0-.6-1.7,6.73,6.73,0,0,0-4.3-2.9,17.17,17.17,0,0,0-3.4-.6A6.51,6.51,0,0,1,96.2,40Z"/><path class="cls-4" d="M93.2,39c.6.2.8.8,1.2,1.3a6.25,6.25,0,0,0,2.9,3.3,3.39,3.39,0,0,0,3.6-.8,9.27,9.27,0,0,1,1.4-1.4,23.4,23.4,0,0,1-2.4-.9c-.6-.2-1.3-.3-1.9-.5A29.35,29.35,0,0,0,93.2,39Z"/><path class="cls-5" d="M92.9,39a29.16,29.16,0,0,1,4.9,1.2l1,.2,3.8,1c-.6-.2-.7-1.2-.9-1.7a6.71,6.71,0,0,0-.9-1.4,3,3,0,0,0-.8-.8,3.49,3.49,0,0,0-3.3-.2,10,10,0,0,0-2.1,1A5.44,5.44,0,0,1,92.9,39Z"/><path class="cls-5" d="M94.6,41.6a1.42,1.42,0,0,0,1.4-.9,1.6,1.6,0,0,0-.1-1.5A5.38,5.38,0,0,0,95,38a4.49,4.49,0,0,0-1.6-1.2,5,5,0,0,0-2.1.2l-4.8,1.4c1,.9,2.7.8,4,1.3a13.35,13.35,0,0,1,1.2.6A5.47,5.47,0,0,0,94.6,41.6Z"/><path class="cls-8" d="M92.2,41.6a14.16,14.16,0,0,0-10.5-1.2c1.5-1.2,2.6-2.9,4.4-3.5a4.17,4.17,0,0,1,.6-.2c.2-.1.3-.1.5-.2a2.76,2.76,0,0,1,2.2.3C91,38,91.5,39.8,92.2,41.6Z"/><path class="cls-7" d="M95.1,45.9a7.63,7.63,0,0,1-2.6-.2c-.2-.1-.5-.1-.7-.2a3,3,0,0,1-.8-.8,5.78,5.78,0,0,1-.7-3.8,7,7,0,0,0,1,.8,2.52,2.52,0,0,0,1.5.1,4.45,4.45,0,0,0,1.2-.6,1.64,1.64,0,0,1,1.2-.2c.5.1.5.6.8.9l1,.7a1,1,0,0,1,.5,1,3.33,3.33,0,0,1-.3.6c-.1.1-.1.3-.2.6A3,3,0,0,1,95.1,45.9Z"/><path class="cls-6" d="M88.6,42.9c-1.2-1.5-2.6-2.8-3.8-2.8a5.85,5.85,0,0,0-1.3.2,7.57,7.57,0,0,1-1.5.1l1.4,1,.9.7a42.89,42.89,0,0,1,3.5,2.8,10.63,10.63,0,0,1,1.5,1.5c.2.2.3.5.6.7s.8.9,1,.8-.3-1.2-.5-1.5A14.56,14.56,0,0,0,88.6,42.9Z"/><path class="cls-7" d="M89.2,47a16.55,16.55,0,0,1-2.1-.6A4.12,4.12,0,0,1,85,45a10.89,10.89,0,0,1-1.4-2.3A11.78,11.78,0,0,0,81.3,40a25.54,25.54,0,0,1,3.5,1.4,6.08,6.08,0,0,1,1.6.9,4.89,4.89,0,0,1,1.3,1.2,19.1,19.1,0,0,1,4.2,5.1A19.1,19.1,0,0,0,89.2,47Z"/><path class="cls-4" d="M73.2,12a3.46,3.46,0,0,1,2.1-1,9.09,9.09,0,0,0,5.1-2.7,6.07,6.07,0,0,0,1.2-5.2A8.43,8.43,0,0,1,80.9.7a34,34,0,0,1-2.3,3A11.22,11.22,0,0,0,77,5.9C75.6,8.1,74.5,10,73.2,12Z"/><path class="cls-5" d="M73.1,12.4c1.2-2.2,2.7-4.2,4.1-6.3l.9-1.3L81.4,0c-.5.7-1.6.5-2.3.7a18,18,0,0,0-2.1.8,6.38,6.38,0,0,0-1.4.8,6.77,6.77,0,0,0-2.1,4.3,17.93,17.93,0,0,0-.1,3.3A5.39,5.39,0,0,1,73.1,12.4Z"/><path class="cls-6" d="M90.1,2.3a8.39,8.39,0,0,0-5.9,2.9,5.38,5.38,0,0,0-1,2,7,7,0,0,1-1.4,2.1l2.3-1.2,1.4-.7c1.9-.9,3.7-1.7,5.7-2.6A10.67,10.67,0,0,1,93.9,4,2.34,2.34,0,0,0,95,3.8c.3-.1,1.5-.3,1.6-.7s-1.3-.6-1.7-.6A19.12,19.12,0,0,0,90.1,2.3Z"/><path class="cls-7" d="M94.1,4.9c-.9.8-1.6,1.6-2.6,2.4a6,6,0,0,1-3,1.7,19.4,19.4,0,0,1-3.4.2,11.17,11.17,0,0,0-4.4.9c1.4-1.3,2.9-2.4,4.4-3.6.7-.5,1.5-1,2.3-1.5a14.27,14.27,0,0,1,2.2-.8c2.6-.8,5.6-2,8.3-1.6A29.55,29.55,0,0,0,94.1,4.9Z"/><path class="cls-7" d="M75.2,8.8a6.66,6.66,0,0,1-.2,2.8c-.1.2-.1.6-.2.8a3.45,3.45,0,0,1-.8.9,4.78,4.78,0,0,1-3.7.8,2.92,2.92,0,0,0,.7-1.2,2.86,2.86,0,0,0,.1-1.6,2.54,2.54,0,0,0-.5-1.3,1.48,1.48,0,0,1-.2-1.3c.1-.5.6-.6.9-.8A6.35,6.35,0,0,0,72,6.7a.8.8,0,0,1,1-.6,3.33,3.33,0,0,1,.6.3,4.17,4.17,0,0,0,.6.2A3.42,3.42,0,0,1,75.2,8.8Z"/><path class="cls-5" d="M96.3,10.5a1.66,1.66,0,0,0,1-1.4,1.62,1.62,0,0,0-.7-1.4A2.73,2.73,0,0,0,95.3,7a5.37,5.37,0,0,0-2.1-.5,3.52,3.52,0,0,0-1.9,1l-4.2,3.1c1.4.3,2.9-.3,4.3-.3a5.28,5.28,0,0,1,1.3.1A8.74,8.74,0,0,0,96.3,10.5Z"/><path class="cls-8" d="M94.1,10.6a15.38,15.38,0,0,0-10.6,3c1-1.6,1.4-3.7,2.9-5a2.19,2.19,0,0,1,.5-.3c.1-.2.2-.3.3-.5a2.72,2.72,0,0,1,2.3-.6C91.5,7.7,92.7,9.2,94.1,10.6Z"/><path class="cls-6" d="M75.6,17.4c-1.9-.7-3.7-.9-4.9-.2-.3.2-.7.6-1,.8a4.28,4.28,0,0,1-1.3.9l1.9.1,1.2.1,4.7.3a8,8,0,0,1,2.1.5l.9.3c.2.1,1.3.3,1.3.1s-.9-.8-1.2-.9A16.8,16.8,0,0,0,75.6,17.4Z"/><path class="cls-7" d="M78.8,21a9.77,9.77,0,0,0-2.3.6,4.64,4.64,0,0,1-2.6-.1,14.14,14.14,0,0,1-2.4-1.3A9.85,9.85,0,0,0,68.1,19c1.3-.2,2.6-.3,3.8-.5a6.7,6.7,0,0,1,2,0c.6.1,1.2.2,1.7.3a24.09,24.09,0,0,1,6.3,2.4A10.34,10.34,0,0,0,78.8,21Z"/><path class="cls-4" d="M81.3,13.1a3.45,3.45,0,0,1,1.6,2A10,10,0,0,0,87.3,20a6.67,6.67,0,0,0,6-.2,9.46,9.46,0,0,1,2.4-1.4,28.26,28.26,0,0,1-4-1.7,11.76,11.76,0,0,0-3-1A43.55,43.55,0,0,0,81.3,13.1Z"/><path class="cls-5" d="M80.8,13a73.53,73.53,0,0,1,7.9,2.7l1.7.6,6.3,2.3c-.9-.3-.9-1.6-1.3-2.3A12.78,12.78,0,0,0,94,14.2a8.31,8.31,0,0,0-1.3-1.4,6.88,6.88,0,0,0-5.2-1,11.68,11.68,0,0,0-3.6.8A8.28,8.28,0,0,1,80.8,13Z"/><path class="cls-4" d="M77.4,13.1a2.47,2.47,0,0,1,1.6.8,6.85,6.85,0,0,0,4,1.9,3.72,3.72,0,0,0,3.3-2.2,10.84,10.84,0,0,1,.8-1.9,26.2,26.2,0,0,1-2.8.1,14.92,14.92,0,0,0-2.1.2A18.68,18.68,0,0,1,77.4,13.1Z"/><path class="cls-5" d="M77.2,13.4c1.7-.3,3.5-.7,5.2-.9l1.2-.1,4.2-.6c-.6,0-1-.8-1.5-1.2a4.62,4.62,0,0,0-1.5-.9,7.26,7.26,0,0,0-1.2-.5,4.36,4.36,0,0,0-3.3,1c-.6.5-1.2,1.2-1.7,1.7A4.06,4.06,0,0,1,77.2,13.4Z"/><path class="cls-5" d="M79.9,15.1a1.54,1.54,0,0,0,1-1.4,1.62,1.62,0,0,0-.7-1.4,4.59,4.59,0,0,0-1.4-.7,5.37,5.37,0,0,0-2.1-.5,4.21,4.21,0,0,0-2,1l-4.2,3.1c1.4.3,2.9-.3,4.3-.3a5.28,5.28,0,0,1,1.3.1A9.87,9.87,0,0,0,79.9,15.1Z"/><path class="cls-8" d="M77.7,14.2a15.09,15.09,0,0,0-9.8,5.2c.7-1.9.7-4,1.9-5.5a2.19,2.19,0,0,0,.3-.5.76.76,0,0,0,.2-.5,2.57,2.57,0,0,1,2.2-1C74.5,11.9,75.9,13.1,77.7,14.2Z"/><path class="cls-7" d="M81.4,19.5a6.61,6.61,0,0,1-2.8,0,3.09,3.09,0,0,1-.8-.2,1.5,1.5,0,0,1-.9-.7,4.51,4.51,0,0,1-1-3.7,7.62,7.62,0,0,0,1.3.7,3.79,3.79,0,0,0,1.5,0,12.75,12.75,0,0,1,1.2-.7,2.38,2.38,0,0,1,1.2-.3c.5.1.6.6.9.8a4.49,4.49,0,0,0,1.2.6c.3.2.7.6.6,1-.1.2-.2.5-.3.7a1.08,1.08,0,0,0-.1.6A4.48,4.48,0,0,1,81.4,19.5Z"/><path class="cls-4" d="M44.1,78.7a3.23,3.23,0,0,0-2.1-.8,8.4,8.4,0,0,1-5.2-2.4,6,6,0,0,1-1.4-5.1,10.88,10.88,0,0,0,.7-2.4,23.48,23.48,0,0,0,2.6,2.9,19.52,19.52,0,0,1,1.7,2.3C41.5,75,42.8,76.9,44.1,78.7Z"/><path class="cls-5" d="M44.3,79.2a65.14,65.14,0,0,0-4.3-6l-.9-1.3-3.5-4.8c.6.7,1.6.5,2.3.6a5.22,5.22,0,0,1,2.1.7c.5.2.9.5,1.4.7a5.84,5.84,0,0,1,2.2,4.2,12,12,0,0,1,.2,3.3A6,6,0,0,0,44.3,79.2Z"/><path class="cls-6" d="M26.7,69.8a8,8,0,0,1,6,2.7,19.92,19.92,0,0,1,1.2,1.9,12.78,12.78,0,0,0,1.4,2.1l-2.3-1-1.5-.6c-1.9-.8-3.8-1.6-5.8-2.3a11.9,11.9,0,0,0-2.7-.7c-.5-.1-.8-.1-1.2-.2s-1.6-.2-1.6-.7,1.3-.6,1.7-.6A11.75,11.75,0,0,1,26.7,69.8Z"/><path class="cls-7" d="M22.9,72.4c.9.7,1.7,1.6,2.7,2.3a6.41,6.41,0,0,0,3.3,1.6,19.3,19.3,0,0,0,3.4,0,11.89,11.89,0,0,1,4.5.8c-1.5-1.2-3-2.3-4.7-3.5a19.4,19.4,0,0,0-2.4-1.5,9.35,9.35,0,0,0-2.2-.7c-2.6-.7-5.7-1.7-8.4-1.3C20.3,70.9,21.6,71.6,22.9,72.4Z"/><path class="cls-7" d="M41.9,75.7a6.72,6.72,0,0,0,.3,2.8c.1.2.1.5.3.7a3,3,0,0,0,.8.8,5.18,5.18,0,0,0,3.8.6,3.6,3.6,0,0,1-.8-1.2,2.86,2.86,0,0,1-.1-1.6,6.94,6.94,0,0,1,.5-1.3,1.84,1.84,0,0,0,.1-1.3c-.1-.5-.6-.6-.9-.8a3.46,3.46,0,0,1-.7-1.2.82.82,0,0,0-1-.5c-.2.1-.3.3-.6.5a4.17,4.17,0,0,1-.6.2A3.81,3.81,0,0,0,41.9,75.7Z"/><path class="cls-5" d="M20.9,78.1a2,2,0,0,1-1.2-1.3,1.54,1.54,0,0,1,.6-1.4,3.69,3.69,0,0,1,1.4-.8,5,5,0,0,1,2.1-.5,5.15,5.15,0,0,1,2,.9l4.3,3c-1.4.5-2.9-.2-4.4-.1a5.85,5.85,0,0,0-1.3.2A6.92,6.92,0,0,1,20.9,78.1Z"/><path class="cls-8" d="M23.1,78.2a14.35,14.35,0,0,1,10.8,2.6c-1.2-1.6-1.6-3.7-3.1-4.9a2.19,2.19,0,0,0-.5-.3l-.3-.3a2.45,2.45,0,0,0-2.3-.5C25.6,75.2,24.5,76.7,23.1,78.2Z"/><path class="cls-6" d="M40.6,85.3c1.6-1,3.5-1.6,4.8-1.3a2.13,2.13,0,0,1,1.2.7,6.71,6.71,0,0,0,1.5.6l-1.9.5-1.2.4c-1.5.5-2.9.8-4.4,1.4a11.92,11.92,0,0,0-2,.8l-.8.5c-.2.1-1.2.6-1.3.3s.7-.9.9-1.2A21.68,21.68,0,0,1,40.6,85.3Z"/><path class="cls-7" d="M38.6,88.9c.8,0,1.5.2,2.3.2a5,5,0,0,0,2.6-.6,17.68,17.68,0,0,0,2.2-1.6A11.44,11.44,0,0,1,49,85.2c-1.3,0-2.6,0-4,.1a13.55,13.55,0,0,0-2,.2,4.92,4.92,0,0,0-1.7.6,19,19,0,0,0-5.9,3.3A30.62,30.62,0,0,0,38.6,88.9Z"/><path class="cls-4" d="M36,80.2a4.25,4.25,0,0,0-1.6,2.1,9.62,9.62,0,0,1-4.2,4.9,7,7,0,0,1-6,0,11.57,11.57,0,0,0-2.4-1.4,29.86,29.86,0,0,0,4-2,26.79,26.79,0,0,1,3-1.2C31.2,81.9,33.6,81,36,80.2Z"/><path class="cls-5" d="M36.6,80.1c-2.7.8-5.2,1.9-7.9,3l-1.6.7-6.2,2.6c.9-.5.9-1.6,1.3-2.4a6,6,0,0,1,1.4-2.1,7.47,7.47,0,0,1,1.2-1.4A8,8,0,0,1,30,79.2a20.81,20.81,0,0,1,3.6.6A7.5,7.5,0,0,0,36.6,80.1Z"/><path class="cls-4" d="M39.9,80.1a2,2,0,0,0-1.5.8,5.56,5.56,0,0,1-4,2A3.89,3.89,0,0,1,31,80.8a4.61,4.61,0,0,0-.9-1.7,13.1,13.1,0,0,0,2.8,0,14.92,14.92,0,0,1,2.1.2C36.6,79.6,38.3,79.9,39.9,80.1Z"/><path class="cls-5" d="M40.2,80.2a45.11,45.11,0,0,0-5.3-.7l-1.2-.1-4.2-.3c.6,0,1-.8,1.5-1.3.5-.3.9-.7,1.4-1,.3-.2.7-.3,1-.5a3.93,3.93,0,0,1,3.3.9,6.56,6.56,0,0,1,1.7,1.6C39.1,79.5,39.5,80,40.2,80.2Z"/><path class="cls-5" d="M37.6,82.2a2,2,0,0,1-1.2-1.3,1.54,1.54,0,0,1,.6-1.4,10,10,0,0,1,1.4-.8,5,5,0,0,1,2.1-.5,5.15,5.15,0,0,1,2,.9l4.3,3c-1.4.5-2.9-.2-4.4-.1a5.07,5.07,0,0,0-1.3.2A13.66,13.66,0,0,1,37.6,82.2Z"/><path class="cls-8" d="M39.8,81.2a14.86,14.86,0,0,1,10,4.8c-.8-1.7-.8-4-2.1-5.3a2.25,2.25,0,0,0-.5-.5l-.2-.6a2.46,2.46,0,0,0-2.2-.9C42.8,78.7,41.4,80,39.8,81.2Z"/><path class="cls-7" d="M31,85.2a4.93,4.93,0,0,0,2.4,1.4,1.88,1.88,0,0,0,.8.2,2.55,2.55,0,0,0,1.2-.1A5.12,5.12,0,0,0,38.3,84a6.6,6.6,0,0,1-1.4-.1,3.53,3.53,0,0,1-1.3-.8,12.75,12.75,0,0,1-.7-1.2A1.34,1.34,0,0,0,34,81a2.34,2.34,0,0,0-1.2.2,5.28,5.28,0,0,1-1.3-.1c-.5,0-.9.1-1,.6-.1.2,0,.5-.1.7s-.1.3-.1.6C30,83.7,30.5,84.5,31,85.2Z"/><path class="cls-4" d="M62.9,65.2a3.56,3.56,0,0,0,.7-2.4,10.66,10.66,0,0,1,2-6.2,6.15,6.15,0,0,1,5.3-2.2,11.15,11.15,0,0,0,2.7.3A31.09,31.09,0,0,0,70.7,58a22.84,22.84,0,0,1-2.2,2.2C66.6,62,64.8,63.6,62.9,65.2Z"/><path class="cls-5" d="M62.4,65.6a79.48,79.48,0,0,0,6-5.6l1.3-1.3,4.7-4.5c-.7.7-.2,1.9-.2,2.7a7.06,7.06,0,0,1-.6,2.4,3.82,3.82,0,0,1-.6,1.6A7.14,7.14,0,0,1,68.7,64a21.69,21.69,0,0,1-3.5.7A6.14,6.14,0,0,0,62.4,65.6Z"/><path class="cls-4" d="M54.1,66.6c-.2-.7-1.2-.9-1.9-1.2-2-.6-3.8-1.4-4.7-3.1a5.56,5.56,0,0,1,1.2-5.5,15.91,15.91,0,0,0,2-2.4A18.87,18.87,0,0,0,52,57.7a19.75,19.75,0,0,1,.8,2.6C53.3,62.4,53.6,64.5,54.1,66.6Z"/><path class="cls-5" d="M54.1,67.1c-.5-2.3-1-4.5-1.7-6.7L51.9,59l-1.6-5.2c.2.7,1.6.6,2.4.8a18.94,18.94,0,0,1,2.1.9,10.14,10.14,0,0,1,1.3.9c1,1,.8,2.9.3,4.5A14.34,14.34,0,0,1,55,64.3,6.18,6.18,0,0,0,54.1,67.1Z"/><path class="cls-4" d="M69.1,82.1c-.5-.5-1.3-.3-2-.2-1.9.2-3.8.2-5-.8a4,4,0,0,1-.5-4.4,6.43,6.43,0,0,0,1-2.4,20.79,20.79,0,0,0,2.1,2.1c.5.5.9,1,1.4,1.6C67.1,79.3,68,80.7,69.1,82.1Z"/><path class="cls-5" d="M69.2,82.4A34.57,34.57,0,0,0,65.8,78l-.8-.9-2.8-3.4c.5.5,1.6,0,2.4-.1a7.39,7.39,0,0,1,2.1,0,6.75,6.75,0,0,1,1.4.2c1.2.5,1.5,1.9,1.5,3.3a14.28,14.28,0,0,1-.3,2.9A2.88,2.88,0,0,0,69.2,82.4Z"/><path class="cls-7" d="M67.2,75.3a6,6,0,0,1-2.3.6h-.7a1.91,1.91,0,0,1-.8-.3,3.51,3.51,0,0,1-1.3-2.7,3.55,3.55,0,0,0,1,.2,2.77,2.77,0,0,0,1.3-.3,6.47,6.47,0,0,0,.9-.8,2.84,2.84,0,0,1,.9-.6c.3,0,.6.3.8.5a3.55,3.55,0,0,0,1,.2c.3.1.7.2.6.7,0,.2-.1.3-.2.6s0,.3,0,.5C68.5,74.4,67.8,75,67.2,75.3Z"/><path class="cls-7" d="M58.4,55.7a8.1,8.1,0,0,0-1.2,3.5,3.4,3.4,0,0,0-.1,1,3.53,3.53,0,0,0,.3,1.4,5.32,5.32,0,0,0,4,2.8,11.14,11.14,0,0,1-.2-1.7,3.72,3.72,0,0,1,.7-2,14.2,14.2,0,0,1,1.3-1.2,1.94,1.94,0,0,0,.9-1.4c.1-.6-.3-.9-.6-1.5a11.14,11.14,0,0,1-.2-1.7c0-.5-.3-1.2-.9-1.2-.3,0-.6.1-.9.1s-.5-.1-.8-.1A4.52,4.52,0,0,0,58.4,55.7Z"/><path class="cls-5" d="M47.7,63.1a1.53,1.53,0,0,1,0-1.6,2,2,0,0,1,1.4-.8,8.6,8.6,0,0,1,1.6.1,3.06,3.06,0,0,1,2,.7,2.84,2.84,0,0,1,.9,1.7L55,67.7c-1.4-.3-2.2-1.6-3.4-2.3a13.35,13.35,0,0,1-1.2-.6A6.5,6.5,0,0,1,47.7,63.1Z"/><path class="cls-8" d="M49.4,64.4a12.29,12.29,0,0,1,6.9,7.7c.1-1.9,1.3-3.7.8-5.5,0-.3-.1-.5-.1-.7v-.5a2.17,2.17,0,0,0-1.6-1.6C53.5,63.3,51.5,63.9,49.4,64.4Z"/><path class="cls-6" d="M73.4,69.3a6.64,6.64,0,0,0-5.8-.9,12.15,12.15,0,0,0-2,.9,15.71,15.71,0,0,1-2.3.9l2.2.3,1.4.2a48.56,48.56,0,0,1,5.5,1,9,9,0,0,1,2.3.8,4.05,4.05,0,0,1,.9.5c.3.2,1.3.6,1.5.2s-.5-1-.7-1.4A14.76,14.76,0,0,0,73.4,69.3Z"/><path class="cls-7" d="M74.3,73.4c-1.2.1-2.2.5-3.3.6a7.48,7.48,0,0,1-3.3-.2,18.82,18.82,0,0,1-2.3-1.6,7.85,7.85,0,0,0-3.6-1.6c1.7-.2,3.6-.3,5.3-.5a11.29,11.29,0,0,1,2.6,0,6.64,6.64,0,0,1,2,.6c2.2.7,4.9,1.4,6.5,3.3A10,10,0,0,0,74.3,73.4Z"/><path class="cls-4" d="M59.8,70.5A3.42,3.42,0,0,0,61.2,69a8.91,8.91,0,0,1,3.6-3.6,4.47,4.47,0,0,1,4.2-.1,7.46,7.46,0,0,0,1.5.9c-1,.5-2,.9-2.9,1.4-.7.3-1.5.6-2.2.9C63.4,69.2,61.6,69.8,59.8,70.5Z"/><path class="cls-5" d="M59.4,70.5a49.77,49.77,0,0,0,5.8-2.2l1.3-.6,4.7-2c-.7.3-.8,1.2-1.3,1.7a6.1,6.1,0,0,1-1.3,1.5,7.64,7.64,0,0,1-.9.9,5.25,5.25,0,0,1-3.8,1,9.86,9.86,0,0,1-2.4-.3A7.35,7.35,0,0,0,59.4,70.5Z"/><path class="cls-6" d="M63.1,63.1a6.75,6.75,0,0,1-.7,5.2,5.66,5.66,0,0,1-1.2,1.5c-.5.6-.9,1.2-1.3,1.7l.2-2.1.1-1.3c.2-1.6.3-3.3.5-5a8.09,8.09,0,0,0,0-2.2c0-.3-.1-.6-.1-.9s-.1-1.2.1-1.4.7.7.8.9A10,10,0,0,1,63.1,63.1Z"/><path class="cls-7" d="M60.2,61.4c-.3.9-.8,1.9-1.2,2.8a5.83,5.83,0,0,0-.6,2.9,6.15,6.15,0,0,0,.7,2.3,8.35,8.35,0,0,1,.3,3.5c.6-1.5,1-3,1.6-4.5a18,18,0,0,0,.6-2.2V64.3c0-2.1,0-4.7-.9-6.4A8.51,8.51,0,0,1,60.2,61.4Z"/><path class="cls-5" d="M64.3,77.2a1.87,1.87,0,0,0,1.4-.5,2.13,2.13,0,0,0,.3-1.2,2.35,2.35,0,0,0-.5-1,2,2,0,0,0-1-1,4.84,4.84,0,0,0-1.7,0l-4.2.7c.7.8,2,.8,2.9,1.4a2.1,2.1,0,0,1,.8.6A4.21,4.21,0,0,0,64.3,77.2Z"/><path class="cls-8" d="M62.9,76.5a10.14,10.14,0,0,0-8.1-1.7c1.5-.7,2.8-2.1,4.4-2.3a1.09,1.09,0,0,0,.5-.1l.5-.1a1.77,1.77,0,0,1,1.7.5C62.8,73.6,62.8,75.1,62.9,76.5Z"/><path class="cls-6" d="M59.3,68.7a8.42,8.42,0,0,1-2.2,5.2,15.76,15.76,0,0,1-1.5,1.2A11.43,11.43,0,0,0,54,76.5l.8-2,.6-1.3c.7-1.6,1.4-3.3,2-4.9a18,18,0,0,0,.6-2.2c0-.3.1-.7.1-.9s.2-1.3.6-1.4.5.9.5,1.3A21,21,0,0,1,59.3,68.7Z"/><path class="cls-7" d="M57.2,66c-.6.8-1.3,1.6-2,2.4a5.73,5.73,0,0,0-1.4,2.8,11.29,11.29,0,0,0,0,2.6,9.71,9.71,0,0,1-.7,3.7c.9-1.4,1.9-2.7,2.8-4.1a23.92,23.92,0,0,0,1.3-2.1,13.89,13.89,0,0,0,.6-1.9c.6-2.1,1.4-4.7,1.2-6.7A34.74,34.74,0,0,1,57.2,66Z"/><path class="cls-4" d="M15.3,53.9a4,4,0,0,1-2.3-.8,9.84,9.84,0,0,0-6-2,6,6,0,0,0-4.8,3.3A5.64,5.64,0,0,1,.9,56.8c1.4-.2,2.8-.5,4.2-.6a14.5,14.5,0,0,0,3-.6C10.6,55.2,12.9,54.5,15.3,53.9Z"/><path class="cls-5" d="M15.7,53.7a54.42,54.42,0,0,1-7.8,1.7l-1.6.3L0,57c.9-.1,1.6.9,2.3,1.4a6.71,6.71,0,0,0,2.3,1c.6.2,1,.3,1.6.5A7.6,7.6,0,0,0,11,58.2c.9-.7,1.7-1.6,2.6-2.4A6,6,0,0,1,15.7,53.7Z"/><path class="cls-4" d="M21.3,47.3a3,3,0,0,1,.1-2.3c.6-2,1-4.1.1-5.7a5.11,5.11,0,0,0-5-2.3,15.14,15.14,0,0,1-3,.2,18.94,18.94,0,0,1,1.9,3A16.6,16.6,0,0,0,17,42.3C18.4,44.1,19.9,45.7,21.3,47.3Z"/><path class="cls-5" d="M21.6,47.6a48.19,48.19,0,0,1-4.4-5.5l-.9-1.2L13,36.5c.5.7-.5,1.7-.7,2.6a9.08,9.08,0,0,0-.3,2.3,3.79,3.79,0,0,0,0,1.5c.3,1.5,1.9,2.4,3.5,3a22.07,22.07,0,0,0,3.5.8A8,8,0,0,1,21.6,47.6Z"/><path class="cls-4" d="M25.2,68.9c-.1-.6.5-1.3.9-1.9,1.2-1.4,2.3-3.1,2.1-4.7a3.72,3.72,0,0,0-3.3-3,8.51,8.51,0,0,1-2.6-.5,14.68,14.68,0,0,1,.5,2.9,8.3,8.3,0,0,0,.6,2.1A53.15,53.15,0,0,1,25.2,68.9Z"/><path class="cls-5" d="M25.5,69.3a32,32,0,0,1-1.7-5.5l-.3-1.2-1.2-4.4c.1.7-.9,1.3-1.4,2s-.8,1.2-1.2,1.7a3.93,3.93,0,0,0-.6,1.3,3.68,3.68,0,0,0,1.7,3.3,10.78,10.78,0,0,0,2.6,1.4A3.93,3.93,0,0,1,25.5,69.3Z"/><path class="cls-7" d="M20.9,63.5a3.75,3.75,0,0,0,1.7-1.6,3.33,3.33,0,0,0,.3-.6,1.34,1.34,0,0,0,.1-.9,3.42,3.42,0,0,0-1.5-2.7c-.1.3-.2.7-.3,1a2.93,2.93,0,0,1-1,.9,4.3,4.3,0,0,1-1.2.2,1.19,1.19,0,0,0-.9.5,1.8,1.8,0,0,0-.1,1,2.35,2.35,0,0,1-.5,1,.76.76,0,0,0,.2.9,4.17,4.17,0,0,0,.6.2.59.59,0,0,0,.5.2A2.53,2.53,0,0,0,20.9,63.5Z"/><path class="cls-7" d="M10.2,44.5a10.13,10.13,0,0,1,3.5,1,4.05,4.05,0,0,1,.9.5,3.78,3.78,0,0,1,.9,1.2,6.21,6.21,0,0,1,0,5,5.35,5.35,0,0,0-1.3-1.3,3.51,3.51,0,0,0-2-.5,3.77,3.77,0,0,0-1.6.5,2.19,2.19,0,0,1-1.6,0c-.7-.3-.7-.9-.9-1.4a5,5,0,0,0-1.3-1.2,1,1,0,0,1-.3-1.5c.1-.2.5-.5.6-.7s.2-.5.3-.7A3.94,3.94,0,0,1,10.2,44.5Z"/><path class="cls-5" d="M22.1,39.9a1.29,1.29,0,0,0-1.3-.9,2,2,0,0,0-1.5.7,10,10,0,0,0-.8,1.4,5.09,5.09,0,0,0-.6,2.1,6.39,6.39,0,0,0,.8,1.9l2.9,3.8c.5-1.4-.1-2.8,0-4.3a5.07,5.07,0,0,1,.2-1.3A6.61,6.61,0,0,0,22.1,39.9Z"/><path class="cls-8" d="M22,42.1a13.12,13.12,0,0,0,2.2,10.2c-1.6-.9-3.7-1.2-4.8-2.6a2.19,2.19,0,0,1-.3-.5l-.3-.3a2,2,0,0,1-.3-2.3C19,44.9,20.5,43.6,22,42.1Z"/><path class="cls-6" d="M12.7,65.1a7.56,7.56,0,0,1,2.4-5.5A19.92,19.92,0,0,1,17,58.4c.7-.5,1.4-.9,2.1-1.4l-.9,2.2-.6,1.3c-.8,1.7-1.6,3.5-2.2,5.2a10.88,10.88,0,0,0-.7,2.4,3.4,3.4,0,0,0-.1,1c0,.3-.2,1.4-.6,1.5s-.6-1-.7-1.4A9.52,9.52,0,0,1,12.7,65.1Z"/><path class="cls-7" d="M15.5,68.4c.7-.8,1.6-1.6,2.3-2.4a6.94,6.94,0,0,0,1.6-2.9,9.42,9.42,0,0,0-.1-2.9,9.15,9.15,0,0,1,.7-4c-1.2,1.4-2.2,2.8-3.4,4.2a17,17,0,0,0-1.5,2.2c-.2.7-.5,1.3-.7,2-.7,2.2-1.6,5-1,7.3A15.49,15.49,0,0,1,15.5,68.4Z"/><path class="cls-4" d="M21.2,54.3a6.45,6.45,0,0,1-2,.3,9.33,9.33,0,0,0-4.9.9A4.67,4.67,0,0,0,11.9,59a6.08,6.08,0,0,1-.1,1.9,20,20,0,0,1,2.8-1.6,12.14,12.14,0,0,0,2-1.4C18.1,56.6,19.6,55.5,21.2,54.3Z"/><path class="cls-5" d="M21.4,54.1c-1.6,1.3-3.4,2.4-5,3.6l-1.2.8-4.1,2.8c.6-.3,1.4,0,2.1,0a12.1,12.1,0,0,0,1.9-.1,5.07,5.07,0,0,0,1.3-.2,5.12,5.12,0,0,0,2.9-2.7,6.71,6.71,0,0,0,1-2.3A4.34,4.34,0,0,1,21.4,54.1Z"/><path class="cls-6" d="M13.5,52.9a7.63,7.63,0,0,0,4.7,2.6,12.1,12.1,0,0,0,1.9-.1h2.1l-1.7-.9-1-.6c-1.4-.8-2.9-1.6-4.2-2.4a7,7,0,0,1-1.7-1.3l-.7-.7c-.2-.2-.9-.8-1.2-.7s.1,1,.2,1.3A9,9,0,0,0,13.5,52.9Z"/><path class="cls-7" d="M13.7,49.4c.9.2,1.9.3,2.9.6a5.35,5.35,0,0,1,2.6,1.3,14.91,14.91,0,0,1,1.5,2,8.29,8.29,0,0,0,2.6,2.3,38.09,38.09,0,0,1-4.5-1.3,18,18,0,0,1-2.1-.8c-.6-.3-1-.7-1.5-1-1.7-1.3-3.8-2.7-4.7-4.5C11.5,48.5,12.6,48.9,13.7,49.4Z"/><path class="cls-5" d="M24.1,62.2a1.48,1.48,0,0,1-1.2.8,1.46,1.46,0,0,1-1.2-.5,2.84,2.84,0,0,1-.6-.9,2.62,2.62,0,0,1-.2-1.5,3.39,3.39,0,0,1,.9-1.4l2.9-3.1c.2,1-.5,2.1-.6,3.1v.9A4.6,4.6,0,0,1,24.1,62.2Z"/><path class="cls-8" d="M24.3,60.6a10.7,10.7,0,0,1,3.1-7.9c-1.4.8-3.3,1.2-4.3,2.3l-.3.3-.3.2a1.83,1.83,0,0,0-.6,1.7C22,58.7,23.3,59.5,24.3,60.6Z"/><path class="cls-6" d="M20.1,52.9a8.33,8.33,0,0,0,5.3,1.2,4.92,4.92,0,0,0,1.7-.6,16.55,16.55,0,0,1,2.1-.6l-2.1-.5-1.3-.2a30.69,30.69,0,0,1-5-1.3,18,18,0,0,1-2.1-.8,9,9,0,0,1-.9-.5c-.3-.1-1.2-.6-1.4-.3s.5.9.7,1.2A16.63,16.63,0,0,0,20.1,52.9Z"/><path class="cls-7" d="M19.2,49.6c1,0,2-.1,3-.2a5.76,5.76,0,0,1,2.9.5,11.26,11.26,0,0,1,2.1,1.5,8.24,8.24,0,0,0,3.3,1.5c-1.6,0-3.3,0-4.9-.1a17.85,17.85,0,0,1-2.3-.2,7,7,0,0,1-1.9-.6c-2-.7-4.5-1.5-6-3A23.18,23.18,0,0,0,19.2,49.6Z"/><path class="cls-4" d="M49.1,34.3a3.28,3.28,0,0,0-.5-2.1,8.51,8.51,0,0,1-.9-5.2,4.24,4.24,0,0,1,2.9-3.3,4.66,4.66,0,0,0,2-.6,16,16,0,0,0-.7,3.3c-.2.8-.5,1.5-.7,2.3C50.5,30.7,49.8,32.4,49.1,34.3Z"/><path class="cls-5" d="M48.9,34.5c.8-1.9,1.4-4,2-5.9l.3-1.3,1.4-4.8c-.2.7.6,1.4.9,2.1a11.69,11.69,0,0,1,.6,2,6.75,6.75,0,0,1,.2,1.4,4.91,4.91,0,0,1-1.7,3.5A9.12,9.12,0,0,1,50.5,33,11.72,11.72,0,0,0,48.9,34.5Z"/><path class="cls-4" d="M43.5,37.8a2.17,2.17,0,0,0-1.7-.3,6.78,6.78,0,0,1-4.4-.9A4.87,4.87,0,0,1,36,32.2a8.52,8.52,0,0,0,.3-2.3c.7.7,1.4,1.4,2.2,2.1A12.17,12.17,0,0,1,40,33.7C41.2,34.9,42.2,36.4,43.5,37.8Z"/><path class="cls-5" d="M43.6,38.1c-1.2-1.5-2.6-3-3.8-4.5l-.9-.9-3.1-3.5c.5.5,1.4,0,2-.1a12.1,12.1,0,0,1,1.9.1,3,3,0,0,1,1.2.3A4.59,4.59,0,0,1,43,32.8a14.28,14.28,0,0,1,.3,2.9A3.83,3.83,0,0,0,43.6,38.1Z"/><path class="cls-4" d="M60.1,45c-.5-.2-1,.1-1.5.3a5.12,5.12,0,0,1-3.8.8A3.35,3.35,0,0,1,52.7,43a7.49,7.49,0,0,0-.2-2.1,20.36,20.36,0,0,0,2.2.9,11.94,11.94,0,0,1,1.6.8C57.6,43.5,58.8,44.2,60.1,45Z"/><path class="cls-5" d="M60.2,45.2c-1.3-.8-2.7-1.6-4.1-2.3l-.9-.5L52,40.7c.5.2,1.2-.5,1.6-.8a6.71,6.71,0,0,1,1.5-.6,3.55,3.55,0,0,1,1-.2,3,3,0,0,1,2.4,2,15.71,15.71,0,0,1,.9,2.3A5.83,5.83,0,0,0,60.2,45.2Z"/><path class="cls-7" d="M56,40.5a2.43,2.43,0,0,1-1.4,1c-.1.1-.3.1-.5.2s-.5.1-.7.1a3.45,3.45,0,0,1-2-1.6,2.77,2.77,0,0,0,.9-.1,1.34,1.34,0,0,0,.8-.7c.1-.2.2-.6.3-.8a1.53,1.53,0,0,1,.5-.7c.2-.1.5.1.8.1s.6-.1.8-.1a.55.55,0,0,1,.7.3,1.09,1.09,0,0,0,.1.5.37.37,0,0,1,.1.3A1.44,1.44,0,0,1,56,40.5Z"/><path class="cls-7" d="M42.1,28.5a7.1,7.1,0,0,0,.5,2.9c.1.2.2.6.3.8a2.58,2.58,0,0,0,.9.9,5.23,5.23,0,0,0,4,.9,4.28,4.28,0,0,1-.9-1.3,2.85,2.85,0,0,1-.2-1.6,3.49,3.49,0,0,1,.5-1.3,2,2,0,0,0,.1-1.3c-.2-.5-.7-.6-.9-.9a5,5,0,0,1-.8-1.2,1,1,0,0,0-1.2-.6,3.33,3.33,0,0,1-.6.3,1.08,1.08,0,0,1-.6.1C42.4,26.6,42.2,27.6,42.1,28.5Z"/><path class="cls-5" d="M37.6,37.1a1.47,1.47,0,0,1-.6-1.7c.1-.2.3-.3.6-.6a7.26,7.26,0,0,1,1.2-.5,3,3,0,0,1,1.6-.1,3.59,3.59,0,0,1,1.4,1l2.8,3c-1.2.1-2.2-.6-3.4-.8-.3,0-.7-.1-1-.1A3.94,3.94,0,0,1,37.6,37.1Z"/><path class="cls-8" d="M39.3,37.4a11.54,11.54,0,0,1,7.9,3.7c-.6-1.4-.6-3.1-1.6-4.3l-.3-.3c-.1-.1-.1-.2-.2-.3a1.9,1.9,0,0,0-1.7-.7C41.7,35.5,40.6,36.5,39.3,37.4Z"/><path class="cls-6" d="M58.1,34.2a5.18,5.18,0,0,0-4.4,1,7.34,7.34,0,0,0-1,1.3,8.31,8.31,0,0,1-1.3,1.4l1.7-.3,1-.2c1.4-.3,2.8-.6,4.3-.8a12.75,12.75,0,0,1,2-.1c.2,0,.6.1.8.1s1.2,0,1.2-.2-.8-.7-1-.8A7.35,7.35,0,0,0,58.1,34.2Z"/><path class="cls-7" d="M60.3,37c-.7.5-1.4.9-2.1,1.4a4,4,0,0,1-2.4.7,7.94,7.94,0,0,1-2.2-.6,8.13,8.13,0,0,0-3.1-.2c1.2-.7,2.3-1.3,3.6-1.9a6.19,6.19,0,0,1,1.9-.7,8.75,8.75,0,0,1,1.6-.2c1.9-.1,4.1-.3,5.8.5A16,16,0,0,0,60.3,37Z"/><path class="cls-4" d="M48.9,39.1c.2-.5.5-.9.3-1.5a6.63,6.63,0,0,1,1-3.7,3.22,3.22,0,0,1,2.9-1.3,6.75,6.75,0,0,0,1.4.2,14.91,14.91,0,0,0-1.5,2,14.93,14.93,0,0,1-1.2,1.4C50.9,37,50,38,48.9,39.1Z"/><path class="cls-5" d="M48.7,39.2A35.49,35.49,0,0,0,52,35.8l.7-.7,2.4-2.8c-.3.5-.1,1.2-.1,1.7a4,4,0,0,1-.3,1.5c-.1.3-.2.7-.3,1A5,5,0,0,1,52,38.4c-.6.2-1.2.3-1.9.5A1.27,1.27,0,0,0,48.7,39.2Z"/><path class="cls-6" d="M48.5,32.6a6.45,6.45,0,0,1,1.6,4.2,8.87,8.87,0,0,1-.2,1.5c-.1.6-.1,1.2-.2,1.7l-.6-1.6-.3-.9c-.5-1.3-1-2.6-1.6-3.8a12.9,12.9,0,0,0-.9-1.6,1.47,1.47,0,0,0-.5-.6c-.2-.1-.6-.9-.5-1s.8.3.9.5A3.91,3.91,0,0,1,48.5,32.6Z"/><path class="cls-7" d="M45.7,32.1c.1.8.1,1.6.2,2.4a4.89,4.89,0,0,0,.8,2.3c.5.6.9,1,1.4,1.5a6.33,6.33,0,0,1,1.6,2.4c-.2-1.3-.5-2.6-.7-3.8a6.69,6.69,0,0,0-.5-1.9c-.2-.5-.5-.9-.7-1.4a14.44,14.44,0,0,0-3.1-4.5A15,15,0,0,1,45.7,32.1Z"/><path class="cls-5" d="M54.9,42.8a1.39,1.39,0,0,0,.7-.8,1.23,1.23,0,0,0-.2-1,3.74,3.74,0,0,0-.7-.6,2.2,2.2,0,0,0-1.2-.5,1.85,1.85,0,0,0-1.2.5l-2.7,1.7c.8.3,1.7,0,2.6.2a3.09,3.09,0,0,1,.8.2A5.41,5.41,0,0,0,54.9,42.8Z"/><path class="cls-8" d="M53.6,42.7a8,8,0,0,0-6.4,1c.8-.9,1.2-2.3,2.1-3,.1-.1.2-.1.3-.2l.2-.2a1.37,1.37,0,0,1,1.4-.1C52.3,40.5,52.9,41.6,53.6,42.7Z"/><path class="cls-6" d="M47.9,37.9a7,7,0,0,1,.5,4.5,3.1,3.1,0,0,1-.6,1.3,9.38,9.38,0,0,0-.6,1.5L47,43.5l-.1-1a30.34,30.34,0,0,0-.6-4.2,6.69,6.69,0,0,0-.5-1.9,1.88,1.88,0,0,1-.2-.8c0-.3-.3-1-.1-1.2s.7.6.8.8A14.76,14.76,0,0,1,47.9,37.9Z"/><path class="cls-7" d="M45.3,36.5c-.1.8-.2,1.5-.3,2.3a6.47,6.47,0,0,0,.1,2.4,12.15,12.15,0,0,0,.9,2,7.54,7.54,0,0,1,.9,2.9c.1-1.3.2-2.6.3-3.8a6.7,6.7,0,0,0,0-2,9,9,0,0,0-.3-1.6A14,14,0,0,0,45,33.4,6.59,6.59,0,0,1,45.3,36.5Z"/><path class="cls-4" d="M60.9,13.1a1.83,1.83,0,0,0-1.6-.3,8.76,8.76,0,0,1-4.2-.8,3.49,3.49,0,0,1-1.7-3,9.74,9.74,0,0,0,.1-1.6,18.19,18.19,0,0,0,2.3,1.5,16.67,16.67,0,0,1,1.6,1.2C58.5,11,59.6,12.1,60.9,13.1Z"/><path class="cls-5" d="M61.2,13.4c-1.3-1.2-2.7-2.2-4.1-3.3l-.9-.7L52.9,7c.5.3,1.3,0,1.9,0a7.59,7.59,0,0,1,1.6.1,6,6,0,0,1,1.2.2,4.68,4.68,0,0,1,2.3,2.3,11.69,11.69,0,0,1,.6,2A2.87,2.87,0,0,0,61.2,13.4Z"/><path class="cls-5" d="M76.3,30.1a2.12,2.12,0,0,0,1.4-1.5,1.77,1.77,0,0,0-.5-1.7,2.3,2.3,0,0,0-1.4-.9,3.6,3.6,0,0,0-2.2-.7,6.5,6.5,0,0,0-2.3.9l-5.1,3.3c1.5.6,3.3-.1,4.8,0a6.75,6.75,0,0,1,1.4.2A7.38,7.38,0,0,0,76.3,30.1Z"/><path class="cls-8" d="M73.8,30.1a16.1,16.1,0,0,0-12.2,2.6c1.4-1.7,2.2-4.3,4.1-5.6a3.33,3.33,0,0,0,.6-.3l.5-.5a2.61,2.61,0,0,1,2.7-.3C71.4,26.5,72.4,28.4,73.8,30.1Z"/><path class="cls-6" d="M83.2,28.5c-2.6,1.4-4.5,3.3-4.9,5.1a6.05,6.05,0,0,0,0,1.9,16.2,16.2,0,0,1-.1,2.2l2-2,1.2-1.2c1.5-1.6,3-3.1,4.8-4.8.8-.7,1.6-1.4,2.4-2,.3-.2.8-.5,1.2-.8s1.5-1,1.4-1.4-1.7.3-2.3.5A29,29,0,0,0,83.2,28.5Z"/><path class="cls-7" d="M89.4,28.3c-.5,1-.8,2.1-1.3,3a7.5,7.5,0,0,1-2.4,2.9,16.89,16.89,0,0,1-3.6,1.7,16,16,0,0,0-4.4,2.9c.8-1.6,1.7-3.3,2.7-4.9A18.82,18.82,0,0,1,82,31.6a16.32,16.32,0,0,1,2-1.7c2.3-1.9,5-4.2,8.4-5.3A20.29,20.29,0,0,0,89.4,28.3Z"/><path class="cls-7" d="M86,50a5.41,5.41,0,0,0-1.5-2.2c-.1-.2-.3-.3-.6-.6a7.26,7.26,0,0,0-1.2-.5,5.39,5.39,0,0,0-3.8.8,2.79,2.79,0,0,1,1.3.7,2.87,2.87,0,0,1,.8,1.3v1.3a2.38,2.38,0,0,0,.3,1.2c.3.3.8.2,1.2.3a12.75,12.75,0,0,1,1.2.7A1.47,1.47,0,0,0,85,53c.2-.1.2-.3.5-.6a1.33,1.33,0,0,1,.5-.3A3,3,0,0,0,86,50Z"/><path class="cls-6" d="M35.9,18.4c.8,1.7,1.2,3.7.7,4.9a5,5,0,0,1-.8,1.2,10,10,0,0,0-.8,1.4L34.8,24l-.1-1.2c-.2-1.5-.5-3-.8-4.7a8.3,8.3,0,0,0-.6-2.1l-.3-.9c-.1-.3-.5-1.2-.2-1.3s.8.8,1,1.2A22,22,0,0,1,35.9,18.4Z"/><path class="cls-7" d="M32.7,15.9a18.92,18.92,0,0,1-.5,2.3,6.09,6.09,0,0,0,.2,2.7,14.14,14.14,0,0,0,1.3,2.4,17,17,0,0,1,1.2,3.4c.2-1.3.2-2.7.3-4a7.39,7.39,0,0,0,0-2.1c-.1-.6-.2-1.2-.3-1.7a24.76,24.76,0,0,0-2.4-6.4C32.6,13.7,32.7,14.9,32.7,15.9Z"/><path class="cls-5" d="M86.3,67.7c.3-.1.7-.2.7-.6a1,1,0,0,0-.5-.8,5.3,5.3,0,0,1-1-.6c-.5-.2-.9-.3-1.5-.5a2.77,2.77,0,0,0-1.3.3l-2.9,1.2a10.34,10.34,0,0,0,3,.2,2.39,2.39,0,0,1,.9.2A5.18,5.18,0,0,0,86.3,67.7Z"/><path class="cls-8" d="M84.8,67.6a11.74,11.74,0,0,0-7.4.5c.7-.7.9-1.9,1.9-2.3l.3-.1.2-.2a2.19,2.19,0,0,1,1.6,0A7.21,7.21,0,0,1,84.8,67.6Z"/><path class="cls-4" d="M30.3,89.1a2.81,2.81,0,0,0-.6,1.5,6.68,6.68,0,0,1-1.4,3.6,4.12,4.12,0,0,1-3.5,1.2,7.77,7.77,0,0,0-1.6-.2,17,17,0,0,0,1.9-1.9A9.34,9.34,0,0,1,26.6,92C27.8,91,29.1,90.1,30.3,89.1Z"/><path class="cls-5" d="M30.6,88.9a41.17,41.17,0,0,0-4,3.3l-.8.7-3,2.7c.5-.3.2-1.2.2-1.6l.3-1.5a1.62,1.62,0,0,1,.5-.9,4.33,4.33,0,0,1,2.8-1.7,8.33,8.33,0,0,1,2.2-.3C29.4,89.3,30,89.2,30.6,88.9Z"/><path class="cls-1" d="M74.9,158.9a7.31,7.31,0,0,1,.7,1.9,4.71,4.71,0,0,1-1,3.5,16.46,16.46,0,0,0-2,3.1A9.09,9.09,0,0,0,72,171l-.6,10.6a5,5,0,0,1-1.2,3.7,5.19,5.19,0,0,1-3,1.2c-4.4.7-8.8,1.4-13.3.8a1.76,1.76,0,0,1-1.3-.6,1.83,1.83,0,0,1-.3-1.6,53.46,53.46,0,0,1,8.3-25.2,53.5,53.5,0,0,0,2.9-4.7,7.61,7.61,0,0,1,1.2-1.9,5.2,5.2,0,0,1,3.8-1.3,13.94,13.94,0,0,0,4.1-.3c2-.7,1.9.7,1.7,2.2A11.89,11.89,0,0,0,74.9,158.9Z"/><path class="cls-9" d="M31,149.6l1.5,4.4a13,13,0,0,1,.1,5.2c0,.6-.2,1.6-.2,2.2,0,2,2.4,4,3.4,5.7,2.2,4.8.6,10.2,1.4,15.5a1.93,1.93,0,0,0,.3,1,2.41,2.41,0,0,0,.8.6c4.5,2.4,11.3,3.3,16.5,2.9a6.28,6.28,0,0,0,1.9-.3,7.14,7.14,0,0,0,1.5-.8c2.9-2.1,4-5.7,5.2-9.1s1-7,1.4-10.5c.1-.9.9-2,.9-2.9,0-3.1-1.4-6.2-.9-9.2-2.8-.3-5.8-.3-8.6-.5-7.3-.2-14.4-2.2-21.4-4.2A16.09,16.09,0,0,0,31,149.6Z"/><path class="cls-6" d="M68.2,39.4a5.76,5.76,0,0,1-.9,4.4,3.6,3.6,0,0,1-1.2.8,12.7,12.7,0,0,0-1.2,1l.3-1.7.2-1c.2-1.4.6-2.8.7-4.2a12.75,12.75,0,0,0,.1-2v-.9c0-.3,0-1.2.2-1.2s.6.9.7,1.2A9.21,9.21,0,0,1,68.2,39.4Z"/><path class="cls-7" d="M65.9,36.7a21.16,21.16,0,0,1-1.2,2A3.89,3.89,0,0,0,64,41a9.48,9.48,0,0,0,.5,2.3,11.91,11.91,0,0,1,.1,3.3,17.73,17.73,0,0,0,1.6-3.4c.2-.6.5-1.2.7-1.7s.1-1,.2-1.6a19.2,19.2,0,0,0-.3-5.9A17.08,17.08,0,0,1,65.9,36.7Z"/><path class="cls-6" d="M63,85.1A6.66,6.66,0,0,0,58.5,88a10.41,10.41,0,0,0-.6,1.6,15.39,15.39,0,0,1-.8,1.9l1.7-1.2,1-.7c1.4-.9,2.8-1.9,4.3-2.7a18.94,18.94,0,0,1,2.1-.9,9.44,9.44,0,0,0,.9-.3c.2-.1,1.3-.5,1.3-.8s-1.2-.2-1.5-.2A13,13,0,0,0,63,85.1Z"/><path class="cls-7" d="M66.6,86.6c-.6.7-1.2,1.5-1.7,2.2a4.81,4.81,0,0,1-2.3,1.7c-.9.2-1.7.3-2.7.5a9.78,9.78,0,0,0-3.6,1.3c1-1.2,2.1-2.2,3.1-3.4a12.17,12.17,0,0,1,1.7-1.5c.6-.3,1.2-.7,1.7-.9,2-.9,4.3-2.1,6.6-2.2C68.5,85,67.6,85.8,66.6,86.6Z"/><path class="cls-10" d="M29.5,148.4a12.26,12.26,0,0,0,5.7,3.1,75.56,75.56,0,0,0,33.4,2.7,14.28,14.28,0,0,0,6.3-2.1,9.22,9.22,0,0,0,3-3.5c.9-1.7,1.4-4.2.2-5.8a25.27,25.27,0,0,1-3.1,4.9c-2.6,2.4-6,2.8-9.3,3a75.72,75.72,0,0,1-19.6-.5,39.18,39.18,0,0,1-12.7-4.4c-.9-.5-4.8-3.8-5.3-3.4C26.7,143.6,28.7,147.5,29.5,148.4Z"/><path class="cls-11" d="M72.3,149.4c-2.1,1-4.3.9-6.5,1.4-2.9.7-5.6,2.6-8.5,3.1-2.2.5-4.5.1-6.6.6,6.4,1.4,13,.3,19.4-.6a22.07,22.07,0,0,0,3.5-.8,10.91,10.91,0,0,0,4.1-3.3c.6-.9,2.4-7.2.2-6.5-.7.2-1.9,2.7-2.4,3.4A13.52,13.52,0,0,1,72.3,149.4Z"/></g></g><g id="Lager_2-3" data-name="Lager 2"><g id="Citron2Mogen"><path class="cls-12" d="M94.87,41.56a7.89,7.89,0,0,0-.9,3.59,1.83,1.83,0,0,0,.19,1,.86.86,0,0,0,.85.46c.49-.1.68-.68.77-1.16.25-1.4.45-3-.53-4.07l-.39.17"/><path class="cls-13" d="M90,73.36a2.48,2.48,0,0,0,2.92-.22c.84-.62,1.43-1.5,2.23-2.18,1.46-1.24,3.52-1.68,4.94-3a8.59,8.59,0,0,0,2-3.16,26.86,26.86,0,0,0,2-11.72,7.21,7.21,0,0,0-.51-2.52,7,7,0,0,0-2-2.31,21.57,21.57,0,0,0-5.47-3.37c-1.7.11-3.23,1.69-4.23,3-2.25,3-4.2,6.5-3.93,10.2a32.8,32.8,0,0,0,1.53,6A21.1,21.1,0,0,1,90,73.36Z"/><path class="cls-14" d="M85.31,47.36a16.92,16.92,0,0,0-4.26,7.8c-1,3.57-1,7.8,1.55,10.52,2,2.1,5.35,3.13,6.2,5.85.29.92.48,2.18,1.47,2.29.74.08,1.31-.66,1.44-1.37s0-1.46.19-2.15a5.71,5.71,0,0,1,1.29-2,24.43,24.43,0,0,0,5.27-19A8.05,8.05,0,0,0,97.84,47C95.45,42.13,88.26,44.46,85.31,47.36Z"/><path class="cls-15" d="M91.8,50.36a6,6,0,0,0,3-1.24,4.21,4.21,0,0,0,.93-1.29A3.63,3.63,0,0,0,96,45.36a2.59,2.59,0,0,0-1.64-1.79c-1.08.79-1.59,2-2.46,2.92a7.45,7.45,0,0,1-3,2c-2.69,1-5.33.47-8.08.6C82.73,51.36,89.13,50.9,91.8,50.36Z"/><path class="cls-4" d="M90.12,44a19.56,19.56,0,0,0-3.87,2.63,14.89,14.89,0,0,1-6.52,2.59,25.18,25.18,0,0,0,7.2.25,11.7,11.7,0,0,0,6.44-2.9c.74-.71,2.15-2.23,1.08-3C93.6,42.87,91,43.65,90.12,44Z"/></g></g><g id="Lager_2-4" data-name="Lager 2"><g id="LemonFlower"><path class="cls-16" d="M78.56,9.83a2,2,0,0,1,.32-2,1.71,1.71,0,0,1,2,0,3.89,3.89,0,0,1,1.29,1.68,12.47,12.47,0,0,1,.92,3.55,4.07,4.07,0,0,1-1.56.66c-.45-.07-.66-.48-1-.81A7,7,0,0,1,78.56,9.83Z"/><path class="cls-16" d="M83.59,11.16A4.09,4.09,0,0,1,84.68,9.1a7.43,7.43,0,0,0,.73-.64c.27-.33.45-.79.86-.9a1,1,0,0,1,.66.11,2,2,0,0,1,.91,2.19,5.24,5.24,0,0,1-1.19,2.21,5.23,5.23,0,0,1-.64.69c-.37.3-1.94,1.12-2.44.81S83.46,11.7,83.59,11.16Z"/><path class="cls-16" d="M78.62,13a3.05,3.05,0,0,0-1,.07,2.6,2.6,0,0,0-.77.45,2.19,2.19,0,0,0-.76.81.89.89,0,0,0,.17,1,1.51,1.51,0,0,0,.75.24,9.51,9.51,0,0,0,3.28.06,2,2,0,0,0,1.34-.84C82.64,13,79.5,13,78.62,13Z"/><path class="cls-16" d="M81.06,16.79c.28.83,1.19,1.32,1.55,2.13.12.26.2.59.48.72a1,1,0,0,0,.38.05,2.46,2.46,0,0,0,1-.18,1.13,1.13,0,0,0,.66-.78c.08-.5-.3-.94-.55-1.38a3,3,0,0,1-.37-1.43A2,2,0,0,0,84,14.69a1.53,1.53,0,0,0-1.1-.36A2.11,2.11,0,0,0,81,16.7S81.05,16.76,81.06,16.79Z"/><path class="cls-16" d="M85.11,16.36a3.73,3.73,0,0,0,2,.41,1.93,1.93,0,0,0,1.35-.4,1.87,1.87,0,0,0,.37-1.25.74.74,0,0,0-.08-.44.67.67,0,0,0-.41-.22l-3.82-1.19a1.08,1.08,0,0,0-.47-.07c-.42.06-.6.56-.69,1-.19.88-.09.68.52,1.17A10.14,10.14,0,0,0,85.11,16.36Z"/><path class="cls-17" d="M82.08,12.06c-.2-.16-.51.12-.43.36a.56.56,0,0,0,.62.3.43.43,0,0,0,.3-.13.35.35,0,0,0-.1-.47h0A1,1,0,0,0,81.9,12a1.83,1.83,0,0,1,1.57,1.21,1.07,1.07,0,0,1-.32,1.22,1.62,1.62,0,0,1-1.59-.22c-.17-.09-.38-.24-.34-.43a.7.7,0,0,1,.13-.24,1.21,1.21,0,0,0,.1-.62,1,1,0,0,1,.11-.61.38.38,0,0,1,.52-.13l0,0"/><path class="cls-18" d="M82.67,12.57a.5.5,0,0,0-.37-.44.89.89,0,0,0-.6.06.15.15,0,0,0-.09.06.17.17,0,0,0,0,.1v.29a.28.28,0,0,0,0,.18.36.36,0,0,0,.26.12h.48c.2,0,.43,0,.52-.21a.42.42,0,0,0,0-.31,1,1,0,0,0-.18-.26.49.49,0,0,0-.17-.15.16.16,0,0,0-.2.06"/><path class="cls-19" d="M82.29,11.57a.56.56,0,0,0-.11.2.2.2,0,0,0,0,.21l.11,0a.24.24,0,0,0,.23-.25v0a.26.26,0,0,0-.32-.17"/><path class="cls-19" d="M83.09,12.14a.56.56,0,0,0-.11.2.2.2,0,0,0,0,.21h.11a.23.23,0,0,0,.24-.22v-.05a.27.27,0,0,0-.32-.14"/><path class="cls-19" d="M83.5,12.61a.45.45,0,0,0-.11.19.2.2,0,0,0,0,.21h.11a.23.23,0,0,0,.23-.23v0a.26.26,0,0,0-.32-.18"/><path class="cls-19" d="M82.29,13.21a.45.45,0,0,0-.11.19.2.2,0,0,0,0,.21h.11a.23.23,0,0,0,.23-.23v0a.26.26,0,0,0-.32-.18"/><path class="cls-19" d="M81.54,13a.45.45,0,0,0-.11.19.2.2,0,0,0,0,.21h.11a.23.23,0,0,0,.23-.23v0a.26.26,0,0,0-.32-.18"/><path class="cls-19" d="M81.2,12.37a.52.52,0,0,0-.19.17.2.2,0,0,0,0,.21.22.22,0,0,0,.09.07.23.23,0,0,0,.29-.15s0,0,0-.05a.26.26,0,0,0-.26-.26"/><path class="cls-19" d="M83.09,13a.64.64,0,0,0-.08.19.2.2,0,0,0,0,.21h.11a.24.24,0,0,0,.24-.24v0A.27.27,0,0,0,83,13"/><path class="cls-19" d="M81.27,11.82a.49.49,0,0,0-.11.2.18.18,0,0,0,0,.2h.11A.23.23,0,0,0,81.5,12v0a.27.27,0,0,0-.32-.19h0"/><path class="cls-19" d="M82.82,11.68a.49.49,0,0,0-.11.2.2.2,0,0,0,0,.21h.11a.23.23,0,0,0,.23-.23v0a.27.27,0,0,0-.33-.18"/><path class="cls-20" d="M81,13.88a1.35,1.35,0,0,0,.56.84,1.76,1.76,0,0,0,.9.18,4.09,4.09,0,0,0,.85-.09,1.07,1.07,0,0,0,.41-.21,1,1,0,0,0,.28-.76,3.47,3.47,0,0,0-.15-.91H83.7v.85a.61.61,0,0,1,0,.27c0,.08-.18.13-.25.06a.22.22,0,0,1-.06-.15,1.32,1.32,0,0,0-.27-.63v.58a.31.31,0,0,1,0,.19c-.08.13-.31.08-.42,0a3.51,3.51,0,0,0-.27-.4h-.09s0,0,0,.08a.66.66,0,0,1-.12.38.25.25,0,0,1-.12.11.25.25,0,0,1-.28-.15,1.91,1.91,0,0,1-.06-.33.35.35,0,0,0-.23-.33c-.06.07,0,.18,0,.27s-.09.21-.16.16a1.49,1.49,0,0,0-.36-1A2.48,2.48,0,0,0,81,13.88Z"/><path class="cls-21" d="M81.91,14.64a1.89,1.89,0,0,0,1.2,0,1.39,1.39,0,0,0,.52-.25,2,2,0,0,0,.38-.48,1.4,1.4,0,0,1-.42.78,1.54,1.54,0,0,1-.34.17,2,2,0,0,1-.85.19,1.45,1.45,0,0,1-.46-.14.94.94,0,0,1-.47-.34l-.1-.11c-.05-.06-.12-.09-.18-.15A.91.91,0,0,1,81,13.6C80.94,14.05,81.54,14.46,81.91,14.64Z"/><path class="cls-20" d="M77.63,15.46a2.13,2.13,0,0,1-1.33-.54.93.93,0,0,1-.22-.4.71.71,0,0,0,.38.93h0a3.74,3.74,0,0,0,1.15.18c.41,0,.82.12,1.23.13a3.77,3.77,0,0,0,1.24-.22A9.36,9.36,0,0,1,77.63,15.46Z"/><path class="cls-20" d="M78.65,9.46c.1.63.45,1.19.57,1.82a5,5,0,0,1-.78-1.92,2.11,2.11,0,0,1,0-1c.07-.25.32-.7.62-.68A3,3,0,0,0,78.65,9.46Z"/><path class="cls-20" d="M82.85,18.89a1.43,1.43,0,0,0,.32.28,1.41,1.41,0,0,0,.61.11,1.47,1.47,0,0,0,1-.22c.1-.09.19-.2.31-.2a1.23,1.23,0,0,1-.35.52,1.33,1.33,0,0,1-.54.18l-.72.12a.87.87,0,0,1-.53-.1,1,1,0,0,1-.09-.21,1,1,0,0,0-.21-.37,1.64,1.64,0,0,1-.21-.25,1.53,1.53,0,0,1-.14-.41A2.21,2.21,0,0,1,82.85,18.89Z"/><path class="cls-20" d="M88.78,15.65l-.13.39a.51.51,0,0,1-.07.17.8.8,0,0,1-.13.13,1.92,1.92,0,0,1-.61.37,3.77,3.77,0,0,1-2.37-.16A3.6,3.6,0,0,0,88.78,15.65Z"/><path class="cls-20" d="M86.47,7.89a.83.83,0,0,0-.21.06L86,8.09l-.43.37a1.32,1.32,0,0,1-.51.3l.25-.3a2.86,2.86,0,0,0,.37-.41,1.14,1.14,0,0,1,.37-.47.91.91,0,0,1,.82,0,.39.39,0,0,1,.2.16C86.88,7.83,86.67,7.87,86.47,7.89Z"/><path class="cls-19" d="M83.59,13.06a.52.52,0,0,0-.11.19.2.2,0,0,0,0,.21h.11a.24.24,0,0,0,.24-.24v0A.27.27,0,0,0,83.5,13"/><path class="cls-19" d="M81.88,13.37a.52.52,0,0,0-.11.19.2.2,0,0,0,0,.21l.11.05a.24.24,0,0,0,.24-.24v0a.27.27,0,0,0-.33-.18"/><path class="cls-19" d="M82.82,13.38a.45.45,0,0,0-.11.19.2.2,0,0,0,0,.21h.11a.23.23,0,0,0,.23-.23v0a.27.27,0,0,0-.32-.19h0"/><path class="cls-19" d="M81.74,11.52a.52.52,0,0,0-.11.19.2.2,0,0,0,0,.21h.11a.23.23,0,0,0,.26-.19,0,0,0,0,0,0,0,.26.26,0,0,0-.32-.18"/><path class="cls-19" d="M83.24,11.8a.78.78,0,0,0-.11.2.2.2,0,0,0,0,.21h.11a.24.24,0,0,0,.23-.25v0a.26.26,0,0,0-.32-.17"/><path class="cls-19" d="M81.06,12.94a.52.52,0,0,0-.11.19.2.2,0,0,0,0,.21h.11a.24.24,0,0,0,.24-.24v0a.27.27,0,0,0-.29-.13"/></g></g><g id="Lager_2-5" data-name="Lager 2"><g id="Citron3Mogen"><path class="cls-13" d="M38.32,85.76a1,1,0,0,1,.87-1.11h.13c.26.24.66.19,1,.24a1.65,1.65,0,0,1,1.34,1.29.53.53,0,0,1,0,.25c-.09.2-.36.22-.58.21a7.84,7.84,0,0,1-3-.85"/><path class="cls-13" d="M46.82,88.94a7.78,7.78,0,0,1,2,1.88,6.44,6.44,0,0,1,.87,2.73A10.82,10.82,0,0,1,48,101.1c-1.65,2.31-4.42,3.78-5.71,6.29a9,9,0,0,1-1.13,2,1.69,1.69,0,0,1-2.13.39,2.16,2.16,0,0,1-.46-2c.6-4.67,1.32-9.4.54-14a32,32,0,0,1-.83-5.41,3.4,3.4,0,0,1,.78-2.45C40.91,84.05,45.38,87.91,46.82,88.94Z"/><path class="cls-14" d="M32.28,86.68a9.48,9.48,0,0,0-5.17,5.56,11.49,11.49,0,0,0,.53,7c1,2.78,2.65,5.64,5.52,6.55,1.61.53,3.68.53,4.5,1.93.46.82.43,2,1.28,2.43.52.18,1.06-.32,1.18-.84a8.66,8.66,0,0,0,0-1.61c.07-1.36,1.12-2.45,1.94-3.56,2.45-3.35,3-7.75,2.29-11.81C44,90,43,87.15,40.82,85.77S34.51,85.62,32.28,86.68Z"/><path class="cls-14" d="M39.35,87.25a1.7,1.7,0,0,0,.84-1c-.42-.86-1-1.83-2-2-.42,0-1,.16-1.42.15-.67,0-1.53-.26-1.87.3.21.18.06.51,0,.78a1.23,1.23,0,0,0,1,1.23,5.83,5.83,0,0,0,1.77,0,2.24,2.24,0,0,1,1.66.44"/></g></g><g id="Lager_2-6" data-name="Lager 2"><g id="Citron3OO"><path class="cls-22" d="M32.7,36.26c-.1-.26.25-.54.61-.53a1.67,1.67,0,0,0,.62.12.92.92,0,0,1,.83.6.24.24,0,0,1,0,.12c0,.09-.22.1-.35.09a6,6,0,0,1-1.87-.39"/><path class="cls-22" d="M37.94,37.75a4.46,4.46,0,0,1,1.23.88,2.51,2.51,0,0,1,.53,1.28,4.15,4.15,0,0,1-1,3.55c-1,1.08-2.72,1.78-3.51,3a4.09,4.09,0,0,1-.7.95,1.26,1.26,0,0,1-1.34.17c-.36-.21-.33-.62-.28-1A17.36,17.36,0,0,0,33.2,40a12.64,12.64,0,0,1-.5-2.52,1.36,1.36,0,0,1,.48-1.16C34.3,35.46,37.05,37.27,37.94,37.75Z"/><path class="cls-23" d="M29,36.69a5.2,5.2,0,0,0-3.18,2.61,4.22,4.22,0,0,0,.33,3.28,5.1,5.1,0,0,0,3.39,3.07c1,.24,2.27.24,2.77.92.28.38.26.94.79,1.14a.64.64,0,0,0,.72-.4,2.36,2.36,0,0,0,0-.75c0-.64.69-1.15,1.19-1.67a6,6,0,0,0,1.41-5.55,4.23,4.23,0,0,0-2.16-3.08C32.86,35.58,30.36,36.19,29,36.69Z"/><path class="cls-23" d="M33.34,37a1,1,0,0,0,.52-.45,1.66,1.66,0,0,0-1.21-.92h-.92c-.31,0-.95-.06-1.13.2.13.09,0,.24,0,.37a.89.89,0,0,0,.62.58,4.87,4.87,0,0,0,1.08,0,1.82,1.82,0,0,1,1,.2"/></g></g></g></g></svg>