<svg xmlns="http://www.w3.org/2000/svg" viewBox="0 0 24.32 32.43"><defs><style>.cls-1{fill:#5b3806;}.cls-2{fill:#c49731;}.cls-3{fill:#f4ea34;}.cls-4{fill:#558e55;}.cls-5{fill:#5c9b5c;}</style></defs><title>Resurs 8</title><g id="Lager_2" data-name="Lager 2"><g id="Citron2Mogen"><path class="cls-1" d="M15.14.2a7.92,7.92,0,0,0-.9,3.59,1.92,1.92,0,0,0,.19,1,.85.85,0,0,0,.85.46c.49-.1.68-.68.77-1.16.25-1.4.45-3-.53-4.07l-.39.17"/><path class="cls-2" d="M10.26,32a2.48,2.48,0,0,0,2.92-.22c.84-.62,1.43-1.5,2.23-2.18,1.46-1.24,3.52-1.68,4.94-3a8.44,8.44,0,0,0,2-3.16,26.76,26.76,0,0,0,1.95-11.72,7,7,0,0,0-.51-2.52,6.88,6.88,0,0,0-2-2.31,21.79,21.79,0,0,0-5.47-3.37c-1.7.11-3.23,1.69-4.23,3-2.25,3-4.2,6.5-3.93,10.2a33,33,0,0,0,1.53,6A21,21,0,0,1,10.26,32Z"/><path class="cls-3" d="M5.58,6a17,17,0,0,0-4.26,7.8c-1,3.57-1,7.8,1.55,10.52,2,2.1,5.35,3.13,6.2,5.85.29.92.48,2.18,1.47,2.29.74.08,1.31-.66,1.44-1.37s0-1.46.19-2.15a5.78,5.78,0,0,1,1.29-2.05,24.4,24.4,0,0,0,5.27-19,7.81,7.81,0,0,0-.62-2.22C15.72.77,8.53,3.1,5.58,6Z"/><path class="cls-4" d="M12.07,9a6,6,0,0,0,3-1.24A4,4,0,0,0,16,6.47,3.6,3.6,0,0,0,16.23,4a2.59,2.59,0,0,0-1.64-1.79C13.51,3,13,4.18,12.13,5.13a7.43,7.43,0,0,1-3,2c-2.69,1-5.33.47-8.08.6C3,10,9.4,9.54,12.07,9Z"/><path class="cls-5" d="M10.39,2.64A20.16,20.16,0,0,0,6.52,5.27,14.86,14.86,0,0,1,0,7.86a24.85,24.85,0,0,0,7.2.25,11.63,11.63,0,0,0,6.44-2.9c.74-.71,2.15-2.23,1.08-3C13.87,1.51,11.24,2.29,10.39,2.64Z"/></g></g></svg>