<svg xmlns="http://www.w3.org/2000/svg" viewBox="0 0 11.67 10.05"><defs><style>.cls-1{fill:#205b16;}.cls-2{fill:#53d356;}</style></defs><title>Resurs 1</title><g id="Lager_2" data-name="Lager 2"><g id="Citron1OO"><path class="cls-1" d="M4.8,9.68,7.63,9A7.65,7.65,0,0,0,9.77,8.2,4.31,4.31,0,0,0,11.5,5a3.9,3.9,0,0,0-.36-3.22,2.08,2.08,0,0,0-.71-.59A3.1,3.1,0,0,0,9.5.94a7.18,7.18,0,0,0-3.6.59A9.59,9.59,0,0,0,3.15,3.42a3.53,3.53,0,0,0-1.3,2.05,4.37,4.37,0,0,0,.92,2.38A1.38,1.38,0,0,1,3,8.61c0,.43-1.11,1-.73,1.32S4.34,9.79,4.8,9.68Z"/><path class="cls-2" d="M.67,7.16a4.12,4.12,0,0,1,1-5.55A8.58,8.58,0,0,1,9,.31a3.33,3.33,0,0,1,1.31.63,2,2,0,0,1,.31,2.16A8.6,8.6,0,0,1,5.36,8a4.67,4.67,0,0,0-1.73.85c-.24.25-.36.55-.6.8-.79.8-1.46,0-1.6-.67A4.58,4.58,0,0,0,.67,7.16Z"/></g></g></svg>