<svg xmlns="http://www.w3.org/2000/svg" viewBox="0 0 20.67 19.56"><defs><style>.cls-1{fill:#205b16;}.cls-2{fill:#53d356;}</style></defs><title>Resurs 6</title><g id="Lager_2" data-name="Lager 2"><g id="Citron3Omogen"><path class="cls-1" d="M10.37,1.09c-.11-.42.36-.87.88-.85a1.92,1.92,0,0,0,.92.19,1.38,1.38,0,0,1,1.2,1,.25.25,0,0,1,0,.19c-.07.15-.32.17-.51.15a7.79,7.79,0,0,1-2.72-.64"/><path class="cls-1" d="M18,3.5a6.51,6.51,0,0,1,1.8,1.42A4.26,4.26,0,0,1,20.58,7a7.11,7.11,0,0,1-1.5,5.71c-1.48,1.75-4,2.86-5.12,4.76a6.07,6.07,0,0,1-1,1.54,1.7,1.7,0,0,1-1.91.3,1.44,1.44,0,0,1-.41-1.55c.53-3.53,1.18-7.12.48-10.63a21.14,21.14,0,0,1-.74-4.06,2.33,2.33,0,0,1,.7-1.85C12.7-.2,16.71,2.72,18,3.5Z"/><path class="cls-2" d="M5,1.78A7.87,7.87,0,0,0,.3,6a7.47,7.47,0,0,0,.48,5.28,7.81,7.81,0,0,0,5,4.95c1.44.39,3.31.39,4,1.48.41.62.38,1.51,1.15,1.84A.92.92,0,0,0,12,18.9a5.44,5.44,0,0,0,0-1.21c.06-1,1-1.86,1.74-2.7A10.36,10.36,0,0,0,15.8,6.06a6.89,6.89,0,0,0-3.17-5C10.6,0,7,1,5,1.78Z"/><path class="cls-2" d="M11.3,2.21a1.43,1.43,0,0,0,.76-.73A2.51,2.51,0,0,0,10.29,0,12.24,12.24,0,0,0,8.94.1c-.6,0-1.37-.2-1.67.23.18.14.05.38,0,.58-.08.43.39.82.9.94a6,6,0,0,0,1.59,0,2.38,2.38,0,0,1,1.49.33"/></g></g></svg>