<svg xmlns="http://www.w3.org/2000/svg" viewBox="0 0 13.47 12.56"><defs><style>.cls-1{fill:#5b3806;}.cls-2{fill:#205b16;}.cls-3{fill:#53d356;}.cls-4{fill:#558e55;}.cls-5{fill:#5c9b5c;}</style></defs><title>Resurs 2</title><g id="Lager_2" data-name="Lager 2"><g id="Citron2OO"><path class="cls-1" d="M8.39.08a2.41,2.41,0,0,0-.5,1.39.59.59,0,0,0,.1.38A.56.56,0,0,0,8.47,2a.52.52,0,0,0,.42-.44C9,1,9.14.41,8.6,0L8.38.07"/><path class="cls-2" d="M5.69,12.39A1.83,1.83,0,0,0,7.3,12.3c.47-.23.8-.58,1.24-.84.81-.48,2-.65,2.73-1.15a3.36,3.36,0,0,0,1.1-1.23,7.65,7.65,0,0,0,1.08-4.54,2,2,0,0,0-.28-1,3.41,3.41,0,0,0-1.09-.9,14,14,0,0,0-3-1.3A3.94,3.94,0,0,0,6.71,2.54c-1.25,1.16-2.33,2.52-2.18,4a9.49,9.49,0,0,0,.85,2.33A5.86,5.86,0,0,1,5.69,12.39Z"/><path class="cls-3" d="M3.09,2.31a6.43,6.43,0,0,0-2.36,3,3.28,3.28,0,0,0,.86,4.08c1.1.81,3,1.21,3.44,2.26.16.35.26.84.81.89a.77.77,0,0,0,.8-.54c.08-.27,0-.56.1-.83a2.32,2.32,0,0,1,.72-.79C9.87,8.36,11,5.62,10.38,3A2.37,2.37,0,0,0,10,2.18C8.71.3,4.73,1.2,3.09,2.31Z"/><path class="cls-4" d="M6.69,3.49A4.2,4.2,0,0,0,8.33,3a1.92,1.92,0,0,0,.52-.5A1.05,1.05,0,0,0,9,1.56,1.25,1.25,0,0,0,8.08.87,6.77,6.77,0,0,0,6.72,2,4.64,4.64,0,0,1,5,2.75,20.92,20.92,0,0,1,.56,3C1.64,3.85,5.21,3.69,6.69,3.49Z"/><path class="cls-5" d="M5.76,1A12.5,12.5,0,0,0,3.61,2,10.27,10.27,0,0,1,0,3a19.72,19.72,0,0,0,4,.1A8,8,0,0,0,7.56,2c.41-.28,1.19-.87.6-1.18A5,5,0,0,0,5.76,1Z"/></g></g></svg>