<svg xmlns="http://www.w3.org/2000/svg" viewBox="0 0 19.74 30.92"><defs><style>.cls-1{fill:#5b3806;}.cls-2{fill:#a57c2b;}.cls-3{fill:#d1ba33;}.cls-4{fill:#557244;}.cls-5{fill:#77995c;}</style></defs><title>Resurs 12</title><g id="Lager_2" data-name="Lager 2"><g id="Citron21"><path class="cls-1" d="M12.29.19a8.67,8.67,0,0,0-.73,3.42,2.27,2.27,0,0,0,.15.94A.67.67,0,0,0,12.4,5c.41-.09.55-.64.63-1.1C13.23,2.55,13.4,1,12.6,0l-.32.16"/><path class="cls-2" d="M8.33,30.51a1.79,1.79,0,0,0,2.37-.21c.68-.59,1.16-1.44,1.81-2.08,1.19-1.18,2.86-1.61,4-2.84a8.45,8.45,0,0,0,1.6-3A29.73,29.73,0,0,0,19.7,11.19a7.7,7.7,0,0,0-.41-2.4A6.51,6.51,0,0,0,17.7,6.58a17.68,17.68,0,0,0-4.44-3.21C11.88,3.48,10.64,5,9.82,6.26,8,9.12,6.41,12.46,6.63,16a36.38,36.38,0,0,0,1.25,5.73A23.66,23.66,0,0,1,8.33,30.51Z"/><path class="cls-3" d="M4.53,5.69a17.28,17.28,0,0,0-3.46,7.43c-.79,3.42-.84,7.44,1.26,10,1.61,2,4.34,3,5,5.57.24.88.4,2.08,1.2,2.18.59.08,1.06-.63,1.17-1.3s0-1.39.15-2.05a5.67,5.67,0,0,1,1-1.95A26.22,26.22,0,0,0,15.2,7.48a7.91,7.91,0,0,0-.5-2.12C12.76.74,6.92,3,4.53,5.69Z"/><path class="cls-4" d="M9.8,8.6a4.45,4.45,0,0,0,2.4-1.19A3.73,3.73,0,0,0,13,6.17a4,4,0,0,0,.21-2.32,2.33,2.33,0,0,0-1.33-1.7c-.87.66-1.31,1.83-2,2.74A6,6,0,0,1,7.39,6.76c-2.19.92-4.33.45-6.57.57C2.41,9.49,7.63,9.09,9.8,8.6Z"/><path class="cls-5" d="M8.43,2.52A16.82,16.82,0,0,0,5.29,5,11.13,11.13,0,0,1,0,7.5a17.39,17.39,0,0,0,5.84.23A8.85,8.85,0,0,0,11.08,5c.59-.67,1.74-2.12.87-2.9C11.26,1.44,9.12,2.19,8.43,2.52Z"/></g></g></svg>