<svg xmlns="http://www.w3.org/2000/svg" viewBox="0 0 17.56 24.99"><defs><style>.cls-1{fill:#a57c2b;}.cls-2{fill:#d1ba33;}</style></defs><title>Resurs 10</title><g id="Lager_2" data-name="Lager 2"><g id="Citron11"><path class="cls-1" d="M7.22,24.07l4.26-1.77a9,9,0,0,0,3.23-1.91c1.84-1.89,2.28-5.09,2.6-8,.29-2.71.56-5.65-.55-8A3.85,3.85,0,0,0,15.7,2.92a3.13,3.13,0,0,0-1.4-.58A7.14,7.14,0,0,0,8.87,3.81,17.28,17.28,0,0,0,4.73,8.5a10.66,10.66,0,0,0-1.94,5.11c-.11,2.06.71,4,1.37,5.91a5,5,0,0,1,.38,1.91c0,1.06-1.67,2.51-1.09,3.27S6.53,24.36,7.22,24.07Z"/><path class="cls-2" d="M1,17.81A15,15,0,0,1,2.56,4C5.26.36,9.84-1,13.6.76a4.6,4.6,0,0,1,2,1.59c1,1.45.84,3.55.47,5.35C15,12.88,12,17.4,8.07,19.77A6.78,6.78,0,0,0,5.46,21.9c-.36.61-.54,1.36-.9,2-1.18,2-2.2-.08-2.41-1.66A16.13,16.13,0,0,0,1,17.81Z"/></g></g></svg>