<svg xmlns="http://www.w3.org/2000/svg" viewBox="0 0 20.53 20.79"><defs><style>.cls-1{fill:#205b16;}.cls-2{fill:#53d356;}</style></defs><title>Resurs 4</title><g id="Lager_2" data-name="Lager 2"><g id="Citron1Omogen"><path class="cls-1" d="M8.44,20l5-1.47A12.2,12.2,0,0,0,17.19,17c2.15-1.57,2.67-4.23,3-6.66.35-2.25.66-4.69-.63-6.67a3.66,3.66,0,0,0-1.24-1.2,4.8,4.8,0,0,0-1.64-.49,11,11,0,0,0-6.35,1.23,17.06,17.06,0,0,0-4.83,3.9,7.57,7.57,0,0,0-2.28,4.25c-.13,1.71.83,3.33,1.61,4.91a3.29,3.29,0,0,1,.44,1.59c-.06.89-1.95,2.09-1.27,2.72S7.64,20.26,8.44,20Z"/><path class="cls-2" d="M1.18,14.81A9.5,9.5,0,0,1,3,3.34,13.35,13.35,0,0,1,15.9.63,5.45,5.45,0,0,1,18.21,2c1.12,1.21,1,3,.55,4.46a16.4,16.4,0,0,1-9.32,10,7.76,7.76,0,0,0-3,1.78c-.43.5-.64,1.13-1.06,1.63C4,21.52,2.76,19.78,2.51,18.47A10.45,10.45,0,0,0,1.18,14.81Z"/></g></g></svg>