<svg xmlns="http://www.w3.org/2000/svg" viewBox="0 0 19.26 26.34"><defs><style>.cls-1{fill:#a57c2b;}.cls-2{fill:#d1ba33;}.cls-3{fill:#f2eedf;}.cls-4{fill:#2d6d61;}.cls-5{fill:#d3c3a7;}.cls-6{fill:#1e4c3f;}</style></defs><title>Resurs 17</title><g id="Lager_2" data-name="Lager 2"><g id="Citron32"><path class="cls-1" d="M9.75,1.47A1,1,0,0,1,10.56.32c.22.25.56.2.85.26a1.53,1.53,0,0,1,1.12,1.31.7.7,0,0,1,0,.25c-.07.2-.3.22-.48.21a5.62,5.62,0,0,1-2.51-.86"/><path class="cls-1" d="M16.76,4.7a6.84,6.84,0,0,1,1.68,1.9,7.52,7.52,0,0,1,.73,2.77,13,13,0,0,1-1.34,7.7c-1.36,2.36-3.65,3.87-4.71,6.44a9.26,9.26,0,0,1-.93,2.07,1.23,1.23,0,0,1-1.77.41A2.64,2.64,0,0,1,10,23.91c.47-4.76,1-9.59.37-14.31a40.41,40.41,0,0,1-.72-5.46,4,4,0,0,1,.64-2.5C11.82-.26,15.56,3.65,16.76,4.7Z"/><path class="cls-2" d="M4.73,2.4A9.21,9.21,0,0,0,.43,8.07a14.21,14.21,0,0,0,.45,7.11c.79,2.83,2.2,5.73,4.58,6.66,1.34.52,3.06.53,3.74,2,.38.84.36,2,1.07,2.47.43.19.88-.32,1-.85a11.21,11.21,0,0,0,0-1.64c.05-1.38.93-2.49,1.6-3.63,2-3.41,2.46-7.89,1.91-12-.32-2.41-1.11-5.28-2.93-6.68S6.59,1.32,4.73,2.4Z"/><path class="cls-2" d="M10.61,3a1.67,1.67,0,0,0,.7-1C11,1.12,10.48.14,9.67,0A10.61,10.61,0,0,0,8.43.13c-.56,0-1.28-.26-1.55.31.17.19,0,.52,0,.79a1.24,1.24,0,0,0,.84,1.26,3.77,3.77,0,0,0,1.46,0A1.7,1.7,0,0,1,10.58,3"/><path class="cls-3" d="M3,11.07c.32.72,0,1.52-.15,2.29a3.53,3.53,0,0,0,1,3,5.68,5.68,0,0,1,.74.73c.65.93.18,2.34.94,3.19a4,4,0,0,0,1.67.86c.59.23,1.22.65,1.25,1.26a.82.82,0,0,1-.56.05C4.76,22,2.4,19.31,1.24,16.48.64,15-.36,12.34.13,10.76c.27-.88.21-.89,1.31-.71A2,2,0,0,1,3,11.07Z"/><path class="cls-4" d="M3.22,17.22a11,11,0,0,1-1-2.37,3.53,3.53,0,0,1,.24-2.48c.07-.14.16-.29.1-.43a.41.41,0,0,0-.21-.2,3,3,0,0,0-1.75-.4.48.48,0,0,0-.35.13.5.5,0,0,0-.08.4,12,12,0,0,0,2.27,6A3.93,3.93,0,0,1,3.13,19a6,6,0,0,0,.27.92,2.09,2.09,0,0,0,.42.52A4.12,4.12,0,0,0,5.5,21.6a1,1,0,0,0-.14-1.05,7,7,0,0,1-.67-.9,4.35,4.35,0,0,1-.26-1.53,1.49,1.49,0,0,0-.75-1.28,3,3,0,0,0,.26,1.59c-.28,0-.42-.31-.5-.57L2.33,14.14"/><path class="cls-3" d="M10.32,4.84a2.83,2.83,0,0,0-2.48-.62A5.52,5.52,0,0,0,5.49,5.41,1,1,0,0,0,5,6.07a1,1,0,0,0,.17.48c1.27,2.18,3.2,4.2,3.32,6.7.06,1.37-.36,3,.65,3.95A1.77,1.77,0,0,0,10.79,16c.27-.64.32-1.36.55-2a9,9,0,0,1,1.75-2.6,6,6,0,0,0,1.5-2.72,2.28,2.28,0,0,0-1.36-2.55c-.67-.21-1.6.32-2.12.07C10.81,6,10.62,5.12,10.32,4.84Z"/><path class="cls-4" d="M10.75,6a1.61,1.61,0,0,1-.39-.5,1.82,1.82,0,0,0-2.57-.34,3.43,3.43,0,0,0-.68.92l-1,1.68A4.94,4.94,0,0,1,6.94,10c0,.28,0,.57-.05.85-.08,2,1.63,3.74,2,5.75a3.29,3.29,0,0,0,2.38-.79,3,3,0,0,0,.55-1.5,32.32,32.32,0,0,0,.51-4c0-.25-.09-.61-.36-.58a.47.47,0,0,0-.28.22l-1.42,1.86c-.08.11-.18.23-.32.23a.4.4,0,0,1-.3-.18A1.91,1.91,0,0,1,9.52,9.6a1.4,1.4,0,0,1,.63-.52,1.55,1.55,0,0,1,1.58.42,4.24,4.24,0,0,1,.87,1.44c-.18-.42,2.6-1.82,1.66-3.53S12,6.85,10.75,6Z"/><path class="cls-4" d="M14.05,9.3a2.43,2.43,0,0,1-.39,1.12,8.49,8.49,0,0,1-2.6,2.8,5.75,5.75,0,0,0-.64-1.29c-.36.15-.64.45-1,.61s-.89.11-1-.26.22-.66.57-.76.72-.08,1.07-.19a2.69,2.69,0,0,0,1.43-1.64c.07-.14.13-.31,0-.43s-.29-.17-.37-.3.06-.38.25-.43a1,1,0,0,1,.57.1C12.84,9,14.05,8.08,14.05,9.3Z"/><path class="cls-5" d="M15.5,13.87A5.82,5.82,0,0,1,15.85,16c-.09.4-.35.76-.46,1.16a.87.87,0,0,0,.39,1.07A3.7,3.7,0,0,0,18.28,16c.48-1.1,1.56-4.92.07-5.59C16.61,9.68,15.29,12.63,15.5,13.87Z"/><path class="cls-6" d="M18.57,11.23a1.4,1.4,0,0,0-1.51.83,4.22,4.22,0,0,0-.27,1.8c0,1.16-2.08,4.1.26,2.86a3.7,3.7,0,0,0,1.5-1.94A13.21,13.21,0,0,0,18.57,11.23Z"/></g></g></svg>