<?xml version="1.0" encoding="utf-8"?>
<!-- Generator: Adobe Illustrator 22.0.1, SVG Export Plug-In . SVG Version: 6.00 Build 0)  -->
<svg version="1.1" id="Lager_1" xmlns="http://www.w3.org/2000/svg" xmlns:xlink="http://www.w3.org/1999/xlink" x="0px" y="0px"
	 viewBox="0 0 115.2 187.3" style="enable-background:new 0 0 115.2 187.3;" xml:space="preserve">
<style type="text/css">
	.st0{fill:#BF6D45;}
	.st1{fill:#1E1902;}
	.st2{fill:#896846;}
	.st3{fill:#5C9B5C;}
	.st4{fill:#367F57;}
	.st5{fill:#6D9663;}
	.st6{fill:#537C67;}
	.st7{fill:#4A9E4A;}
	.st8{fill:#D39A7D;}
	.st9{fill:#DDA783;}
	.st10{fill:#CE794A;}
</style>
<title>Resurs 1</title>
<g id="Lager_2_1_">
	<g id="Lager_1-2">
		<path class="st0" d="M47.7,136.7c-3.5-0.2-7.1,0-10.6,0.8c-2,0.5-3.8,1.2-5.6,2.1c-1.6,0.7-3.4,1.7-3.7,3.5
			c-0.2,1.5,0.6,3,1.9,3.8c1,0.6,2.2,1,3.5,1.2c12.6,2.3,25.5,2.1,38.3,1.9c2.1,0,4.4-0.2,5.7-1.9c0.5-0.7,0.8-1.5,0.9-2.3
			c0.2-0.7,0.2-1.5,0.1-2.2c-0.6-1.9-2.9-2.6-4.4-3.1c-1.5-0.6-3.1-1.2-4.7-1.7c-4.1-1.6-9.2-1.5-13.5-1.6
			C53,136.7,50.3,136.7,47.7,136.7z"/>
		<path class="st1" d="M49.8,141.5c-5.3-0.7-10.7-0.3-15.9,0.9c-1.7,0.5-3.8,1.3-4.1,2.6c-0.2,1.2,0.9,2.2,2.3,2.9
			c1.4,0.6,2.9,0.9,4.4,1.2c10.5,1.9,21,2.6,31.6,1.9c3.1-0.2,7-0.9,7.8-3.1c0.6-1.5-0.9-3.1-2.9-4c-2.1-0.7-4.3-1.2-6.5-1.2
			l-12.1-0.8C53,140.9,51.3,140.8,49.8,141.5z"/>
		<path class="st2" d="M53.4,84.8c2,8.3,5.5,16.6,4.2,25c-0.5,3.3-1.6,6.4-2.2,9.7c-0.2,2.3-0.7,4.8-1.2,7.1
			c-0.9,3.1-2.8,5.9-3.8,9.1c-1,3.4-1,7,0,10.3c2.6,0.8,5.2,0.8,7.8,0c-3.5-2-5.2-5.9-4.3-9.9c0.7-1.9,1.5-3.7,2.6-5.6
			c2.4-5.6,1.4-12.3,4.1-17.9c0.8-1.4,1.4-2.8,1.9-4.3c0.1-1.2,0.1-2.3-0.2-3.5c-0.8-4.3-2.1-8.5-4-12.6c-1-2-1.9-4.1-2.6-6.2
			c-0.6-2.3-1-4.8-1.2-7.2l-2.2-23c-1.7,0.1-2.2,2.4-2.1,4.3C50.5,68.5,51.6,76.6,53.4,84.8z"/>
		<path class="st2" d="M49.5,85c-1.3-0.8-2.8-1.3-4.3-1.4c-1.2,0.1-2.3,0.2-3.5,0.5c-2.8,0.2-5.5-0.9-8-2.2l-0.1,0.8
			c1.3,1.4,3.1,2.1,5,2s3.7-0.1,5.6,0c4.4,0.7,8,4.5,12.4,5.1c-1.4,0.2-1.2-2.9-2-3.5c-0.2-0.1-1.6,0.2-2,0.2
			C51.5,86,50.6,85.6,49.5,85z"/>
		<path class="st2" d="M56,55.6c1.7-2.7,3.8-5,6.3-7c1.5-0.9,3.1-1.9,4.8-2.6c4.5-2.2,9-4.9,12.9-8c1-0.8,2.2-1.9,2.3-3.3l-10.7,7.6
			c-2,1.5-4.1,2.7-6.3,3.7c-1.3,0.3-2.6,0.8-3.7,1.4c-1.2,0.7-2.3,1.6-3.1,2.7l-4.2,4.4c-0.7,0.8-4.5,4.9-2.7,5.8
			C52.9,61,55.5,56.4,56,55.6z"/>
		<path class="st2" d="M52.1,57c1.2-1.7-0.3-4-1.6-5.6c-1.7-2.3-3.3-4.9-4.3-7.6c-1-2.7-1.9-5.6-3.7-7.7c-0.9-1-2.1-2-3.1-2.9
			c-2.2-2.2-3.7-5.1-4.1-8.3c-1.3,2.3-0.2,5.3,1.3,7.6c1.5,2.2,3.7,4,5.3,6.2c1,1.5,1.9,3.1,2.4,4.8c3,7,6,14.1,7,21.5"/>
		<path class="st2" d="M32.1,34.4c-0.8-0.5-1.4-1.3-2.3-1.7c-1.9-0.9-4.2,0.1-6.3-0.1c-1.7-0.2-3.4-1.4-4.9-2.2
			c1.3,1.3,2.7,2.8,4.5,2.8c0.9,0,1.7-0.3,2.7-0.3c2.7-0.1,4.8,2.7,7.4,3.1C34.2,36,35.1,36,36,36c2.2,0.1,4.2,1.2,6.2,2
			C42.8,33.5,34.5,35.8,32.1,34.4z"/>
		<path class="st2" d="M27,90.1c1.5-1.6,4.7-0.1,6.4-1.5c1.7-1.6,3.7-3,5.9-4.2c-2.8-0.3-3.7,1.4-5.6,3S28.3,88.1,27,90.1z"/>
		<path class="st2" d="M54.8,54.6c2-2.4,3.4-5.2,4.2-8.3c1.4-5.2,0.8-11,3.8-15.5c0.9-1.4,2.3-2.7,2.9-4.4c0.7-2.2-0.2-4.7-1.3-6.7
			c-1.6-3.4-3.4-6.6-5.2-9.8c1.6,3.7,3.3,7.6,4.8,11.4c0.7,1.3,0.9,2.7,0.9,4.2c-0.3,2-2.1,3.4-3.3,5.1c-2.3,3-2.3,7.2-2.8,11
			c-0.6,4.7-2,9.2-4.2,13.4c1.9-0.5,3.3-2.1,3.4-4.1"/>
		<path class="st2" d="M68.8,17.1c0.8-1,2.3-1.2,3.6-1.6c2.4-0.9,4-3.7,6.5-4.1c1-0.1,2.3,0.1,2.9-0.8c-0.8,1.6-3.3,1-4.8,2
			c-0.8,0.5-1.3,1.4-2,2.1c-1.7,1.6-5,1.4-6.3,3.6c-0.5,0.7-0.6,1.6-1.2,2.3c-0.9,0.7-1.9,1.2-2.9,1.5c0-1.7,1-1,2-1.9
			C67.6,19.2,68.2,18.1,68.8,17.1z"/>
		<path class="st2" d="M38.5,49.9c-1.3,0.5-2.4,0.9-3.6,1.5c-2.4,1.2-5.3,2-7.9,0.9c-2.8-1-4.8-4-7.7-4c-1.3,0.1-2.4,0.3-3.6,0.7
			c-1.3,0.3-2.6-0.1-3.4-1c0.1,1.4,1.7,2.1,3.1,2.1c1.4-0.2,2.8-0.3,4.1-0.2c1.6,0.2,2.9,1.4,4.2,2.3c3.1,2,7,2.4,10.6,1.3
			c1.5-0.7,3.1-1.3,4.8-1.6c4.1-0.7,7.9,2,11.2,4.5c0.6,0.5,0.9-2.9,0.7-3.5c-0.7-1.3-1.2-0.9-2.3-1.4
			C45.6,50.3,41.7,49.1,38.5,49.9z"/>
		<path class="st2" d="M17.3,59.1c-1.2,0.7-3,0.3-3.6,1.6c2.1-0.2,4.5-0.7,5.7-2.4c0.2-0.5,0.6-0.9,1-1.3c0.6-0.2,1.2-0.3,1.7-0.3
			c0.9-0.2,1.6-1.3,2.3-2c0.7-0.8,1.7-1,2.7-0.8c0.6-4.3-3.8,1-4.7,1.5c-1,0.7-2.1,0.5-3,1.3S18.4,58.5,17.3,59.1z"/>
		<path class="st2" d="M84.4,40.9l2.4-0.6c1.2-0.3,2.3-0.5,3.5-0.1c0.9,0.3,1.6,1.3,2.7,1.5c1.2,0.1,2.2,0,3.3-0.3
			c1-0.3,2.3-0.1,3.1,0.7c-2.2-1-4.9,1.4-7.1,0.5c-0.5-0.2-0.9-0.6-1.4-0.8c-2.2-1.3-5-0.5-7.7-0.2c-0.7,0.1-1.5,0.1-2.2-0.2
			c-0.6-0.5-1-1-1.5-1.7c-0.5-0.6-1.3-0.9-2-0.7C78.4,35,82.3,41.5,84.4,40.9z"/>
		<path class="st2" d="M73.8,46.5c0.8,0.1,1.5,0.1,2.3,0.2c1.6,0,3.1,0.3,4.7,0.9c1.4,0.6,2.9,1.5,4.4,1.3c-1,0.5-2.1-0.3-3.1-0.8
			c-2-0.8-4.1-0.1-6.2-0.1c-2.9,0-5.7-1.2-7.7-3.1C70,43.3,71.9,46.2,73.8,46.5z"/>
		<path class="st2" d="M25.9,47.2c-0.5-1.5-0.9-3.3-2.3-4.2c-1.7-1-4-0.5-5,1.3c-0.1,0.2-0.2,0.5-0.3,0.8c-0.1-0.6,0.5-1,1-1.3
			c1.9-0.7,4,0.1,5,1.9c0.5,1,0.8,2.3,0.8,3.5c0.1,1.3,0.2,2.6,0.3,3.7C28.4,52.6,26.4,48.8,25.9,47.2z"/>
		<path class="st2" d="M58.4,72.4c1.7,0.3,3.5,0.8,5.1,1.4c4.2,0.9,8.6-0.5,11.5-3.8c0.5-0.7,1-1.3,1.5-1.7c1.5-1.2,3.5-1.2,5.3-1
			c-2.7,0.1-5.2,1.4-6.9,3.6c-0.7,0.9-1.4,1.7-2.1,2.6C71,75,68.4,75.1,66,75.1c-2.9-0.1-5.7-0.5-8.5-1c-0.7-0.2-1.6-0.2-2.3,0
			c-1.4,0.6-1.4,2.7-1.2,4.3c-0.2-1.4-2.8-1.9-1.2-4.1C53.8,72.9,56.9,72.3,58.4,72.4z"/>
		<path class="st2" d="M62.4,72.1c0.3-0.8,0.7-1.9,1.5-2.2c0.3-0.1,0.7-0.1,1-0.1c1.9-0.2,3.5-1.2,4.7-2.7c0.1,1.3-1.4,2.1-2.6,2.4
			c-1.2,0.3-2.8,0.5-3.4,1.7c-0.3,0.7-0.2,1.6-0.7,2.2c-0.6,0.6-1.5,0.7-2.1,0.2C61.6,73.4,62.2,72.8,62.4,72.1z"/>
		<path class="st3" d="M30.6,31.2c-0.7-0.5-1.5-0.6-2.2-0.5c-2,0.1-4-0.3-5.6-1.4c-1.5-1.2-2.3-2.9-2.3-4.8c0.1-0.8,0.2-1.6,0.1-2.4
			c0.9,0.8,2,1.6,3,2.3c0.7,0.6,1.5,1.3,2.1,1.9C27.3,27.9,29,29.5,30.6,31.2z"/>
		<path class="st4" d="M30.8,31.5c-1.7-1.7-3.6-3.5-5.3-5.1l-1.2-1l-4.4-4c0.7,0.6,1.6,0.1,2.4,0c0.7,0,1.5,0.1,2.2,0.2
			c0.5,0.1,1,0.2,1.5,0.5c1.4,0.8,2.6,2.1,3,3.7c0.5,1,0.7,2.1,0.9,3.1C30,30,30.3,30.8,30.8,31.5z"/>
		<path class="st5" d="M11.9,25.8c2.2-0.5,4.7,0,6.5,1.4c0.6,0.5,1,1,1.5,1.6c0.6,0.6,1.2,1.2,1.9,1.7l-2.4-0.5l-1.5-0.3
			c-2.1-0.5-4.1-0.8-6.2-1.2c-0.9-0.1-1.9-0.2-2.8-0.1c-0.3,0-0.8,0-1.2,0.1c-0.3,0.1-1.6,0-1.7-0.3c-0.1-0.3,1.2-0.8,1.5-0.9
			C8.7,26.5,10.3,26,11.9,25.8z"/>
		<path class="st6" d="M8.6,29.3c1,0.6,2,1.2,3,1.7c1,0.6,2.2,0.9,3.5,0.9c1-0.1,2.2-0.3,3.3-0.7c1.5-0.3,3-0.3,4.5-0.1
			c-1.7-0.9-3.5-1.6-5.2-2.4c-0.8-0.5-1.7-0.7-2.7-1c-0.8-0.1-1.5-0.2-2.3-0.2c-2.7-0.1-5.8-0.6-8.5,0.5C5.8,28.3,7.2,28.7,8.6,29.3
			z"/>
		<path class="st6" d="M27.9,28.7c0.1,0.9,0.5,1.9,1,2.7c0.1,0.2,0.2,0.5,0.5,0.7c0.2,0.2,0.6,0.5,1,0.6c1.3,0.5,2.7,0.3,3.8-0.3
			c-0.3-0.2-0.7-0.6-1-0.9c-0.3-0.5-0.6-0.9-0.6-1.5c0-0.5,0.1-0.9,0.2-1.4c0.1-0.5,0-0.9-0.1-1.3c-0.2-0.3-0.7-0.3-1-0.6
			c-0.3-0.2-0.7-0.6-0.9-0.9c-0.2-0.3-0.8-0.5-1.2-0.2c-0.2,0.1-0.3,0.3-0.5,0.6c-0.2,0.1-0.3,0.2-0.5,0.3
			C27.9,27.1,27.7,27.9,27.9,28.7z"/>
		<path class="st4" d="M7.8,35.2c-0.6-0.1-1.2-0.5-1.4-1c-0.1-0.6,0-1,0.2-1.5c0.3-0.5,0.7-0.8,1.2-1c0.6-0.5,1.2-0.8,2-0.9
			c0.7,0,1.4,0.1,2.1,0.5l4.8,2c-1.3,0.7-2.9,0.3-4.3,0.7c-0.5,0.1-0.8,0.2-1.3,0.5C10.1,35,9,35.2,7.8,35.2z"/>
		<path class="st7" d="M10,34.9c3.6-1.3,7.6-1.2,11,0.3C19.6,34,18.7,32,17,31.2c-0.2-0.1-0.3-0.1-0.6-0.2l-0.5-0.3
			c-0.7-0.5-1.6-0.5-2.4,0C11.7,31.5,11,33.1,10,34.9z"/>
		<path class="st5" d="M29.6,37.2c1.4-1.4,3-2.3,4.4-2.2c0.5,0.1,0.9,0.2,1.3,0.3c0.5,0.1,1,0.2,1.5,0.3l-1.6,0.8l-1,0.6
			c-1.4,0.7-2.8,1.4-4.1,2.2c-0.6,0.3-1.2,0.8-1.7,1.3c-0.2,0.2-0.5,0.5-0.7,0.6c-0.2,0.1-1,0.8-1.2,0.6c-0.1-0.2,0.6-1.2,0.7-1.4
			C27.9,39.3,28.7,38.1,29.6,37.2z"/>
		<path class="st6" d="M28.5,41.2c0.8-0.1,1.5-0.1,2.3-0.2c0.9-0.1,1.7-0.5,2.4-1s1.3-1.3,1.9-2.1c0.8-0.9,1.7-1.7,2.8-2.3
			c-1.3,0.2-2.6,0.6-3.8,0.9c-0.7,0.1-1.3,0.3-1.9,0.6s-1,0.6-1.5,0.9c-2,1.2-3.7,2.7-5.1,4.4C26.4,41.9,27.4,41.4,28.5,41.2z"/>
		<path class="st3" d="M23,34.2c-0.7,0.6-1,1.4-1.2,2.3c-0.3,2.2-1.5,4.3-3.1,5.8c-1.6,1.4-3.8,1.9-5.9,1.3
			c-0.8-0.5-1.7-0.7-2.7-0.8c1.3-0.8,2.4-1.7,3.5-2.7c0.8-0.7,1.7-1.3,2.7-1.9C18.6,36.9,20.8,35.6,23,34.2z"/>
		<path class="st4" d="M23.5,34c-2.4,1.4-4.8,2.9-7.1,4.5l-1.5,1l-5.6,3.7c0.8-0.6,0.6-1.9,0.8-2.7c0.2-0.8,0.6-1.6,0.9-2.3
			c0.2-0.6,0.6-1,0.9-1.5c1.3-1.4,3-2.2,4.9-2.3c1.2-0.1,2.4-0.2,3.6-0.1C21.5,34.4,22.6,34.3,23.5,34z"/>
		<path class="st3" d="M26.7,33.4c-0.6,0.1-1,0.7-1.4,1.2c-0.8,1.3-2.1,2.3-3.5,2.8c-1.4,0.2-2.8-0.2-3.6-1.4
			c-0.3-0.6-0.7-1.2-1.3-1.5c0.9-0.1,1.9-0.2,2.8-0.6c0.7-0.1,1.4-0.2,2.1-0.2C23.5,33.5,25.1,33.5,26.7,33.4z"/>
		<path class="st4" d="M27.1,33.4c-1.7,0-3.6,0.2-5.3,0.5L20.6,34l-4.2,0.5c0.6-0.1,0.8-1,1.3-1.5c0.3-0.5,0.8-0.9,1.3-1.3
			c0.2-0.2,0.6-0.6,0.9-0.7c1.2-0.5,2.4-0.3,3.5,0.2c0.7,0.3,1.4,0.8,2.1,1.3C25.8,32.9,26.4,33.3,27.1,33.4z"/>
		<path class="st4" d="M24.9,35.8c-0.6-0.1-1.2-0.5-1.4-1c-0.1-0.6,0-1,0.3-1.5c0.3-0.5,0.7-0.8,1.2-1c0.6-0.5,1.2-0.8,1.9-0.9
			c0.7,0,1.5,0.1,2.1,0.5l4.8,2.1c-1.3,0.7-2.9,0.3-4.3,0.7c-0.5,0.1-0.8,0.2-1.3,0.5C27.2,35.6,26,35.8,24.9,35.8z"/>
		<path class="st7" d="M27,35.5c3.6-1.3,7.6-1.2,11,0.3c-1.4-1.3-2.3-3.3-4.1-4.1c-0.2-0.1-0.3-0.1-0.6-0.2
			c-0.2-0.1-0.3-0.2-0.5-0.3c-0.7-0.5-1.6-0.5-2.4,0C28.8,32,28,33.7,27,35.5z"/>
		<path class="st6" d="M23.7,40c0.9,0.2,1.9,0.3,2.8,0.1c0.2,0,0.6-0.1,0.8-0.1c0.3-0.1,0.7-0.3,0.9-0.7c0.9-1,1.4-2.3,1.3-3.7
			c-0.3,0.2-0.8,0.5-1.3,0.6s-1,0.1-1.5-0.1c-0.5-0.2-0.8-0.5-1.2-0.7c-0.3-0.2-0.7-0.3-1.2-0.3c-0.5,0.1-0.6,0.6-0.9,0.8
			c-0.3,0.2-0.8,0.3-1.2,0.6c-0.5,0.1-0.8,0.5-0.7,0.9c0,0.2,0.2,0.5,0.2,0.7s0,0.3,0.1,0.6C22.2,39.2,22.9,39.8,23.7,40z"/>
		<path class="st3" d="M89.9,36.3c0.7-0.3,1.4-0.3,2.1-0.2c1.9,0.5,3.7,0.2,5.5-0.6c1.6-0.9,2.7-2.6,2.9-4.4c0-0.8,0-1.6,0.2-2.4
			c-1,0.7-2.1,1.4-3.1,2c-0.8,0.5-1.5,1-2.3,1.6C93.4,33.5,91.7,34.9,89.9,36.3z"/>
		<path class="st4" d="M89.6,36.6c1.9-1.5,3.8-2.9,5.8-4.3l1.3-0.9l4.7-3.3c-0.7,0.5-1.5-0.1-2.3-0.2c-0.7-0.1-1.4-0.1-2.1,0
			c-0.5,0-1,0.1-1.5,0.2c-1.5,0.6-2.7,1.7-3.4,3.3c-0.6,0.9-0.9,2-1.3,2.9C90.6,35.1,90.2,35.9,89.6,36.6z"/>
		<path class="st5" d="M108.1,33.5c-2.1-0.7-4.3-0.6-6.3,0.5c-0.6,0.5-1.2,0.9-1.6,1.4c-0.6,0.6-1.3,1-2,1.5l2.4-0.1l1.5-0.1
			c2-0.1,4-0.2,5.9-0.2c0.9,0,1.7,0,2.7,0.2c0.3,0.1,0.8,0.1,1.2,0.2c0.3,0.1,1.5,0.2,1.6-0.1c0.1-0.3-0.9-0.9-1.3-1.2
			C111,34.6,109.6,34,108.1,33.5z"/>
		<path class="st6" d="M110.7,37.3c-1,0.3-2.1,0.9-3.1,1.4c-1,0.5-2.2,0.6-3.4,0.5c-1-0.2-2-0.6-2.9-1c-1.4-0.6-2.8-0.8-4.3-0.8
			c1.7-0.6,3.5-1.2,5.2-1.7c0.8-0.3,1.7-0.5,2.6-0.6c0.7-0.1,1.5-0.1,2.2,0c2.6,0.2,5.6,0.2,7.9,1.6C113.5,36.7,112.1,37,110.7,37.3
			z"/>
		<path class="st6" d="M92.7,33.3c0,0.9-0.1,1.9-0.6,2.8c-0.1,0.2-0.2,0.5-0.3,0.7c-0.2,0.3-0.5,0.6-0.8,0.7
			c-1.2,0.6-2.4,0.7-3.7,0.2c0.3-0.3,0.6-0.7,0.8-1c0.2-0.5,0.3-1,0.2-1.5c-0.1-0.5-0.2-0.9-0.3-1.3c-0.1-0.3-0.2-0.8-0.1-1.3
			c0.1-0.5,0.6-0.5,0.9-0.7c0.3-0.3,0.6-0.7,0.8-1c0.2-0.3,0.7-0.6,1-0.3c0.2,0.1,0.3,0.3,0.6,0.5c0.2,0.1,0.3,0.1,0.5,0.2
			C92.3,31.6,92.7,32.4,92.7,33.3z"/>
		<path class="st4" d="M110.7,43.4c0.6,0,1.2-0.3,1.4-0.9c0.2-0.5,0.2-1-0.1-1.5c-0.2-0.5-0.6-0.8-0.9-1.2c-0.5-0.6-1-0.9-1.6-1.2
			c-0.7-0.1-1.4,0-2.1,0.2l-4.8,1.4c1,0.9,2.7,0.8,4,1.3c0.3,0.1,0.8,0.3,1.2,0.6C108.6,42.8,109.6,43.3,110.7,43.4z"/>
		<path class="st7" d="M108.7,42.7c-3.1-1.9-7-2.2-10.5-1.2c1.5-1.2,2.6-2.9,4.4-3.5c0.2,0,0.3-0.1,0.6-0.2c0.1-0.1,0.3-0.2,0.5-0.2
			c0.8-0.2,1.6-0.1,2.2,0.3C107.4,39.1,107.9,40.9,108.7,42.7z"/>
		<path class="st3" d="M96.6,40.2c0.6,0.7,0.8,1.6,0.8,2.4c0,2.2,0.8,4.4,2.1,6.2c1.3,1.5,3.4,2.3,5.3,2.1c0.8-0.3,1.7-0.5,2.6-0.5
			c-1-0.9-2-2-2.9-3.1c-0.7-0.8-1.5-1.5-2.3-2.2C100.3,43.5,98.5,42,96.6,40.2z"/>
		<path class="st4" d="M96.2,40c2.1,1.7,4.1,3.6,6,5.5l1.3,1.2l4.7,4.5c-0.7-0.7-0.2-1.9-0.3-2.8c-0.1-0.8-0.2-1.6-0.6-2.4
			c-0.1-0.6-0.3-1.2-0.6-1.7c-1-1.5-2.6-2.6-4.3-2.9c-1-0.3-2.2-0.5-3.4-0.6C98,40.7,97,40.5,96.2,40z"/>
		<path class="st3" d="M93.2,39c0.6,0.2,0.8,0.8,1.2,1.3c0.6,1.4,1.5,2.6,2.9,3.3c1.3,0.5,2.7,0.1,3.6-0.8c0.5-0.5,0.8-1,1.4-1.4
			c-0.8-0.2-1.6-0.6-2.4-0.9c-0.6-0.2-1.3-0.3-1.9-0.5C96.3,39.5,94.8,39.2,93.2,39z"/>
		<path class="st4" d="M92.9,39c1.6,0.2,3.3,0.7,4.9,1.2l1,0.2l3.8,1c-0.6-0.2-0.7-1.2-0.9-1.7c-0.2-0.5-0.6-1-0.9-1.4
			c-0.2-0.3-0.5-0.6-0.8-0.8c-0.9-0.6-2.2-0.7-3.3-0.2c-0.7,0.2-1.4,0.6-2.1,1C94.2,38.6,93.6,38.8,92.9,39z"/>
		<path class="st4" d="M94.6,41.6c0.6,0,1.2-0.3,1.4-0.9c0.2-0.5,0.2-1-0.1-1.5c-0.2-0.5-0.6-0.8-0.9-1.2c-0.5-0.6-1-0.9-1.6-1.2
			c-0.7-0.1-1.4,0-2.1,0.2l-4.8,1.4c1,0.9,2.7,0.8,4,1.3c0.3,0.2,0.8,0.3,1.2,0.6C92.5,41,93.6,41.5,94.6,41.6z"/>
		<path class="st7" d="M92.2,41.6c-3.1-1.7-7-2.2-10.5-1.2c1.5-1.2,2.6-2.9,4.4-3.5c0.2-0.1,0.3-0.1,0.6-0.2
			c0.2-0.1,0.3-0.1,0.5-0.2c0.8-0.2,1.6-0.1,2.2,0.3C91,38,91.5,39.8,92.2,41.6z"/>
		<path class="st6" d="M95.1,45.9c-0.9,0.1-1.7,0-2.6-0.2c-0.2-0.1-0.5-0.1-0.7-0.2c-0.3-0.2-0.6-0.5-0.8-0.8
			c-0.7-1.2-0.9-2.6-0.7-3.8c0.3,0.3,0.7,0.6,1,0.8c0.5,0.2,0.9,0.2,1.5,0.1c0.3-0.1,0.8-0.3,1.2-0.6c0.3-0.2,0.8-0.3,1.2-0.2
			c0.5,0.1,0.5,0.6,0.8,0.9c0.3,0.2,0.7,0.5,1,0.7c0.3,0.2,0.6,0.6,0.5,1c-0.1,0.2-0.2,0.5-0.3,0.6c-0.1,0.1-0.1,0.3-0.2,0.6
			C96.6,45.3,95.9,45.8,95.1,45.9z"/>
		<path class="st5" d="M88.6,42.9c-1.2-1.5-2.6-2.8-3.8-2.8c-0.5,0-0.8,0.1-1.3,0.2c-0.5,0.1-1,0.1-1.5,0.1l1.4,1l0.9,0.7
			c1.2,0.9,2.3,1.7,3.5,2.8c0.6,0.5,1,0.9,1.5,1.5c0.2,0.2,0.3,0.5,0.6,0.7c0.2,0.2,0.8,0.9,1,0.8c0.2-0.1-0.3-1.2-0.5-1.5
			C90,45.2,89.4,44.1,88.6,42.9z"/>
		<path class="st6" d="M89.2,47c-0.7-0.2-1.4-0.3-2.1-0.6c-0.8-0.2-1.5-0.7-2.1-1.4s-1-1.5-1.4-2.3c-0.6-1-1.4-1.9-2.3-2.7
			c1.2,0.3,2.3,0.9,3.5,1.4c0.6,0.2,1.2,0.6,1.6,0.9c0.5,0.3,0.9,0.7,1.3,1.2c1.6,1.4,3.1,3.1,4.2,5.1C91,48,90.1,47.4,89.2,47z"/>
		<path class="st3" d="M73.2,12c0.6-0.6,1.3-0.9,2.1-1c2-0.3,3.7-1.3,5.1-2.7c1.2-1.4,1.6-3.4,1.2-5.2c-0.3-0.7-0.6-1.5-0.7-2.4
			c-0.7,1-1.5,2.1-2.3,3C78,4.4,77.4,5.1,77,5.9C75.6,8.1,74.5,10,73.2,12z"/>
		<path class="st4" d="M73.1,12.4c1.2-2.2,2.7-4.2,4.1-6.3l0.9-1.3L81.4,0c-0.5,0.7-1.6,0.5-2.3,0.7c-0.7,0.2-1.4,0.5-2.1,0.8
			C76.5,1.7,76,2,75.6,2.3c-1.2,1.2-2,2.7-2.1,4.3c-0.1,1-0.2,2.2-0.1,3.3C73.5,10.7,73.4,11.6,73.1,12.4z"/>
		<path class="st5" d="M90.1,2.3c-2.3,0.1-4.4,1.2-5.9,2.9c-0.5,0.6-0.8,1.3-1,2c-0.3,0.7-0.8,1.5-1.4,2.1l2.3-1.2l1.4-0.7
			c1.9-0.9,3.7-1.7,5.7-2.6c0.8-0.3,1.7-0.7,2.7-0.8C94.2,4,94.6,4,95,3.8c0.3-0.1,1.5-0.3,1.6-0.7c0.1-0.3-1.3-0.6-1.7-0.6
			C93.4,2.2,91.7,2.2,90.1,2.3z"/>
		<path class="st6" d="M94.1,4.9c-0.9,0.8-1.6,1.6-2.6,2.4c-0.8,0.8-1.9,1.5-3,1.7c-1.2,0.2-2.2,0.2-3.4,0.2c-1.5,0-3,0.3-4.4,0.9
			c1.4-1.3,2.9-2.4,4.4-3.6C85.8,6,86.6,5.5,87.4,5c0.7-0.3,1.4-0.6,2.2-0.8c2.6-0.8,5.6-2,8.3-1.6C96.6,3.3,95.3,4,94.1,4.9z"/>
		<path class="st6" d="M75.2,8.8c0.1,0.9,0.1,1.9-0.2,2.8c-0.1,0.2-0.1,0.6-0.2,0.8c-0.2,0.3-0.5,0.7-0.8,0.9c-1,0.8-2.4,1-3.7,0.8
			c0.3-0.3,0.6-0.8,0.7-1.2c0.2-0.5,0.2-1,0.1-1.6c-0.1-0.6-0.2-0.9-0.5-1.3s-0.3-0.8-0.2-1.3c0.1-0.5,0.6-0.6,0.9-0.8
			c0.2-0.3,0.5-0.7,0.7-1.2c0.1-0.5,0.6-0.7,1-0.6c0.2,0.1,0.5,0.2,0.6,0.3c0.2,0.1,0.3,0.1,0.6,0.2C74.8,7.3,75.2,8,75.2,8.8z"/>
		<path class="st4" d="M96.3,10.5c0.6-0.2,0.9-0.8,1-1.4c0-0.6-0.2-1-0.7-1.4c-0.3-0.3-0.8-0.6-1.3-0.7c-0.7-0.3-1.4-0.5-2.1-0.5
			c-0.7,0.1-1.4,0.5-1.9,1l-4.2,3.1c1.4,0.3,2.9-0.3,4.3-0.3c0.5,0,0.9,0,1.3,0.1C93.9,10.7,95.1,10.7,96.3,10.5z"/>
		<path class="st7" d="M94.1,10.6c-3.8-0.3-7.6,0.7-10.6,3c1-1.6,1.4-3.7,2.9-5c0.1-0.1,0.3-0.2,0.5-0.3C87,8.1,87.1,8,87.2,7.8
			c0.6-0.6,1.5-0.7,2.3-0.6C91.5,7.7,92.7,9.2,94.1,10.6z"/>
		<path class="st5" d="M75.6,17.4c-1.9-0.7-3.7-0.9-4.9-0.2c-0.3,0.2-0.7,0.6-1,0.8c-0.3,0.3-0.8,0.7-1.3,0.9l1.9,0.1l1.2,0.1
			c1.5,0.1,3,0.2,4.7,0.3c0.7,0.1,1.4,0.2,2.1,0.5l0.9,0.3c0.2,0.1,1.3,0.3,1.3,0.1c0.1-0.2-0.9-0.8-1.2-0.9
			C78,18.5,76.9,17.9,75.6,17.4z"/>
		<path class="st6" d="M78.8,21c-0.8,0.1-1.5,0.3-2.3,0.6s-1.7,0.1-2.6-0.1c-0.8-0.3-1.6-0.8-2.4-1.3c-1-0.6-2.2-1-3.4-1.2
			c1.3-0.2,2.6-0.3,3.8-0.5c0.7-0.1,1.3-0.1,2,0c0.6,0.1,1.2,0.2,1.7,0.3c2.2,0.5,4.3,1.3,6.3,2.4C81,21,79.9,20.9,78.8,21z"/>
		<path class="st3" d="M81.3,13.1c0.8,0.5,1.4,1.2,1.6,2c0.8,2.1,2.4,3.7,4.4,4.9c1.9,0.9,4.2,0.8,6-0.2c0.7-0.6,1.5-1,2.4-1.4
			c-1.4-0.5-2.7-1-4-1.7c-1-0.5-2-0.8-3-1C86.2,14.5,83.8,13.8,81.3,13.1z"/>
		<path class="st4" d="M80.8,13c2.7,0.7,5.3,1.7,7.9,2.7l1.7,0.6l6.3,2.3c-0.9-0.3-0.9-1.6-1.3-2.3c-0.3-0.7-0.9-1.4-1.4-2.1
			c-0.3-0.5-0.8-0.9-1.3-1.4c-1.5-1-3.5-1.4-5.2-1c-1.2,0.1-2.4,0.3-3.6,0.8C82.8,12.9,81.9,13.1,80.8,13z"/>
		<path class="st3" d="M77.4,13.1c0.6,0.1,1.2,0.3,1.6,0.8c1,1,2.4,1.7,4,1.9c1.4,0,2.7-0.9,3.3-2.2c0.2-0.7,0.5-1.3,0.8-1.9
			c-0.9,0.1-1.9,0.1-2.8,0.1c-0.7,0-1.4,0.1-2.1,0.2C80.7,12.6,79.1,12.9,77.4,13.1z"/>
		<path class="st4" d="M77.2,13.4c1.7-0.3,3.5-0.7,5.2-0.9l1.2-0.1l4.2-0.6c-0.6,0-1-0.8-1.5-1.2s-0.9-0.7-1.5-0.9
			c-0.3-0.2-0.7-0.3-1.2-0.5c-1.2-0.1-2.4,0.2-3.3,1c-0.6,0.5-1.2,1.2-1.7,1.7C78.2,12.6,77.8,13,77.2,13.4z"/>
		<path class="st4" d="M79.9,15.1c0.6-0.2,0.9-0.7,1-1.4c0-0.6-0.2-1-0.7-1.4c-0.5-0.3-0.9-0.6-1.4-0.7c-0.7-0.3-1.4-0.5-2.1-0.5
			c-0.7,0.1-1.4,0.5-2,1l-4.2,3.1c1.4,0.3,2.9-0.3,4.3-0.3c0.5,0,0.9,0,1.3,0.1C77.6,15.3,78.8,15.3,79.9,15.1z"/>
		<path class="st7" d="M77.7,14.2c-3.8,0.5-7.3,2.2-9.8,5.2c0.7-1.9,0.7-4,1.9-5.5c0.1-0.1,0.2-0.3,0.3-0.5c0.1-0.1,0.2-0.3,0.2-0.5
			c0.5-0.7,1.3-1,2.2-1C74.5,11.9,75.9,13.1,77.7,14.2z"/>
		<path class="st6" d="M81.4,19.5c-0.9,0.2-1.9,0.2-2.8,0c-0.2,0-0.5-0.1-0.8-0.2c-0.3-0.1-0.7-0.3-0.9-0.7c-0.8-1-1.3-2.4-1-3.7
			c0.3,0.2,0.8,0.5,1.3,0.7c0.5,0.1,1,0.1,1.5,0c0.3-0.2,0.8-0.5,1.2-0.7c0.3-0.2,0.8-0.3,1.2-0.3c0.5,0.1,0.6,0.6,0.9,0.8
			c0.3,0.2,0.8,0.5,1.2,0.6c0.3,0.2,0.7,0.6,0.6,1c-0.1,0.2-0.2,0.5-0.3,0.7c-0.1,0.2-0.1,0.3-0.1,0.6
			C82.9,18.8,82.2,19.3,81.4,19.5z"/>
		<path class="st3" d="M44.1,78.7c-0.6-0.5-1.3-0.8-2.1-0.8c-2-0.2-3.8-1-5.2-2.4c-1.3-1.4-1.7-3.4-1.4-5.1c0.3-0.8,0.6-1.6,0.7-2.4
			c0.8,1,1.6,2,2.6,2.9c0.6,0.7,1.2,1.5,1.7,2.3C41.5,75,42.8,76.9,44.1,78.7z"/>
		<path class="st4" d="M44.3,79.2c-1.3-2.1-2.8-4.1-4.3-6l-0.9-1.3l-3.5-4.8c0.6,0.7,1.6,0.5,2.3,0.6c0.7,0.1,1.5,0.3,2.1,0.7
			c0.5,0.2,0.9,0.5,1.4,0.7c1.3,1,2.1,2.6,2.2,4.2c0.2,1,0.3,2.2,0.2,3.3C43.8,77.4,43.9,78.4,44.3,79.2z"/>
		<path class="st5" d="M26.7,69.8c2.3,0,4.5,1,6,2.7c0.5,0.6,0.8,1.3,1.2,1.9c0.3,0.7,0.9,1.4,1.4,2.1l-2.3-1l-1.5-0.6
			c-1.9-0.8-3.8-1.6-5.8-2.3c-0.9-0.3-1.7-0.6-2.7-0.7c-0.5-0.1-0.8-0.1-1.2-0.2c-0.3-0.1-1.6-0.2-1.6-0.7s1.3-0.6,1.7-0.6
			C23.6,69.9,25.2,69.6,26.7,69.8z"/>
		<path class="st6" d="M22.9,72.4c0.9,0.7,1.7,1.6,2.7,2.3c0.9,0.8,2,1.4,3.3,1.6c1.2,0.1,2.2,0.1,3.4,0c1.5,0,3,0.2,4.5,0.8
			c-1.5-1.2-3-2.3-4.7-3.5c-0.8-0.6-1.5-1-2.4-1.5c-0.7-0.3-1.5-0.6-2.2-0.7c-2.6-0.7-5.7-1.7-8.4-1.3
			C20.3,70.9,21.6,71.6,22.9,72.4z"/>
		<path class="st6" d="M41.9,75.7c-0.1,0.9,0,1.9,0.3,2.8c0.1,0.2,0.1,0.5,0.3,0.7c0.2,0.3,0.5,0.6,0.8,0.8c1.2,0.7,2.6,0.9,3.8,0.6
			c-0.3-0.3-0.6-0.7-0.8-1.2c-0.2-0.5-0.2-1-0.1-1.6c0.1-0.5,0.3-0.8,0.5-1.3c0.2-0.3,0.2-0.8,0.1-1.3c-0.1-0.5-0.6-0.6-0.9-0.8
			c-0.2-0.3-0.6-0.7-0.7-1.2c-0.2-0.5-0.7-0.6-1-0.5c-0.2,0.1-0.3,0.3-0.6,0.5c-0.2,0.1-0.3,0.1-0.6,0.2
			C42.3,74.1,42,74.9,41.9,75.7z"/>
		<path class="st4" d="M20.9,78.1c-0.6-0.2-1-0.7-1.2-1.3c0-0.6,0.1-1,0.6-1.4c0.3-0.3,0.8-0.6,1.4-0.8c0.6-0.3,1.4-0.5,2.1-0.5
			c0.7,0.1,1.4,0.5,2,0.9l4.3,3c-1.4,0.5-2.9-0.2-4.4-0.1c-0.5,0-0.8,0.1-1.3,0.2C23.3,78.4,22.1,78.4,20.9,78.1z"/>
		<path class="st7" d="M23.1,78.2c3.8-0.6,7.7,0.3,10.8,2.6c-1.2-1.6-1.6-3.7-3.1-4.9c-0.1-0.1-0.3-0.2-0.5-0.3
			c-0.1-0.1-0.2-0.2-0.3-0.3c-0.7-0.6-1.5-0.7-2.3-0.5C25.6,75.2,24.5,76.7,23.1,78.2z"/>
		<path class="st5" d="M40.6,85.3c1.6-1,3.5-1.6,4.8-1.3c0.5,0.1,0.8,0.3,1.2,0.7c0.5,0.2,0.9,0.5,1.5,0.6l-1.9,0.5L45,86.2
			c-1.5,0.5-2.9,0.8-4.4,1.4c-0.7,0.2-1.4,0.5-2,0.8l-0.8,0.5c-0.2,0.1-1.2,0.6-1.3,0.3s0.7-0.9,0.9-1.2
			C38.3,87,39.4,86.2,40.6,85.3z"/>
		<path class="st6" d="M38.6,88.9c0.8,0,1.5,0.2,2.3,0.2c0.9,0,1.7-0.1,2.6-0.6c0.8-0.5,1.5-1,2.2-1.6c0.9-0.7,2.1-1.3,3.3-1.7
			c-1.3,0-2.6,0-4,0.1c-0.7,0-1.3,0.1-2,0.2c-0.6,0.1-1.2,0.3-1.7,0.6c-2.1,0.7-4.2,1.9-5.9,3.3C36.5,89.3,37.6,89.1,38.6,88.9z"/>
		<path class="st3" d="M36,80.2c-0.7,0.5-1.3,1.2-1.6,2.1c-0.8,2.1-2.3,3.8-4.2,4.9c-1.9,0.9-4.2,0.9-6,0c-0.7-0.6-1.6-1-2.4-1.4
			c1.4-0.6,2.7-1.2,4-2c0.9-0.5,2-0.8,3-1.2C31.2,81.9,33.6,81,36,80.2z"/>
		<path class="st4" d="M36.6,80.1c-2.7,0.8-5.2,1.9-7.9,3l-1.6,0.7l-6.2,2.6c0.9-0.5,0.9-1.6,1.3-2.4c0.3-0.8,0.8-1.5,1.4-2.1
			c0.3-0.5,0.7-0.9,1.2-1.4c1.5-1,3.4-1.5,5.2-1.3c1.3,0.1,2.4,0.3,3.6,0.6C34.5,80.1,35.6,80.2,36.6,80.1z"/>
		<path class="st3" d="M39.9,80.1c-0.6,0.1-1.2,0.3-1.5,0.8c-1,1.2-2.4,1.9-4,2c-1.4,0-2.7-0.8-3.4-2.1c-0.2-0.6-0.5-1.3-0.9-1.7
			c0.9,0.1,1.9,0.1,2.8,0c0.7,0,1.4,0.1,2.1,0.2C36.6,79.6,38.3,79.9,39.9,80.1z"/>
		<path class="st4" d="M40.2,80.2c-1.7-0.3-3.5-0.6-5.3-0.7l-1.2-0.1l-4.2-0.3c0.6,0,1-0.8,1.5-1.3c0.5-0.3,0.9-0.7,1.4-1
			c0.3-0.2,0.7-0.3,1-0.5c1.2-0.2,2.4,0.1,3.3,0.9c0.7,0.5,1.3,1,1.7,1.6C39.1,79.5,39.5,80,40.2,80.2z"/>
		<path class="st4" d="M37.6,82.2c-0.6-0.2-1-0.7-1.2-1.3c0-0.6,0.1-1,0.6-1.4c0.5-0.3,0.9-0.6,1.4-0.8c0.6-0.3,1.4-0.5,2.1-0.5
			c0.7,0.1,1.4,0.5,2,0.9l4.3,3c-1.4,0.5-2.9-0.2-4.4-0.1c-0.5,0-0.9,0.1-1.3,0.2C39.9,82.3,38.7,82.4,37.6,82.2z"/>
		<path class="st7" d="M39.8,81.2c3.8,0.2,7.4,2,10,4.8c-0.8-1.7-0.8-4-2.1-5.3c-0.1-0.1-0.2-0.3-0.5-0.5L47,79.6
			c-0.6-0.7-1.4-1-2.2-0.9C42.8,78.7,41.4,80,39.8,81.2z"/>
		<path class="st6" d="M31,85.2c0.7,0.7,1.5,1.2,2.4,1.4c0.2,0.1,0.5,0.2,0.8,0.2c0.3,0.1,0.8,0,1.2-0.1c1.3-0.5,2.3-1.4,2.9-2.7
			c-0.5,0-0.9,0-1.4-0.1c-0.5-0.1-0.9-0.5-1.3-0.8c-0.2-0.3-0.5-0.8-0.7-1.2c-0.2-0.5-0.5-0.8-0.9-0.9c-0.5-0.1-0.8,0.1-1.2,0.2
			c-0.5,0-0.9,0-1.3-0.1c-0.5,0-0.9,0.1-1,0.6c-0.1,0.2,0,0.5-0.1,0.7c0,0.2-0.1,0.3-0.1,0.6C30,83.7,30.5,84.5,31,85.2z"/>
		<path class="st3" d="M62.9,65.2c0.5-0.7,0.8-1.6,0.7-2.4c0-2.2,0.7-4.4,2-6.2c1.3-1.6,3.4-2.4,5.3-2.2c0.8,0.2,1.7,0.3,2.7,0.3
			c-1,1-2,2.1-2.9,3.3c-0.7,0.8-1.4,1.5-2.2,2.2C66.6,62,64.8,63.6,62.9,65.2z"/>
		<path class="st4" d="M62.4,65.6c2.1-1.7,4.1-3.7,6-5.6l1.3-1.3l4.7-4.5c-0.7,0.7-0.2,1.9-0.2,2.7c-0.1,0.8-0.2,1.6-0.6,2.4
			c-0.1,0.6-0.3,1.2-0.6,1.6c-0.9,1.5-2.6,2.7-4.3,3.1c-1.2,0.3-2.3,0.6-3.5,0.7C64.3,64.8,63.3,65,62.4,65.6z"/>
		<path class="st3" d="M54.1,66.6c-0.2-0.7-1.2-0.9-1.9-1.2c-2-0.6-3.8-1.4-4.7-3.1c-0.6-1.9-0.2-4,1.2-5.5c0.7-0.7,1.4-1.5,2-2.4
			c0.3,1.2,0.8,2.2,1.3,3.3c0.3,0.8,0.6,1.7,0.8,2.6C53.3,62.4,53.6,64.5,54.1,66.6z"/>
		<path class="st4" d="M54.1,67.1c-0.5-2.3-1-4.5-1.7-6.7l-0.5-1.4l-1.6-5.2c0.2,0.7,1.6,0.6,2.4,0.8c0.7,0.2,1.4,0.6,2.1,0.9
			c0.5,0.2,0.8,0.6,1.3,0.9c1,1,0.8,2.9,0.3,4.5c-0.3,1.2-0.8,2.3-1.4,3.4C54.5,65.1,54.2,66,54.1,67.1z"/>
		<path class="st3" d="M69.1,82.1c-0.5-0.5-1.3-0.3-2-0.2c-1.9,0.2-3.8,0.2-5-0.8c-1-1.2-1.3-3-0.5-4.4c0.5-0.7,0.8-1.5,1-2.4
			c0.6,0.7,1.3,1.4,2.1,2.1c0.5,0.5,0.9,1,1.4,1.6C67.1,79.3,68,80.7,69.1,82.1z"/>
		<path class="st4" d="M69.2,82.4c-1-1.5-2.1-3-3.4-4.4L65,77.1l-2.8-3.4c0.5,0.5,1.6,0,2.4-0.1c0.7-0.1,1.4-0.1,2.1,0
			c0.5,0,0.9,0.1,1.4,0.2c1.2,0.5,1.5,1.9,1.5,3.3c0,0.9-0.1,2-0.3,2.9C68.9,80.8,68.9,81.6,69.2,82.4z"/>
		<path class="st6" d="M67.2,75.3c-0.7,0.3-1.5,0.6-2.3,0.6c-0.2,0-0.5,0-0.7,0c-0.3,0-0.6-0.2-0.8-0.3c-0.8-0.7-1.3-1.6-1.3-2.7
			c0.3,0.1,0.7,0.2,1,0.2c0.5,0,0.9-0.1,1.3-0.3c0.3-0.2,0.6-0.5,0.9-0.8c0.2-0.2,0.6-0.5,0.9-0.6c0.3,0,0.6,0.3,0.8,0.5
			c0.3,0.1,0.7,0.2,1,0.2c0.3,0.1,0.7,0.2,0.6,0.7c0,0.2-0.1,0.3-0.2,0.6c-0.1,0.2,0,0.3,0,0.5C68.5,74.4,67.8,75,67.2,75.3z"/>
		<path class="st6" d="M58.4,55.7c-0.7,1-1,2.2-1.2,3.5c-0.1,0.3-0.1,0.7-0.1,1c0,0.5,0.1,0.9,0.3,1.4c0.8,1.5,2.3,2.6,4,2.8
			c-0.1-0.6-0.2-1.2-0.2-1.7c0-0.7,0.3-1.4,0.7-2c0.5-0.5,0.8-0.8,1.3-1.2c0.5-0.3,0.8-0.8,0.9-1.4c0.1-0.6-0.3-0.9-0.6-1.5
			c-0.1-0.6-0.2-1.2-0.2-1.7s-0.3-1.2-0.9-1.2c-0.3,0-0.6,0.1-0.9,0.1s-0.5-0.1-0.8-0.1C59.8,54.1,58.8,54.8,58.4,55.7z"/>
		<path class="st4" d="M47.7,63.1c-0.3-0.5-0.3-1.2,0-1.6s0.9-0.8,1.4-0.8c0.6,0,1,0,1.6,0.1c0.7,0,1.4,0.2,2,0.7
			c0.5,0.5,0.8,1,0.9,1.7l1.4,4.5c-1.4-0.3-2.2-1.6-3.4-2.3c-0.3-0.2-0.8-0.3-1.2-0.6C49.4,64.5,48.5,63.9,47.7,63.1z"/>
		<path class="st7" d="M49.4,64.4c3.3,1.4,5.8,4.2,6.9,7.7c0.1-1.9,1.3-3.7,0.8-5.5c0-0.3-0.1-0.5-0.1-0.7c0-0.1,0-0.3,0-0.5
			c-0.2-0.8-0.8-1.4-1.6-1.6C53.5,63.3,51.5,63.9,49.4,64.4z"/>
		<path class="st5" d="M73.4,69.3c-1.7-1.2-3.8-1.5-5.8-0.9c-0.7,0.2-1.4,0.6-2,0.9c-0.7,0.3-1.5,0.7-2.3,0.9l2.2,0.3l1.4,0.2
			c1.9,0.2,3.7,0.6,5.5,1c0.8,0.1,1.6,0.5,2.3,0.8c0.3,0.1,0.6,0.3,0.9,0.5s1.3,0.6,1.5,0.2c0.2-0.3-0.5-1-0.7-1.4
			C75.6,70.9,74.5,70,73.4,69.3z"/>
		<path class="st6" d="M74.3,73.4c-1.2,0.1-2.2,0.5-3.3,0.6c-1,0.2-2.2,0.1-3.3-0.2c-0.8-0.5-1.6-1-2.3-1.6c-1-0.8-2.3-1.4-3.6-1.6
			c1.7-0.2,3.6-0.3,5.3-0.5c0.8-0.1,1.7-0.1,2.6,0c0.7,0.1,1.4,0.3,2,0.6c2.2,0.7,4.9,1.4,6.5,3.3C77,73.5,75.7,73.4,74.3,73.4z"/>
		<path class="st3" d="M59.8,70.5c0.6-0.3,1-0.8,1.4-1.5c0.8-1.5,2.1-2.8,3.6-3.6c1.3-0.7,2.9-0.8,4.2-0.1c0.5,0.3,0.9,0.7,1.5,0.9
			c-1,0.5-2,0.9-2.9,1.4c-0.7,0.3-1.5,0.6-2.2,0.9C63.4,69.2,61.6,69.8,59.8,70.5z"/>
		<path class="st4" d="M59.4,70.5c2-0.6,4-1.4,5.8-2.2l1.3-0.6l4.7-2c-0.7,0.3-0.8,1.2-1.3,1.7c-0.3,0.6-0.8,1-1.3,1.5
			c-0.3,0.3-0.6,0.7-0.9,0.9c-1.2,0.8-2.4,1.2-3.8,1c-0.8,0-1.6-0.1-2.4-0.3C60.7,70.5,60,70.3,59.4,70.5z"/>
		<path class="st5" d="M63.1,63.1c0.5,1.7,0.2,3.7-0.7,5.2c-0.3,0.6-0.7,1-1.2,1.5c-0.5,0.6-0.9,1.2-1.3,1.7l0.2-2.1l0.1-1.3
			c0.2-1.6,0.3-3.3,0.5-5c0.1-0.7,0.1-1.4,0-2.2c0-0.3-0.1-0.6-0.1-0.9s-0.1-1.2,0.1-1.4c0.2-0.2,0.7,0.7,0.8,0.9
			C62.4,60.9,62.9,62,63.1,63.1z"/>
		<path class="st6" d="M60.2,61.4c-0.3,0.9-0.8,1.9-1.2,2.8c-0.5,0.9-0.6,1.9-0.6,2.9c0.1,0.8,0.3,1.6,0.7,2.3
			c0.3,1.2,0.5,2.3,0.3,3.5c0.6-1.5,1-3,1.6-4.5c0.2-0.7,0.5-1.5,0.6-2.2c0-0.6,0-1.3,0-1.9c0-2.1,0-4.7-0.9-6.4
			C60.8,59.1,60.6,60.2,60.2,61.4z"/>
		<path class="st4" d="M64.3,77.2c0.5,0,1-0.1,1.4-0.5c0.2-0.3,0.3-0.7,0.3-1.2c-0.1-0.3-0.2-0.7-0.5-1c-0.2-0.5-0.6-0.8-1-1
			c-0.6-0.1-1.2-0.1-1.7,0l-4.2,0.7c0.7,0.8,2,0.8,2.9,1.4c0.2,0.1,0.6,0.3,0.8,0.6C62.8,76.6,63.5,77.1,64.3,77.2z"/>
		<path class="st7" d="M62.9,76.5c-2.3-1.7-5.3-2.3-8.1-1.7c1.5-0.7,2.8-2.1,4.4-2.3c0.1,0,0.3,0,0.5-0.1l0.5-0.1
			c0.6-0.1,1.3,0,1.7,0.5C62.8,73.6,62.8,75.1,62.9,76.5z"/>
		<path class="st5" d="M59.3,68.7c-0.1,2-0.9,3.7-2.2,5.2c-0.5,0.5-1,0.8-1.5,1.2c-0.6,0.5-1.2,0.9-1.6,1.4l0.8-2l0.6-1.3
			c0.7-1.6,1.4-3.3,2-4.9c0.2-0.7,0.5-1.5,0.6-2.2c0-0.3,0.1-0.7,0.1-0.9s0.2-1.3,0.6-1.4c0.3-0.1,0.5,0.9,0.5,1.3
			C59.3,66.2,59.4,67.4,59.3,68.7z"/>
		<path class="st6" d="M57.2,66c-0.6,0.8-1.3,1.6-2,2.4c-0.7,0.8-1.2,1.7-1.4,2.8c-0.1,0.8-0.1,1.7,0,2.6c0,1.3-0.2,2.4-0.7,3.7
			c0.9-1.4,1.9-2.7,2.8-4.1c0.5-0.7,0.9-1.4,1.3-2.1c0.2-0.6,0.5-1.3,0.6-1.9c0.6-2.1,1.4-4.7,1.2-6.7C58.5,63.8,57.8,65,57.2,66z"
			/>
		<path class="st3" d="M15.3,53.9c-0.8,0-1.6-0.3-2.3-0.8c-1.7-1.3-3.8-2-6-2c-2.1,0.2-3.8,1.4-4.8,3.3c-0.2,0.9-0.7,1.7-1.3,2.4
			c1.4-0.2,2.8-0.5,4.2-0.6c1-0.1,2.1-0.3,3-0.6C10.6,55.2,12.9,54.5,15.3,53.9z"/>
		<path class="st4" d="M15.7,53.7c-2.6,0.8-5.2,1.3-7.8,1.7l-1.6,0.3L0,57c0.9-0.1,1.6,0.9,2.3,1.4c0.7,0.5,1.5,0.8,2.3,1
			c0.6,0.2,1,0.3,1.6,0.5c1.7,0,3.5-0.6,4.8-1.7c0.9-0.7,1.7-1.6,2.6-2.4C14.1,54.9,14.9,54.2,15.7,53.7z"/>
		<path class="st3" d="M21.3,47.3c-0.3-0.8-0.2-1.6,0.1-2.3c0.6-2,1-4.1,0.1-5.7c-1-1.6-3-2.6-5-2.3c-1,0.2-2,0.2-3,0.2
			c0.7,0.9,1.4,2,1.9,3c0.5,0.7,1,1.5,1.6,2.1C18.4,44.1,19.9,45.7,21.3,47.3z"/>
		<path class="st4" d="M21.6,47.6c-1.6-1.7-3-3.5-4.4-5.5l-0.9-1.2L13,36.5c0.5,0.7-0.5,1.7-0.7,2.6c-0.2,0.8-0.3,1.5-0.3,2.3
			c-0.1,0.5-0.1,1,0,1.5c0.3,1.5,1.9,2.4,3.5,3c1.2,0.3,2.3,0.7,3.5,0.8C19.9,46.9,20.8,47.1,21.6,47.6z"/>
		<path class="st3" d="M25.2,68.9c-0.1-0.6,0.5-1.3,0.9-1.9c1.2-1.4,2.3-3.1,2.1-4.7c-0.3-1.6-1.6-2.8-3.3-3c-0.8,0-1.7-0.2-2.6-0.5
			c0.2,0.9,0.5,2,0.5,2.9c0.1,0.7,0.3,1.4,0.6,2.1C24.1,65.7,24.8,67.3,25.2,68.9z"/>
		<path class="st4" d="M25.5,69.3c-0.7-1.7-1.3-3.6-1.7-5.5l-0.3-1.2l-1.2-4.4c0.1,0.7-0.9,1.3-1.4,2c-0.5,0.6-0.8,1.2-1.2,1.7
			c-0.2,0.3-0.5,0.8-0.6,1.3c-0.1,1.3,0.6,2.6,1.7,3.3c0.8,0.6,1.6,1,2.6,1.4C24.3,68.2,25,68.6,25.5,69.3z"/>
		<path class="st6" d="M20.9,63.5c0.7-0.3,1.3-0.9,1.7-1.6c0.1-0.2,0.2-0.3,0.3-0.6c0.1-0.2,0.2-0.6,0.1-0.9c0-1-0.6-2.1-1.5-2.7
			c-0.1,0.3-0.2,0.7-0.3,1c-0.2,0.3-0.6,0.7-1,0.9c-0.3,0.1-0.8,0.2-1.2,0.2c-0.3,0-0.7,0.2-0.9,0.5C17.9,60.7,18,61,18,61.3
			c-0.1,0.3-0.2,0.7-0.5,1c-0.1,0.3-0.1,0.7,0.2,0.9c0.2,0.1,0.3,0.1,0.6,0.2c0.1,0.1,0.2,0.2,0.5,0.2
			C19.6,63.9,20.3,63.8,20.9,63.5z"/>
		<path class="st6" d="M10.2,44.5c1.3,0.1,2.4,0.5,3.5,1c0.3,0.1,0.6,0.3,0.9,0.5c0.3,0.3,0.7,0.7,0.9,1.2c0.7,1.6,0.7,3.4,0,5
			c-0.3-0.5-0.8-0.9-1.3-1.3c-0.6-0.3-1.3-0.6-2-0.5c-0.6,0.1-1.2,0.2-1.6,0.5c-0.6,0.2-1.2,0.2-1.6,0c-0.7-0.3-0.7-0.9-0.9-1.4
			c-0.3-0.5-0.8-0.8-1.3-1.2c-0.5-0.3-0.7-0.9-0.3-1.5c0.1-0.2,0.5-0.5,0.6-0.7c0.1-0.2,0.2-0.5,0.3-0.7
			C8.1,44.8,9.2,44.4,10.2,44.5z"/>
		<path class="st4" d="M22.1,39.9c-0.2-0.6-0.7-0.9-1.3-0.9s-1.2,0.3-1.5,0.7c-0.3,0.5-0.6,0.9-0.8,1.4c-0.3,0.6-0.6,1.4-0.6,2.1
			c0.1,0.7,0.5,1.3,0.8,1.9l2.9,3.8c0.5-1.4-0.1-2.8,0-4.3c0-0.5,0.1-0.9,0.2-1.3C22.2,42.2,22.3,41,22.1,39.9z"/>
		<path class="st7" d="M22,42.1c-0.7,3.6,0.1,7.3,2.2,10.2c-1.6-0.9-3.7-1.2-4.8-2.6c-0.1-0.1-0.2-0.3-0.3-0.5
			c-0.1-0.1-0.2-0.2-0.3-0.3c-0.6-0.7-0.7-1.5-0.3-2.3C19,44.9,20.5,43.6,22,42.1z"/>
		<path class="st5" d="M12.7,65.1c0-2.1,0.9-4.1,2.4-5.5c0.6-0.5,1.3-0.8,1.9-1.2c0.7-0.5,1.4-0.9,2.1-1.4l-0.9,2.2l-0.6,1.3
			c-0.8,1.7-1.6,3.5-2.2,5.2c-0.3,0.8-0.6,1.6-0.7,2.4c-0.1,0.3-0.1,0.7-0.1,1c0,0.3-0.2,1.4-0.6,1.5s-0.6-1-0.7-1.4
			C12.8,67.9,12.6,66.5,12.7,65.1z"/>
		<path class="st6" d="M15.5,68.4c0.7-0.8,1.6-1.6,2.3-2.4c0.8-0.8,1.3-1.9,1.6-2.9c0.1-0.9,0.1-2-0.1-2.9c0-1.4,0.1-2.7,0.7-4
			c-1.2,1.4-2.2,2.8-3.4,4.2c-0.6,0.7-1,1.4-1.5,2.2c-0.2,0.7-0.5,1.3-0.7,2c-0.7,2.2-1.6,5-1,7.3C14,70.7,14.6,69.4,15.5,68.4z"/>
		<path class="st3" d="M21.2,54.3c-0.6,0.2-1.3,0.3-2,0.3c-1.6-0.1-3.4,0.1-4.9,0.9c-1.3,0.7-2.2,2-2.4,3.5c0.1,0.6,0,1.3-0.1,1.9
			c0.9-0.6,1.9-1.2,2.8-1.6c0.7-0.3,1.3-0.9,2-1.4C18.1,56.6,19.6,55.5,21.2,54.3z"/>
		<path class="st4" d="M21.4,54.1c-1.6,1.3-3.4,2.4-5,3.6l-1.2,0.8l-4.1,2.8c0.6-0.3,1.4,0,2.1,0c0.6,0,1.3,0,1.9-0.1
			c0.5,0,0.9-0.1,1.3-0.2c1.3-0.5,2.3-1.4,2.9-2.7c0.5-0.7,0.8-1.5,1-2.3C20.6,55.2,20.9,54.5,21.4,54.1z"/>
		<path class="st5" d="M13.5,52.9c1.2,1.4,2.8,2.3,4.7,2.6c0.6,0,1.3,0,1.9-0.1c0.7,0,1.4,0,2.1,0l-1.7-0.9l-1-0.6
			c-1.4-0.8-2.9-1.6-4.2-2.4c-0.6-0.3-1.2-0.8-1.7-1.3l-0.7-0.7c-0.2-0.2-0.9-0.8-1.2-0.7c-0.2,0.1,0.1,1,0.2,1.3
			C12.2,50.9,12.7,52,13.5,52.9z"/>
		<path class="st6" d="M13.7,49.4c0.9,0.2,1.9,0.3,2.9,0.6c0.9,0.2,1.9,0.6,2.6,1.3c0.6,0.6,1,1.3,1.5,2c0.7,0.9,1.5,1.7,2.6,2.3
			c-1.5-0.3-3-0.8-4.5-1.3c-0.7-0.2-1.4-0.5-2.1-0.8c-0.6-0.3-1-0.7-1.5-1c-1.7-1.3-3.8-2.7-4.7-4.5C11.5,48.5,12.6,48.9,13.7,49.4z
			"/>
		<path class="st4" d="M24.1,62.2c-0.2,0.5-0.7,0.7-1.2,0.8c-0.5,0-0.8-0.1-1.2-0.5c-0.2-0.2-0.5-0.6-0.6-0.9
			c-0.2-0.5-0.3-1-0.2-1.5c0.2-0.6,0.5-1,0.9-1.4l2.9-3.1c0.2,1-0.5,2.1-0.6,3.1c0,0.3,0,0.7,0,0.9C24.4,60.5,24.3,61.4,24.1,62.2z"
			/>
		<path class="st7" d="M24.3,60.6c-0.1-2.9,1-5.8,3.1-7.9c-1.4,0.8-3.3,1.2-4.3,2.3c-0.1,0.1-0.2,0.2-0.3,0.3l-0.3,0.2
			c-0.5,0.5-0.7,1-0.6,1.7C22,58.7,23.3,59.5,24.3,60.6z"/>
		<path class="st5" d="M20.1,52.9c1.6,1,3.5,1.4,5.3,1.2c0.6-0.1,1.2-0.3,1.7-0.6c0.7-0.2,1.4-0.5,2.1-0.6l-2.1-0.5l-1.3-0.2
			c-1.6-0.3-3.4-0.7-5-1.3c-0.7-0.2-1.4-0.5-2.1-0.8c-0.2-0.1-0.6-0.3-0.9-0.5c-0.3-0.1-1.2-0.6-1.4-0.3c-0.2,0.2,0.5,0.9,0.7,1.2
			C18,51.5,19.1,52.2,20.1,52.9z"/>
		<path class="st6" d="M19.2,49.6c1,0,2-0.1,3-0.2c1-0.1,2,0.1,2.9,0.5c0.8,0.5,1.5,0.9,2.1,1.5c1,0.7,2.1,1.3,3.3,1.5
			c-1.6,0-3.3,0-4.9-0.1c-0.8,0-1.5-0.1-2.3-0.2c-0.6-0.1-1.3-0.3-1.9-0.6c-2-0.7-4.5-1.5-6-3C16.6,49.3,17.9,49.5,19.2,49.6z"/>
		<path class="st3" d="M49.1,34.3c0.1-0.7-0.1-1.4-0.5-2.1c-0.8-1.6-1.2-3.4-0.9-5.2c0.2-1.5,1.4-2.8,2.9-3.3c0.7-0.1,1.4-0.2,2-0.6
			c-0.3,1-0.6,2.1-0.7,3.3c-0.2,0.8-0.5,1.5-0.7,2.3C50.5,30.7,49.8,32.4,49.1,34.3z"/>
		<path class="st4" d="M48.9,34.5c0.8-1.9,1.4-4,2-5.9l0.3-1.3l1.4-4.8c-0.2,0.7,0.6,1.4,0.9,2.1c0.2,0.6,0.5,1.3,0.6,2
			c0.1,0.5,0.2,0.9,0.2,1.4c-0.1,1.4-0.7,2.7-1.7,3.5c-0.7,0.6-1.4,1.2-2.1,1.5C49.9,33.5,49.3,34,48.9,34.5z"/>
		<path class="st3" d="M43.5,37.8c-0.6-0.3-1.2-0.5-1.7-0.3c-1.5,0.2-3.1-0.1-4.4-0.9c-1.2-1.2-1.7-2.8-1.4-4.4
			c0.2-0.7,0.3-1.5,0.3-2.3c0.7,0.7,1.4,1.4,2.2,2.1c0.6,0.6,1,1,1.5,1.7C41.2,34.9,42.2,36.4,43.5,37.8z"/>
		<path class="st4" d="M43.6,38.1c-1.2-1.5-2.6-3-3.8-4.5l-0.9-0.9l-3.1-3.5c0.5,0.5,1.4,0,2-0.1c0.6,0,1.3,0,1.9,0.1
			c0.3,0,0.8,0.1,1.2,0.3c1.2,0.7,1.9,2,2.1,3.3c0.2,0.9,0.3,2,0.3,2.9C43.1,36.6,43.3,37.4,43.6,38.1z"/>
		<path class="st3" d="M60.1,45c-0.5-0.2-1,0.1-1.5,0.3c-1.2,0.8-2.4,1-3.8,0.8c-1.3-0.6-2.1-1.7-2.1-3.1c0-0.7,0-1.4-0.2-2.1
			c0.7,0.3,1.5,0.7,2.2,0.9c0.6,0.2,1,0.5,1.6,0.8C57.6,43.5,58.8,44.2,60.1,45z"/>
		<path class="st4" d="M60.2,45.2c-1.3-0.8-2.7-1.6-4.1-2.3l-0.9-0.5L52,40.7c0.5,0.2,1.2-0.5,1.6-0.8c0.5-0.2,0.9-0.5,1.5-0.6
			c0.3-0.1,0.7-0.2,1-0.2c1,0,1.9,0.9,2.4,2c0.3,0.7,0.7,1.5,0.9,2.3C59.5,44.1,59.9,44.6,60.2,45.2z"/>
		<path class="st6" d="M56,40.5c-0.3,0.5-0.8,0.8-1.4,1c-0.1,0.1-0.3,0.1-0.5,0.2c-0.1,0.1-0.5,0.1-0.7,0.1c-0.8-0.2-1.5-0.8-2-1.6
			c0.3,0,0.6,0,0.9-0.1c0.3-0.1,0.6-0.3,0.8-0.7c0.1-0.2,0.2-0.6,0.3-0.8c0.1-0.2,0.2-0.5,0.5-0.7c0.2-0.1,0.5,0.1,0.8,0.1
			c0.2,0,0.6-0.1,0.8-0.1c0.2-0.1,0.6,0,0.7,0.3c0,0.1,0,0.3,0.1,0.5c0.1,0.1,0.1,0.2,0.1,0.3C56.6,39.5,56.4,40.1,56,40.5z"/>
		<path class="st6" d="M42.1,28.5c0,1,0.1,2,0.5,2.9c0.1,0.2,0.2,0.6,0.3,0.8c0.2,0.3,0.5,0.7,0.9,0.9c1.2,0.8,2.6,1.2,4,0.9
			c-0.3-0.3-0.7-0.8-0.9-1.3c-0.2-0.5-0.3-1-0.2-1.6c0.1-0.5,0.2-0.8,0.5-1.3c0.2-0.5,0.2-0.9,0.1-1.3c-0.2-0.5-0.7-0.6-0.9-0.9
			c-0.3-0.3-0.6-0.8-0.8-1.2c-0.2-0.5-0.7-0.7-1.2-0.6c-0.2,0.1-0.3,0.2-0.6,0.3c-0.2,0.1-0.3,0.1-0.6,0.1
			C42.4,26.6,42.2,27.6,42.1,28.5z"/>
		<path class="st4" d="M37.6,37.1c-0.6-0.3-0.8-1.2-0.6-1.7c0.1-0.2,0.3-0.3,0.6-0.6c0.3-0.2,0.7-0.3,1.2-0.5
			c0.6-0.2,1.2-0.2,1.6-0.1c0.6,0.2,1,0.6,1.4,1l2.8,3c-1.2,0.1-2.2-0.6-3.4-0.8c-0.3,0-0.7-0.1-1-0.1
			C39.4,37.6,38.5,37.4,37.6,37.1z"/>
		<path class="st7" d="M39.3,37.4c3,0.1,5.8,1.5,7.9,3.7c-0.6-1.4-0.6-3.1-1.6-4.3l-0.3-0.3c-0.1-0.1-0.1-0.2-0.2-0.3
			c-0.5-0.5-1-0.8-1.7-0.7C41.7,35.5,40.6,36.5,39.3,37.4z"/>
		<path class="st5" d="M58.1,34.2c-1.6-0.3-3.3,0-4.4,1c-0.3,0.3-0.7,0.8-1,1.3c-0.3,0.5-0.8,0.9-1.3,1.4l1.7-0.3l1-0.2
			c1.4-0.3,2.8-0.6,4.3-0.8c0.6-0.1,1.3-0.1,2-0.1c0.2,0,0.6,0.1,0.8,0.1c0.2,0,1.2,0,1.2-0.2c0-0.2-0.8-0.7-1-0.8
			C60.3,34.8,59.3,34.4,58.1,34.2z"/>
		<path class="st6" d="M60.3,37c-0.7,0.5-1.4,0.9-2.1,1.4c-0.7,0.5-1.5,0.7-2.4,0.7c-0.8-0.1-1.5-0.3-2.2-0.6
			c-1-0.3-2.1-0.3-3.1-0.2c1.2-0.7,2.3-1.3,3.6-1.9c0.6-0.3,1.2-0.6,1.9-0.7c0.6-0.1,1-0.2,1.6-0.2c1.9-0.1,4.1-0.3,5.8,0.5
			C62.3,36.3,61.3,36.5,60.3,37z"/>
		<path class="st3" d="M48.9,39.1c0.2-0.5,0.5-0.9,0.3-1.5c0-1.3,0.3-2.7,1-3.7c0.7-0.9,1.7-1.4,2.9-1.3c0.5,0.1,0.9,0.2,1.4,0.2
			c-0.6,0.6-1,1.3-1.5,2c-0.3,0.5-0.8,0.9-1.2,1.4C50.9,37,50,38,48.9,39.1z"/>
		<path class="st4" d="M48.7,39.2c1.2-1,2.2-2.2,3.3-3.4l0.7-0.7l2.4-2.8C54.8,32.8,55,33.5,55,34c0,0.5-0.1,1-0.3,1.5
			c-0.1,0.3-0.2,0.7-0.3,1C53.8,37.4,53,38,52,38.4c-0.6,0.2-1.2,0.3-1.9,0.5C49.6,38.7,49.2,38.8,48.7,39.2z"/>
		<path class="st5" d="M48.5,32.6c1,1.2,1.6,2.6,1.6,4.2c0,0.5-0.1,0.9-0.2,1.5c-0.1,0.6-0.1,1.2-0.2,1.7l-0.6-1.6l-0.3-0.9
			c-0.5-1.3-1-2.6-1.6-3.8c-0.2-0.6-0.6-1-0.9-1.6c-0.1-0.2-0.3-0.5-0.5-0.6s-0.6-0.9-0.5-1c0.1-0.1,0.8,0.3,0.9,0.5
			C47.1,31.2,47.8,31.7,48.5,32.6z"/>
		<path class="st6" d="M45.7,32.1c0.1,0.8,0.1,1.6,0.2,2.4s0.3,1.6,0.8,2.3c0.5,0.6,0.9,1,1.4,1.5c0.7,0.7,1.3,1.5,1.6,2.4
			c-0.2-1.3-0.5-2.6-0.7-3.8c-0.1-0.6-0.2-1.3-0.5-1.9c-0.2-0.5-0.5-0.9-0.7-1.4c-0.7-1.7-1.9-3.3-3.1-4.5
			C45.2,30.2,45.5,31.2,45.7,32.1z"/>
		<path class="st4" d="M54.9,42.8c0.3-0.1,0.6-0.5,0.7-0.8c0.1-0.3,0-0.7-0.2-1c-0.2-0.2-0.5-0.5-0.7-0.6c-0.3-0.2-0.7-0.5-1.2-0.5
			s-0.8,0.2-1.2,0.5l-2.7,1.7c0.8,0.3,1.7,0,2.6,0.2c0.2,0,0.5,0.1,0.8,0.2C53.5,42.7,54.2,42.8,54.9,42.8z"/>
		<path class="st7" d="M53.6,42.7c-2.2-0.6-4.5-0.2-6.4,1c0.8-0.9,1.2-2.3,2.1-3c0.1-0.1,0.2-0.1,0.3-0.2c0.1-0.1,0.1-0.1,0.2-0.2
			c0.3-0.3,0.9-0.3,1.4-0.1C52.3,40.5,52.9,41.6,53.6,42.7z"/>
		<path class="st5" d="M47.9,37.9c0.7,1.4,0.8,3,0.5,4.5c-0.1,0.5-0.3,0.9-0.6,1.3c-0.2,0.5-0.5,1-0.6,1.5L47,43.5l-0.1-1
			c-0.1-1.4-0.3-2.8-0.6-4.2c-0.1-0.6-0.2-1.3-0.5-1.9c-0.1-0.2-0.2-0.5-0.2-0.8s-0.3-1-0.1-1.2c0.2-0.1,0.7,0.6,0.8,0.8
			C47,36,47.4,37,47.9,37.9z"/>
		<path class="st6" d="M45.3,36.5c-0.1,0.8-0.2,1.5-0.3,2.3c-0.1,0.8-0.1,1.6,0.1,2.4c0.2,0.7,0.6,1.4,0.9,2
			c0.5,0.9,0.8,1.9,0.9,2.9c0.1-1.3,0.2-2.6,0.3-3.8c0.1-0.7,0.1-1.3,0-2c-0.1-0.6-0.1-1-0.3-1.6c-0.3-1.9-0.9-3.7-1.9-5.3
			C45.3,34.4,45.5,35.5,45.3,36.5z"/>
		<path class="st3" d="M60.9,13.1c-0.5-0.3-1-0.5-1.6-0.3c-1.4,0.1-2.9-0.2-4.2-0.8c-1-0.6-1.7-1.7-1.7-3c0.1-0.6,0.1-1.2,0.1-1.6
			c0.7,0.6,1.5,1,2.3,1.5c0.6,0.3,1,0.8,1.6,1.2C58.5,11,59.6,12.1,60.9,13.1z"/>
		<path class="st4" d="M61.2,13.4c-1.3-1.2-2.7-2.2-4.1-3.3l-0.9-0.7L52.9,7c0.5,0.3,1.3,0,1.9,0s1.2,0,1.6,0.1
			c0.3,0,0.8,0.1,1.2,0.2c1,0.5,1.9,1.3,2.3,2.3c0.2,0.6,0.5,1.3,0.6,2C60.6,12.3,60.7,12.9,61.2,13.4z"/>
		<path class="st4" d="M76.3,30.1c0.7-0.2,1.2-0.8,1.4-1.5c0.1-0.6,0-1.3-0.5-1.7c-0.3-0.5-0.8-0.7-1.4-0.9
			c-0.7-0.5-1.4-0.7-2.2-0.7c-0.8,0.1-1.6,0.5-2.3,0.9l-5.1,3.3c1.5,0.6,3.3-0.1,4.8,0c0.5,0,0.9,0.1,1.4,0.2
			C73.6,30.2,75,30.3,76.3,30.1z"/>
		<path class="st7" d="M73.8,30.1c-4.2-0.8-8.6,0.1-12.2,2.6c1.4-1.7,2.2-4.3,4.1-5.6c0.2-0.1,0.5-0.2,0.6-0.3
			c0.1-0.1,0.3-0.3,0.5-0.5c0.8-0.6,1.7-0.7,2.7-0.3C71.4,26.5,72.4,28.4,73.8,30.1z"/>
		<path class="st5" d="M83.2,28.5c-2.6,1.4-4.5,3.3-4.9,5.1c-0.1,0.6-0.1,1.3,0,1.9c0,0.7,0,1.5-0.1,2.2l2-2l1.2-1.2
			c1.5-1.6,3-3.1,4.8-4.8c0.8-0.7,1.6-1.4,2.4-2c0.3-0.2,0.8-0.5,1.2-0.8c0.3-0.3,1.5-1,1.4-1.4c-0.1-0.3-1.7,0.3-2.3,0.5
			C86.9,26.7,85,27.4,83.2,28.5z"/>
		<path class="st6" d="M89.4,28.3c-0.5,1-0.8,2.1-1.3,3c-0.5,1.2-1.4,2.1-2.4,2.9c-1.2,0.7-2.3,1.3-3.6,1.7
			c-1.6,0.7-3.1,1.7-4.4,2.9c0.8-1.6,1.7-3.3,2.7-4.9c0.5-0.8,1-1.6,1.6-2.3c0.6-0.6,1.3-1.2,2-1.7c2.3-1.9,5-4.2,8.4-5.3
			C91.2,25.8,90.2,27,89.4,28.3z"/>
		<path class="st6" d="M86,50c-0.3-0.8-0.8-1.6-1.5-2.2c-0.1-0.2-0.3-0.3-0.6-0.6c-0.3-0.2-0.7-0.3-1.2-0.5
			c-1.4-0.2-2.8,0.1-3.8,0.8c0.5,0.1,0.8,0.3,1.3,0.7c0.3,0.3,0.7,0.8,0.8,1.3c0,0.5,0,0.8,0,1.3c0,0.5,0.1,0.8,0.3,1.2
			c0.3,0.3,0.8,0.2,1.2,0.3c0.5,0.2,0.8,0.5,1.2,0.7c0.3,0.2,0.8,0.2,1.3,0c0.2-0.1,0.2-0.3,0.5-0.6c0.2-0.2,0.3-0.2,0.5-0.3
			C86.2,51.5,86.3,50.7,86,50z"/>
		<path class="st5" d="M35.9,18.4c0.8,1.7,1.2,3.7,0.7,4.9c-0.2,0.5-0.5,0.8-0.8,1.2c-0.3,0.5-0.6,0.9-0.8,1.4L34.8,24l-0.1-1.2
			c-0.2-1.5-0.5-3-0.8-4.7c-0.1-0.7-0.3-1.4-0.6-2.1c-0.1-0.3-0.2-0.6-0.3-0.9c-0.1-0.3-0.5-1.2-0.2-1.3s0.8,0.8,1,1.2
			C34.5,16,35.3,17.1,35.9,18.4z"/>
		<path class="st6" d="M32.7,15.9c-0.1,0.8-0.3,1.5-0.5,2.3c-0.1,0.9-0.1,1.9,0.2,2.7c0.3,0.8,0.8,1.6,1.3,2.4
			c0.5,1,0.9,2.2,1.2,3.4c0.2-1.3,0.2-2.7,0.3-4c0.1-0.7,0.1-1.4,0-2.1c-0.1-0.6-0.2-1.2-0.3-1.7c-0.5-2.2-1.3-4.4-2.4-6.4
			C32.6,13.7,32.7,14.9,32.7,15.9z"/>
		<path class="st4" d="M86.3,67.7c0.3-0.1,0.7-0.2,0.7-0.6c0-0.3-0.2-0.6-0.5-0.8c-0.3-0.2-0.7-0.3-1-0.6c-0.5-0.2-0.9-0.3-1.5-0.5
			c-0.5,0-0.9,0.1-1.3,0.3l-2.9,1.2c1,0.2,2.1,0.3,3,0.2c0.3,0,0.7,0.1,0.9,0.2C84.6,67.6,85.5,67.7,86.3,67.7z"/>
		<path class="st7" d="M84.8,67.6c-2.4-0.6-5.1-0.5-7.4,0.5c0.7-0.7,0.9-1.9,1.9-2.3l0.3-0.1l0.2-0.2c0.6-0.2,1.2-0.2,1.6,0
			C82.7,65.8,83.8,66.6,84.8,67.6z"/>
		<path class="st3" d="M30.3,89.1c-0.3,0.5-0.6,0.9-0.6,1.5c-0.1,1.3-0.6,2.6-1.4,3.6c-0.9,0.9-2.2,1.4-3.5,1.2
			c-0.5-0.1-1-0.2-1.6-0.2c0.7-0.6,1.3-1.2,1.9-1.9c0.5-0.5,0.9-0.9,1.5-1.3C27.8,91,29.1,90.1,30.3,89.1z"/>
		<path class="st4" d="M30.6,88.9c-1.4,1-2.7,2.1-4,3.3l-0.8,0.7l-3,2.7c0.5-0.3,0.2-1.2,0.2-1.6c0.1-0.5,0.2-1,0.3-1.5
			c0.1-0.3,0.2-0.7,0.5-0.9c0.7-0.9,1.6-1.5,2.8-1.7c0.7-0.2,1.5-0.3,2.2-0.3C29.4,89.3,30,89.2,30.6,88.9z"/>
		<path class="st0" d="M74.9,158.9c0.3,0.6,0.6,1.3,0.7,1.9c0.1,1.3-0.2,2.6-1,3.5c-0.8,0.9-1.4,2-2,3.1c-0.5,1.2-0.6,2.4-0.6,3.6
			l-0.6,10.6c0.1,1.3-0.3,2.7-1.2,3.7c-0.9,0.7-2,1.2-3,1.2c-4.4,0.7-8.8,1.4-13.3,0.8c-0.5,0-0.9-0.2-1.3-0.6
			c-0.3-0.5-0.5-1-0.3-1.6c0.6-9,3.5-17.7,8.3-25.2c0.9-1.5,2.1-3,2.9-4.7c0.3-0.7,0.7-1.3,1.2-1.9c1-0.9,2.4-1.4,3.8-1.3
			c1.4,0.1,2.8,0,4.1-0.3c2-0.7,1.9,0.7,1.7,2.2C74.2,155.7,74.3,157.3,74.9,158.9z"/>
		<path class="st8" d="M31,149.6l1.5,4.4c0.3,1.7,0.5,3.5,0.1,5.2c0,0.6-0.2,1.6-0.2,2.2c0,2,2.4,4,3.4,5.7
			c2.2,4.8,0.6,10.2,1.4,15.5c0,0.3,0.1,0.7,0.3,1c0.2,0.2,0.5,0.5,0.8,0.6c4.5,2.4,11.3,3.3,16.5,2.9c0.6,0,1.3-0.1,1.9-0.3
			c0.6-0.2,1-0.5,1.5-0.8c2.9-2.1,4-5.7,5.2-9.1c1.3-3.4,1-7,1.4-10.5c0.1-0.9,0.9-2,0.9-2.9c0-3.1-1.4-6.2-0.9-9.2
			c-2.8-0.3-5.8-0.3-8.6-0.5c-7.3-0.2-14.4-2.2-21.4-4.2C33.5,149.5,32.2,149.4,31,149.6z"/>
		<path class="st5" d="M68.2,39.4c0.3,1.5,0,3.1-0.9,4.4c-0.3,0.3-0.7,0.6-1.2,0.8c-0.5,0.3-0.8,0.7-1.2,1l0.3-1.7l0.2-1
			c0.2-1.4,0.6-2.8,0.7-4.2c0.1-0.6,0.1-1.3,0.1-2c0-0.2,0-0.6,0-0.9c0-0.3,0-1.2,0.2-1.2s0.6,0.9,0.7,1.2
			C67.8,37.1,68.1,38.3,68.2,39.4z"/>
		<path class="st6" d="M65.9,36.7c-0.3,0.7-0.8,1.3-1.2,2c-0.5,0.7-0.7,1.5-0.7,2.3c0.1,0.8,0.2,1.5,0.5,2.3c0.2,1,0.2,2.1,0.1,3.3
			c0.6-1,1.2-2.2,1.6-3.4c0.2-0.6,0.5-1.2,0.7-1.7c0.1-0.6,0.1-1,0.2-1.6c0.2-2,0.1-4.1-0.3-5.9C66.6,34.8,66.3,35.8,65.9,36.7z"/>
		<path class="st5" d="M63,85.1c-1.9,0.3-3.5,1.4-4.5,2.9c-0.2,0.6-0.5,1-0.6,1.6c-0.2,0.6-0.5,1.3-0.8,1.9l1.7-1.2l1-0.7
			c1.4-0.9,2.8-1.9,4.3-2.7c0.7-0.3,1.4-0.7,2.1-0.9c0.3-0.1,0.7-0.2,0.9-0.3c0.2-0.1,1.3-0.5,1.3-0.8c0-0.3-1.2-0.2-1.5-0.2
			C65.6,84.6,64.3,84.8,63,85.1z"/>
		<path class="st6" d="M66.6,86.6c-0.6,0.7-1.2,1.5-1.7,2.2c-0.6,0.8-1.4,1.4-2.3,1.7c-0.9,0.2-1.7,0.3-2.7,0.5
			c-1.3,0.2-2.4,0.6-3.6,1.3c1-1.2,2.1-2.2,3.1-3.4c0.6-0.6,1-1,1.7-1.5c0.6-0.3,1.2-0.7,1.7-0.9c2-0.9,4.3-2.1,6.6-2.2
			C68.5,85,67.6,85.8,66.6,86.6z"/>
		<path class="st9" d="M29.5,148.4c1.6,1.5,3.5,2.6,5.7,3.1c10.8,3.4,22.2,4.3,33.4,2.7c2.2-0.2,4.4-0.9,6.3-2.1
			c1.3-0.9,2.3-2.1,3-3.5c0.9-1.7,1.4-4.2,0.2-5.8c-0.8,1.7-1.9,3.4-3.1,4.9c-2.6,2.4-6,2.8-9.3,3c-6.5,0.7-13.1,0.5-19.6-0.5
			c-4.4-0.7-8.7-2.2-12.7-4.4c-0.9-0.5-4.8-3.8-5.3-3.4C26.7,143.6,28.7,147.5,29.5,148.4z"/>
		<path class="st10" d="M72.3,149.4c-2.1,1-4.3,0.9-6.5,1.4c-2.9,0.7-5.6,2.6-8.5,3.1c-2.2,0.5-4.5,0.1-6.6,0.6
			c6.4,1.4,13,0.3,19.4-0.6c1.2-0.1,2.3-0.5,3.5-0.8c1.6-0.7,3-1.9,4.1-3.3c0.6-0.9,2.4-7.2,0.2-6.5c-0.7,0.2-1.9,2.7-2.4,3.4
			C74.5,147.8,73.5,148.7,72.3,149.4z"/>
	</g>
</g>
</svg>
