<svg xmlns="http://www.w3.org/2000/svg" viewBox="0 0 18.67 25.86"><defs><style>.cls-1{fill:#a57c2b;}.cls-2{fill:#d1ba33;}</style></defs><title>Resurs 13</title><g id="Lager_2" data-name="Lager 2"><g id="Citron31"><path class="cls-1" d="M9.37,1.44c-.1-.55.32-1.15.8-1.12.21.24.54.19.83.24a1.53,1.53,0,0,1,1.09,1.29.69.69,0,0,1,0,.25c-.07.2-.29.22-.47.21a5.53,5.53,0,0,1-2.45-.85"/><path class="cls-1" d="M16.23,4.61a6.85,6.85,0,0,1,1.63,1.87,7.31,7.31,0,0,1,.72,2.73,12.81,12.81,0,0,1-1.31,7.55c-1.33,2.32-3.57,3.8-4.6,6.32a9.44,9.44,0,0,1-.91,2,1.19,1.19,0,0,1-1.73.4,2.6,2.6,0,0,1-.38-2.05c.46-4.67,1-9.41.36-14a39.07,39.07,0,0,1-.7-5.37,3.87,3.87,0,0,1,.62-2.45C11.4-.25,15.05,3.59,16.23,4.61Z"/><path class="cls-2" d="M4.47,2.36A9,9,0,0,0,.27,7.92a14,14,0,0,0,.44,7c.77,2.78,2.15,5.64,4.48,6.55,1.3.51,3,.51,3.65,1.95.37.82.35,2,1,2.43.42.18.86-.32,1-.84a10.81,10.81,0,0,0,0-1.61c.05-1.36.91-2.45,1.57-3.56,2-3.35,2.4-7.75,1.86-11.81C14,5.64,13.19,2.83,11.41,1.45S6.28,1.3,4.47,2.36Z"/><path class="cls-2" d="M10.21,2.93a1.67,1.67,0,0,0,.69-1C10.55,1.1,10.09.13,9.3,0A10.08,10.08,0,0,0,8.08.13c-.54,0-1.24-.26-1.51.3.17.18,0,.51,0,.78A1.22,1.22,0,0,0,7.4,2.44a3.81,3.81,0,0,0,1.43.05,1.58,1.58,0,0,1,1.35.44"/></g></g></svg>