<svg xmlns="http://www.w3.org/2000/svg" viewBox="0 0 14.16 12.15"><defs><style>.cls-1{fill:#205b16;}.cls-2{fill:#53d356;}</style></defs><title>Resurs 3</title><g id="Lager_2" data-name="Lager 2"><g id="Citron3OO"><path class="cls-1" d="M7.1.68C7,.42,7.35.14,7.71.15a1.52,1.52,0,0,0,.62.12.92.92,0,0,1,.83.6.17.17,0,0,1,0,.12c-.05.09-.22.1-.35.09A6,6,0,0,1,6.94.69"/><path class="cls-1" d="M12.34,2.17a4.34,4.34,0,0,1,1.23.88,2.48,2.48,0,0,1,.53,1.28,4.16,4.16,0,0,1-1,3.55c-1,1.08-2.72,1.78-3.51,3a4,4,0,0,1-.7.95A1.25,1.25,0,0,1,7.55,12c-.36-.21-.33-.62-.28-1A17.26,17.26,0,0,0,7.6,4.42,12.36,12.36,0,0,1,7.1,1.9,1.37,1.37,0,0,1,7.58.74C8.7-.12,11.45,1.69,12.34,2.17Z"/><path class="cls-2" d="M3.39,1.11A5.19,5.19,0,0,0,.21,3.72,4.21,4.21,0,0,0,.54,7a5.11,5.11,0,0,0,3.39,3.07c1,.24,2.27.24,2.77.92.28.38.26.94.79,1.14a.63.63,0,0,0,.72-.4,2.69,2.69,0,0,0,0-.75c0-.64.69-1.15,1.19-1.67a6,6,0,0,0,1.41-5.55A4.22,4.22,0,0,0,8.65.68C7.26,0,4.76.61,3.39,1.11Z"/><path class="cls-2" d="M7.74,1.37A.94.94,0,0,0,8.26.92,1.67,1.67,0,0,0,7.05,0c-.31,0-.61,0-.92,0S5.18-.06,5,.2c.13.09,0,.24,0,.37s.27.5.62.58a4.87,4.87,0,0,0,1.08,0,1.82,1.82,0,0,1,1,.2"/></g></g></svg>