<svg xmlns="http://www.w3.org/2000/svg" viewBox="0 0 16.69 26.78"><defs><style>.cls-1{fill:#5b3806;}.cls-2{fill:#a57c2b;}.cls-3{fill:#d1ba33;}.cls-4{fill:#697043;}.cls-5{fill:#83995c;}.cls-6{fill:#f2eedf;}.cls-7{fill:#2d6d61;}.cls-8{fill:#d3c3a7;}.cls-9{fill:#1e4c3f;}</style></defs><title>Resurs 16</title><g id="Lager_2" data-name="Lager 2"><g id="Citron22"><path class="cls-1" d="M10.21.17a7.1,7.1,0,0,0-.64,3,1.82,1.82,0,0,0,.13.81.59.59,0,0,0,.6.38c.35-.08.48-.56.54-1C11,2.21,11.16.87,10.47,0L10.2.14"/><path class="cls-2" d="M6.76,26.42a1.56,1.56,0,0,0,2.06-.18c.59-.51,1-1.24,1.57-1.8,1-1,2.49-1.39,3.49-2.46a7.31,7.31,0,0,0,1.4-2.61,25.52,25.52,0,0,0,1.37-9.68,6.47,6.47,0,0,0-.35-2.07A5.67,5.67,0,0,0,14.91,5.7,15,15,0,0,0,11,2.92c-1.2.1-2.27,1.4-3,2.5-1.59,2.48-3,5.37-2.78,8.42a31.23,31.23,0,0,0,1.08,5A20.33,20.33,0,0,1,6.76,26.42Z"/><path class="cls-3" d="M3.45,4.93a14.75,14.75,0,0,0-3,6.44c-.69,3-.73,6.44,1.09,8.69,1.4,1.72,3.78,2.58,4.39,4.82.2.76.34,1.8,1,1.89.52.07.93-.55,1-1.13s0-1.2.14-1.78A4.74,4.74,0,0,1,9,22.18a22.64,22.64,0,0,0,3.72-15.7,7.6,7.6,0,0,0-.44-1.84C10.62.64,5.53,2.56,3.45,4.93Z"/><path class="cls-4" d="M10.37,2.59c.11.38.23.84,0,1.13-.12.13-.32.2-.39.37s0,.32,0,.48c0,.49-.59.77-1.1.81a2.36,2.36,0,0,0-1.45.34C7,6.05,7,6.64,6.67,7s-1.4.28-1.86.77A2.67,2.67,0,0,0,6,5.65,2.36,2.36,0,0,1,6,4.9c.17-.45.69-.67,1-1s.6-1.15,1.16-1.45c.24-.12.54-.11.77-.23a8.12,8.12,0,0,0,.66-.66c.33-.11.44-.31.85-.07A1.3,1.3,0,0,0,10.37,2.59Z"/><path class="cls-5" d="M7.51,2.07a3.88,3.88,0,0,1-.57.69,4.28,4.28,0,0,1-.69.31.64.64,0,0,0-.42.56c0,.19.19.37.11.54s-.13.13-.19.19a1,1,0,0,0-.23.44l-.19.57a13.26,13.26,0,0,0-.73,3,6.17,6.17,0,0,0,2.1-3.4A1.59,1.59,0,0,1,7,4.09c.33-.35.93-.34,1.27-.67.15-.15.23-.35.37-.51.41-.49,1.62-.7,1-1.32C9.11,1.11,7.86,1.64,7.51,2.07Z"/><path class="cls-6" d="M2.5,12.92a3.44,3.44,0,0,1,2.19-.56,4.07,4.07,0,0,0,1.59.06c.68-.21,1.21-1,1.9-.83s.81.92.86,1.55a3.68,3.68,0,0,1-.47,2.6,4.68,4.68,0,0,0-.49.61c-.44.84.46,1.89.09,2.76-.23.55-.88.82-1.2,1.32A2.64,2.64,0,0,0,7,22.69a9.59,9.59,0,0,0-2.25-2.11A15.27,15.27,0,0,1,2,18.88a3.39,3.39,0,0,1-.89-3A6.7,6.7,0,0,1,2.5,12.92Z"/><path class="cls-7" d="M8.71,14.06a2.59,2.59,0,0,0-.18-1.72.71.71,0,0,0-.16-.28.66.66,0,0,0-.5-.14c-1.12,0-2.16.7-3.27.67-.58,0-1.24-.18-1.66.19a1.61,1.61,0,0,0-.38.69L1.43,16.8a1.69,1.69,0,0,0-.12,1c.18.64,1,.85,1.7,1s1.51.34,1.66,1c0,.22,0,.48.18.64s.29.14.44.21c.76.36.63,1.69,1.44,1.93.6.18,1.17-.49,1.13-1.1a3.56,3.56,0,0,0-.78-1.64,2,2,0,0,1-.39-1.72c.16-.41.56-.69.81-1.05s.29-1-.12-1.16a.74.74,0,0,0-.85.27,3.31,3.31,0,0,0-.4.85c0,.14-.13.3-.28.34s-.46-.23-.56-.48-.34-.53-.59-.41a1.24,1.24,0,0,0-.11-.68,1.16,1.16,0,0,0-.31,1.75A1.31,1.31,0,0,1,2.88,16a.46.46,0,0,1,.2-.29.61.61,0,0,1,.42,0l1.7.4c1.17.27,1-.34,1.75-.82S8.38,14.93,8.71,14.06Z"/><path class="cls-8" d="M13.38,18c-.1.33-.24.73,0,1a.6.6,0,0,0,.49.13,1.74,1.74,0,0,0,1.35-1.2c.54-1.4.14-3,.27-4.43.11-1.17,1.45-3.74.35-4.69-.94-.81-1.14,0-1.3.77A21.08,21.08,0,0,1,14,13.06a6.46,6.46,0,0,0-.66,2.19A11.42,11.42,0,0,1,13.38,18Z"/><path class="cls-9" d="M14.27,16.44A6.2,6.2,0,0,1,14.62,14c.29-.75.77-1.43,1.09-2.18a2.81,2.81,0,0,0,.09-2.35c-.66,0-1.1.68-1.17,1.31s.08,1.27,0,1.89-.56,1.22-.71,1.87c-.22,1,.25,2,0,3-.08.34-.23.65-.29,1a1,1,0,0,0,.27.95,1.86,1.86,0,0,0,1.38-1.62,7.74,7.74,0,0,0-.17-2.24,10.29,10.29,0,0,1,0-2.6"/></g></g></svg>