<svg xmlns="http://www.w3.org/2000/svg" viewBox="0 0 21.86 24.59"><defs><style>.cls-1{fill:#c49731;}.cls-2{fill:#f4ea34;}</style></defs><title>Resurs 7</title><g id="Lager_2" data-name="Lager 2"><g id="Citron1Mogen"><path class="cls-1" d="M9,23.68l5.31-1.74a12.11,12.11,0,0,0,4-1.88c2.29-1.86,2.84-5,3.24-7.87.37-2.67.7-5.55-.68-7.89a4.11,4.11,0,0,0-1.32-1.43A4.58,4.58,0,0,0,17.8,2.3a10.66,10.66,0,0,0-6.75,1.45A18.94,18.94,0,0,0,5.89,8.36a9.41,9.41,0,0,0-2.42,5c-.14,2,.88,3.94,1.71,5.82a4,4,0,0,1,.48,1.87c-.07,1.05-2.09,2.47-1.36,3.22S8.13,24,9,23.68Z"/><path class="cls-2" d="M1.26,17.53A12.18,12.18,0,0,1,3.19,4,13.13,13.13,0,0,1,16.93.75a5.67,5.67,0,0,1,2.46,1.56c1.19,1.43,1.05,3.5.58,5.27a18.74,18.74,0,0,1-9.92,11.87,8.31,8.31,0,0,0-3.25,2.1c-.45.6-.68,1.34-1.13,1.94-1.47,2-2.73-.08-3-1.64A13.54,13.54,0,0,0,1.26,17.53Z"/></g></g></svg>