<svg xmlns="http://www.w3.org/2000/svg" viewBox="0 0 23.01 25.86"><defs><style>.cls-1{fill:#c49731;}.cls-2{fill:#f4ea34;}</style></defs><title>Resurs 9</title><g id="Lager_2" data-name="Lager 2"><g id="Citron3Mogen"><path class="cls-1" d="M11.55,1.44a1,1,0,0,1,1-1.12c.26.24.66.19,1,.24a1.65,1.65,0,0,1,1.34,1.29.52.52,0,0,1,0,.25c-.09.2-.36.22-.58.21a7.94,7.94,0,0,1-3-.85"/><path class="cls-1" d="M20.05,4.62a7.64,7.64,0,0,1,2,1.88,6.4,6.4,0,0,1,.87,2.73,10.84,10.84,0,0,1-1.67,7.55c-1.65,2.31-4.42,3.78-5.71,6.29a8.8,8.8,0,0,1-1.13,2,1.69,1.69,0,0,1-2.13.39,2.17,2.17,0,0,1-.46-2.05c.6-4.67,1.32-9.4.54-14A31.6,31.6,0,0,1,11.53,4a3.43,3.43,0,0,1,.78-2.45C14.14-.27,18.61,3.59,20.05,4.62Z"/><path class="cls-2" d="M5.51,2.36A9.46,9.46,0,0,0,.34,7.92a11.47,11.47,0,0,0,.53,7c1,2.78,2.65,5.64,5.52,6.55C8,22,10.07,22,10.89,23.4c.46.82.43,2,1.28,2.43.52.18,1.06-.32,1.18-.84a8.65,8.65,0,0,0,0-1.61c.07-1.36,1.12-2.45,1.94-3.56,2.45-3.35,3-7.75,2.29-11.81-.38-2.37-1.34-5.18-3.53-6.56S7.74,1.3,5.51,2.36Z"/><path class="cls-2" d="M12.58,2.93a1.67,1.67,0,0,0,.84-1c-.42-.86-1-1.83-2-1.95C11,0,10.46.14,10,.13c-.67,0-1.53-.26-1.87.3.21.18.06.51,0,.78a1.24,1.24,0,0,0,1,1.23,5.82,5.82,0,0,0,1.77.05,2.24,2.24,0,0,1,1.66.44"/></g></g></svg>