<svg xmlns="http://www.w3.org/2000/svg" viewBox="0 0 12.87 12.24"><defs><style>.cls-1{fill:#f7f5f7;}.cls-2{fill:#d3ead7;}.cls-3{fill:#cfe5d0;}.cls-4{fill:#f7f703;}.cls-5{fill:#e5e5e5;}.cls-6{fill:#d3d3d3;}</style></defs><title>Resurs 1</title><g id="Lager_2" data-name="Lager 2"><g id="LemonFlower"><path class="cls-1" d="M2.55,2.37a2,2,0,0,1,.32-2,1.71,1.71,0,0,1,2,0A3.84,3.84,0,0,1,6.16,2.05,12.15,12.15,0,0,1,7.08,5.6a4,4,0,0,1-1.56.66c-.45-.07-.66-.48-1-.81A7,7,0,0,1,2.55,2.37Z"/><path class="cls-1" d="M7.58,3.7A4.13,4.13,0,0,1,8.67,1.64,6,6,0,0,0,9.4,1c.27-.33.45-.79.86-.9a1,1,0,0,1,.66.11,2.05,2.05,0,0,1,.91,2.19,5.14,5.14,0,0,1-1.19,2.21,4.67,4.67,0,0,1-.64.69c-.37.3-1.94,1.12-2.44.81S7.45,4.24,7.58,3.7Z"/><path class="cls-1" d="M2.61,5.53a3.09,3.09,0,0,0-1,.07,2.73,2.73,0,0,0-.77.45,2.27,2.27,0,0,0-.76.81.88.88,0,0,0,.17,1A1.48,1.48,0,0,0,1,8.1a9.28,9.28,0,0,0,3.28.06,2,2,0,0,0,1.34-.84C6.63,5.56,3.49,5.58,2.61,5.53Z"/><path class="cls-1" d="M5.05,9.33c.28.83,1.19,1.32,1.55,2.13.12.26.2.59.48.72a1,1,0,0,0,.38.05,2.48,2.48,0,0,0,1-.18,1.12,1.12,0,0,0,.66-.78c.08-.5-.3-.94-.55-1.38A3,3,0,0,1,8.2,8.46c0-.43,0-.91-.25-1.23a1.5,1.5,0,0,0-1.1-.36A2.11,2.11,0,0,0,5.05,9.33Z"/><path class="cls-1" d="M9.1,8.9a3.66,3.66,0,0,0,2.05.41,1.89,1.89,0,0,0,1.35-.4,1.82,1.82,0,0,0,.37-1.25.73.73,0,0,0-.08-.44A.73.73,0,0,0,12.38,7L8.56,5.81a1.25,1.25,0,0,0-.47-.07c-.42.06-.6.56-.69,1-.19.88-.09.68.52,1.17A10.4,10.4,0,0,0,9.1,8.9Z"/><path class="cls-2" d="M6.07,4.6c-.2-.16-.51.12-.43.36a.57.57,0,0,0,.62.3.4.4,0,0,0,.3-.13.34.34,0,0,0-.12-.48,1,1,0,0,0-.55-.14A1.82,1.82,0,0,1,7.46,5.72a1.07,1.07,0,0,1-.32,1.22,1.63,1.63,0,0,1-1.59-.22c-.17-.09-.38-.24-.34-.43a.8.8,0,0,1,.13-.24,1.18,1.18,0,0,0,.1-.62,1,1,0,0,1,.11-.61.38.38,0,0,1,.56-.1"/><path class="cls-3" d="M6.66,5.11a.5.5,0,0,0-.37-.44.89.89,0,0,0-.6.06.15.15,0,0,0-.09.06.29.29,0,0,0,0,.1c0,.1,0,.19,0,.29a.37.37,0,0,0,0,.18.34.34,0,0,0,.26.12l.48,0c.2,0,.43,0,.52-.21a.37.37,0,0,0,0-.31.93.93,0,0,0-.18-.26.49.49,0,0,0-.17-.15.16.16,0,0,0-.2.06"/><path class="cls-4" d="M6.28,4.11a.66.66,0,0,0-.11.2.2.2,0,0,0,0,.21.22.22,0,0,0,.11.05.24.24,0,0,0,.23-.28.26.26,0,0,0-.32-.17"/><path class="cls-4" d="M7.08,4.68a.78.78,0,0,0-.11.2.2.2,0,0,0,0,.21.15.15,0,0,0,.11,0,.23.23,0,0,0,.24-.27A.28.28,0,0,0,7,4.68"/><path class="cls-4" d="M7.49,5.15a.52.52,0,0,0-.11.19.2.2,0,0,0,0,.21.22.22,0,0,0,.11,0,.23.23,0,0,0,.23-.27.26.26,0,0,0-.32-.18"/><path class="cls-4" d="M6.28,5.75a.52.52,0,0,0-.11.19.2.2,0,0,0,0,.21.22.22,0,0,0,.11,0,.23.23,0,0,0,.23-.27.26.26,0,0,0-.32-.18"/><path class="cls-4" d="M5.53,5.52a.52.52,0,0,0-.11.19.2.2,0,0,0,0,.21.22.22,0,0,0,.11,0,.23.23,0,0,0,.23-.27.26.26,0,0,0-.32-.18"/><path class="cls-4" d="M5.19,4.91A.65.65,0,0,0,5,5.08a.2.2,0,0,0,0,.21.2.2,0,0,0,.09.07.23.23,0,0,0,.3-.2.26.26,0,0,0-.26-.26"/><path class="cls-4" d="M7.08,5.52A.72.72,0,0,0,7,5.71a.2.2,0,0,0,0,.21.22.22,0,0,0,.11,0,.24.24,0,0,0,.24-.27A.27.27,0,0,0,7,5.52"/><path class="cls-4" d="M5.26,4.36a.49.49,0,0,0-.11.2.19.19,0,0,0,0,.2.16.16,0,0,0,.11,0,.23.23,0,0,0,.23-.27.26.26,0,0,0-.33-.18"/><path class="cls-4" d="M6.81,4.22a.56.56,0,0,0-.11.2.2.2,0,0,0,0,.21.15.15,0,0,0,.11,0,.23.23,0,0,0,.23-.27.27.27,0,0,0-.33-.18"/><path class="cls-5" d="M5,6.42a1.33,1.33,0,0,0,.56.84,1.72,1.72,0,0,0,.9.18,3.46,3.46,0,0,0,.85-.09,1.14,1.14,0,0,0,.41-.21A1,1,0,0,0,8,6.38a3.53,3.53,0,0,0-.15-.91H7.69l0,.85a.5.5,0,0,1,0,.27c0,.08-.18.13-.25.06a.28.28,0,0,1-.06-.15,1.32,1.32,0,0,0-.27-.63l0,.58a.26.26,0,0,1,0,.19c-.08.13-.31.08-.42,0a3.51,3.51,0,0,0-.27-.4s-.06,0-.09,0,0,0,0,.08a.64.64,0,0,1-.12.38.25.25,0,0,1-.12.11.25.25,0,0,1-.28-.15,1.75,1.75,0,0,1-.06-.33A.34.34,0,0,0,5.52,6c-.06.07,0,.18,0,.27s-.09.21-.16.16A1.47,1.47,0,0,0,5,5.48,2.48,2.48,0,0,0,5,6.42Z"/><path class="cls-6" d="M5.9,7.18a1.89,1.89,0,0,0,1.2,0,1.32,1.32,0,0,0,.52-.25A1.62,1.62,0,0,0,8,6.45a1.33,1.33,0,0,1-.42.78,1.35,1.35,0,0,1-.34.17,1.92,1.92,0,0,1-.85.19,1.53,1.53,0,0,1-.46-.14.94.94,0,0,1-.47-.34A1.4,1.4,0,0,0,5.36,7c-.05-.06-.12-.09-.18-.15A.92.92,0,0,1,5,6.14C4.93,6.59,5.53,7,5.9,7.18Z"/><path class="cls-5" d="M1.62,8A2.13,2.13,0,0,1,.29,7.46a1,1,0,0,1-.22-.4A.71.71,0,0,0,.48,8a3.46,3.46,0,0,0,1.15.18c.41,0,.82.12,1.23.13A3.71,3.71,0,0,0,4.1,8.09,9.39,9.39,0,0,1,1.62,8Z"/><path class="cls-5" d="M2.64,2c.1.63.45,1.19.57,1.82A5,5,0,0,1,2.43,1.9a2.15,2.15,0,0,1,0-1c.07-.25.32-.7.62-.68A3,3,0,0,0,2.64,2Z"/><path class="cls-5" d="M6.84,11.43a1.4,1.4,0,0,0,.32.28,1.41,1.41,0,0,0,.61.11,1.45,1.45,0,0,0,1-.22c.1-.09.19-.2.31-.2a1.23,1.23,0,0,1-.35.52,1.28,1.28,0,0,1-.54.18l-.72.12c-.19,0-.42,0-.53-.1a.67.67,0,0,1-.09-.21,1,1,0,0,0-.21-.37,1.27,1.27,0,0,1-.21-.25,1.53,1.53,0,0,1-.14-.41A2.16,2.16,0,0,1,6.84,11.43Z"/><path class="cls-5" d="M12.77,8.19l-.13.39a.51.51,0,0,1-.07.17.53.53,0,0,1-.13.13,1.82,1.82,0,0,1-.61.37,3.73,3.73,0,0,1-2.37-.16A3.59,3.59,0,0,0,12.77,8.19Z"/><path class="cls-5" d="M10.46.43a.83.83,0,0,0-.21.06L10,.63,9.57,1a1.32,1.32,0,0,1-.51.3L9.31,1A2.69,2.69,0,0,0,9.68.59a1.23,1.23,0,0,1,.37-.47.92.92,0,0,1,.82.05.36.36,0,0,1,.2.16A5.55,5.55,0,0,1,10.46.43Z"/><path class="cls-4" d="M7.58,5.6a.72.72,0,0,0-.11.19.2.2,0,0,0,0,.21.22.22,0,0,0,.11,0,.24.24,0,0,0,.24-.27.27.27,0,0,0-.33-.18"/><path class="cls-4" d="M5.87,5.91a.72.72,0,0,0-.11.19.2.2,0,0,0,0,.21.22.22,0,0,0,.11.05.24.24,0,0,0,.24-.27.27.27,0,0,0-.33-.18"/><path class="cls-4" d="M6.81,5.92a.52.52,0,0,0-.11.19.2.2,0,0,0,0,.21.22.22,0,0,0,.11,0,.23.23,0,0,0,.23-.27.26.26,0,0,0-.33-.18"/><path class="cls-4" d="M5.73,4.06a.72.72,0,0,0-.11.19.2.2,0,0,0,0,.21.22.22,0,0,0,.11,0A.23.23,0,0,0,6,4.24a.26.26,0,0,0-.32-.18"/><path class="cls-4" d="M7.23,4.34a1,1,0,0,0-.11.2.2.2,0,0,0,0,.21.22.22,0,0,0,.11,0,.24.24,0,0,0,.23-.28.26.26,0,0,0-.32-.17"/><path class="cls-4" d="M5.05,5.48a.72.72,0,0,0-.11.19.2.2,0,0,0,0,.21.22.22,0,0,0,.11,0,.24.24,0,0,0,.24-.27A.27.27,0,0,0,5,5.48"/></g></g></svg>