<svg xmlns="http://www.w3.org/2000/svg" viewBox="0 0 17.44 24.54"><defs><style>.cls-1{fill:#a57c2b;}.cls-2{fill:#d1ba33;}.cls-3{fill:#f2eedf;}.cls-4{fill:#2d6d61;}.cls-5{fill:#d3c3a7;}.cls-6{fill:#1e4c3f;}</style></defs><title>Resurs 14</title><g id="Lager_2" data-name="Lager 2"><g id="Citron12"><path class="cls-1" d="M3.58,24.25c.64.83,3-.34,3.7-.61l4.19-1.74A9.06,9.06,0,0,0,14.63,20c1.81-1.85,2.24-5,2.55-7.86.3-2.66.55-5.54-.53-7.87a3.88,3.88,0,0,0-1-1.42,3.1,3.1,0,0,0-1.38-.57A6.94,6.94,0,0,0,8.91,3.74,16.85,16.85,0,0,0,4.84,8.35a10.51,10.51,0,0,0-1.91,5c-.11,2,.7,3.94,1.35,5.81A5,5,0,0,1,4.66,21c-.06,1-1.65,2.46-1.08,3.21"/><path class="cls-2" d="M1.18,17.49A14.71,14.71,0,0,1,2.71,3.94,8.9,8.9,0,0,1,13.55.75a4.48,4.48,0,0,1,1.94,1.56c.94,1.42.83,3.48.46,5.25-1.07,5.08-4,9.52-7.83,11.85a6.49,6.49,0,0,0-2.56,2.1c-.36.6-.54,1.33-.89,1.93-1.16,2-2.16-.08-2.37-1.63A15.46,15.46,0,0,0,1.18,17.49Z"/><path class="cls-3" d="M3.26,6.63a4.23,4.23,0,0,0,1.67.12c.57,0,1.24.25,1.34.79S5.89,8.5,5.79,9c-.19,1,.94,1.76,1,2.74,0,.2,0,.39,0,.58a4.66,4.66,0,0,0,.46,1.31,2.88,2.88,0,0,1-2,3.66A5.2,5.2,0,0,1,4,17.42c-.68,0-1.59-.21-1.6-.88a1.07,1.07,0,0,1-1.27-.4,4,4,0,0,1-.75-2.66,17.72,17.72,0,0,0,0-2.82A4.26,4.26,0,0,1,.3,10a2.65,2.65,0,0,1,.14-.62c.24-.72.59-3.17,1.18-3.6C2.45,5.15,2.53,6.27,3.26,6.63Z"/><path class="cls-4" d="M2.37,7.36a5.8,5.8,0,0,1,2.36.83A1.36,1.36,0,0,1,5.45,9a2,2,0,0,1-.11.77,6.27,6.27,0,0,0,.51,3.65A2.61,2.61,0,0,1,6,15.83c-.38.55-1.12.71-1.68,1.09a1.62,1.62,0,0,1-.5.27,1.13,1.13,0,0,1-.51-.07l-1.22-.34a1.15,1.15,0,0,1-.62-.34,2.11,2.11,0,0,1-.22-.54c-.17-.42-.6-.69-.83-1.08A2.11,2.11,0,0,1,.16,14,13.94,13.94,0,0,1,.54,8.09C.91,6.82,1.39,7.23,2.37,7.36Z"/><path class="cls-5" d="M15.66,12.6a4.6,4.6,0,0,0-.57,1.18,9,9,0,0,1-.74,1.36,2.86,2.86,0,0,1-.87,1c-.62.38-1.51.31-2,.84-.05.7.72,1.24.75,1.93s-.61,1.16-1,1.72a.72.72,0,0,0-.1.82c.27.35.84.13,1.21-.12l1.72-1.15a4.09,4.09,0,0,0,1.06-.92,3.23,3.23,0,0,0,.4-.91,29.6,29.6,0,0,0,1-4.05C16.67,13.7,17,11,15.66,12.6Z"/><path class="cls-6" d="M15.91,17.33a2.87,2.87,0,0,0,.21-3.39c-.45.2-1,.51-.93,1,0,.15.08.29.08.44,0,.39-.4.65-.79.73a6.39,6.39,0,0,0-1.16.2.3.3,0,0,0-.17.14c-.07.15.1.29.25.37a5.7,5.7,0,0,1,1.4.69A.94.94,0,0,1,15,18.84a1.21,1.21,0,0,1-1.43-.4A3.06,3.06,0,0,1,13,17c-.49,0-.8.52-.81,1a5.12,5.12,0,0,1,0,1.41,1.44,1.44,0,0,0-.14.56c0,.47.73.55,1.2.42a4,4,0,0,0,2.82-3.14"/></g></g></svg>