<svg xmlns="http://www.w3.org/2000/svg" viewBox="0 0 16.05 15.11"><defs><style>.cls-1{fill:#f7f5f7;}.cls-2{fill:#d3ead7;}.cls-3{fill:#cfe5d0;}.cls-4{fill:#f7f703;}.cls-5{fill:#e5e5e5;}.cls-6{fill:#d3d3d3;}</style></defs><title>Resurs 1</title><g id="Lager_2" data-name="Lager 2"><g id="Lager_1-2" data-name="Lager 1"><g id="Lager_2-2" data-name="Lager 2"><g id="LemonFlower"><path class="cls-1" d="M3.19,2.88A2.47,2.47,0,0,1,3.58.4a2.16,2.16,0,0,1,2.5,0,4.69,4.69,0,0,1,1.6,2.08A15,15,0,0,1,8.83,6.89a5,5,0,0,1-1.94.81c-.56-.08-.83-.59-1.25-1A8.63,8.63,0,0,1,3.19,2.88Z"/><path class="cls-1" d="M9.45,4.53A5.12,5.12,0,0,1,10.81,2a7,7,0,0,0,.91-.8c.34-.41.56-1,1.07-1.11a1.25,1.25,0,0,1,.83.13,2.54,2.54,0,0,1,1.13,2.72,6.43,6.43,0,0,1-1.48,2.74,5.87,5.87,0,0,1-.8.85c-.46.38-2.42,1.39-3,1S9.29,5.2,9.45,4.53Z"/><path class="cls-1" d="M3.26,6.8A3.76,3.76,0,0,0,2,6.89a3.68,3.68,0,0,0-1,.55,2.76,2.76,0,0,0-.94,1A1.08,1.08,0,0,0,.32,9.69a1.82,1.82,0,0,0,.93.29,11.48,11.48,0,0,0,4.09.08A2.51,2.51,0,0,0,7,9C8.27,6.84,4.36,6.86,3.26,6.8Z"/><path class="cls-1" d="M6.3,11.51c.35,1,1.48,1.64,1.93,2.64.15.32.25.73.6.89a1.24,1.24,0,0,0,.47.06,3,3,0,0,0,1.25-.22,1.36,1.36,0,0,0,.82-1c.1-.62-.37-1.16-.68-1.71a3.65,3.65,0,0,1-.46-1.77,2.48,2.48,0,0,0-.31-1.52,1.88,1.88,0,0,0-1.38-.45A2.62,2.62,0,0,0,6.28,11.4S6.29,11.47,6.3,11.51Z"/><path class="cls-1" d="M11.35,11a4.51,4.51,0,0,0,2.55.5A2.38,2.38,0,0,0,15.59,11a2.28,2.28,0,0,0,.46-1.55,1,1,0,0,0-.1-.55.94.94,0,0,0-.51-.27L10.68,7.15a1.49,1.49,0,0,0-.59-.09c-.52.07-.75.69-.86,1.24-.24,1.09-.11.84.65,1.45A14.5,14.5,0,0,0,11.35,11Z"/><path class="cls-2" d="M7.57,5.65c-.25-.2-.63.14-.53.44a.7.7,0,0,0,.77.37.44.44,0,0,0,.37-.16.41.41,0,0,0-.13-.58H8a1.16,1.16,0,0,0-.68-.18A2.27,2.27,0,0,1,9.3,7a1.32,1.32,0,0,1-.39,1.52,2.06,2.06,0,0,1-2-.28c-.21-.11-.47-.29-.42-.53a1.08,1.08,0,0,1,.16-.3,1.45,1.45,0,0,0,.13-.77,1.22,1.22,0,0,1,.13-.75.49.49,0,0,1,.66-.16l0,0"/><path class="cls-3" d="M8.31,6.28a.64.64,0,0,0-.46-.55,1.14,1.14,0,0,0-.75.08A.14.14,0,0,0,7,5.88.24.24,0,0,0,7,6v.36a.45.45,0,0,0,0,.23.44.44,0,0,0,.32.15h.6c.25,0,.53,0,.65-.26a.53.53,0,0,0,0-.39,1,1,0,0,0-.23-.32.64.64,0,0,0-.21-.19.19.19,0,0,0-.25.08"/><path class="cls-4" d="M7.83,5a.75.75,0,0,0-.13.25.24.24,0,0,0,0,.26.31.31,0,0,0,.13.06.29.29,0,0,0,.29-.31v0a.32.32,0,0,0-.4-.21"/><path class="cls-4" d="M8.83,5.74A1.23,1.23,0,0,0,8.69,6a.24.24,0,0,0,0,.26.17.17,0,0,0,.14,0A.28.28,0,0,0,9.13,6s0,0,0-.06a.35.35,0,0,0-.4-.18"/><path class="cls-4" d="M9.34,6.33a.79.79,0,0,0-.14.23.3.3,0,0,0,0,.26h.14a.28.28,0,0,0,.29-.28v0a.32.32,0,0,0-.4-.22"/><path class="cls-4" d="M7.83,7.07a.7.7,0,0,0-.13.24.24.24,0,0,0,0,.26h.13a.3.3,0,0,0,.3-.28s0,0,0-.06A.32.32,0,0,0,7.72,7"/><path class="cls-4" d="M6.9,6.79A.59.59,0,0,0,6.76,7a.24.24,0,0,0,0,.26H6.9A.28.28,0,0,0,7.19,7V7a.34.34,0,0,0-.4-.23"/><path class="cls-4" d="M6.48,6a.7.7,0,0,0-.24.21.24.24,0,0,0,0,.26.31.31,0,0,0,.11.09.29.29,0,0,0,.36-.19.13.13,0,0,0,0-.06A.32.32,0,0,0,6.4,6"/><path class="cls-4" d="M8.83,6.79a.94.94,0,0,0-.1.23.24.24,0,0,0,0,.26h.14A.3.3,0,0,0,9.17,7V7a.33.33,0,0,0-.44-.16"/><path class="cls-4" d="M6.56,5.35a.55.55,0,0,0-.13.25.21.21,0,0,0,0,.24.15.15,0,0,0,.13,0,.28.28,0,0,0,.29-.28v0a.33.33,0,0,0-.4-.23h0"/><path class="cls-4" d="M8.49,5.17a.85.85,0,0,0-.13.25.24.24,0,0,0,0,.26.15.15,0,0,0,.13,0,.3.3,0,0,0,.3-.28s0,0,0-.05a.34.34,0,0,0-.41-.23"/><path class="cls-5" d="M6.24,7.9a1.61,1.61,0,0,0,.7,1,2.15,2.15,0,0,0,1.12.23,4.26,4.26,0,0,0,1.06-.12,1.45,1.45,0,0,0,.51-.26A1.26,1.26,0,0,0,10,7.85a4.38,4.38,0,0,0-.19-1.13h-.2V7.78a.62.62,0,0,1,0,.33c0,.1-.22.16-.31.08A.46.46,0,0,1,9.2,8a1.64,1.64,0,0,0-.33-.78v.72a.31.31,0,0,1,0,.23c-.1.17-.39.1-.52,0S8.13,7.84,8,7.68H7.9s0,0,0,.1a.8.8,0,0,1-.15.47.4.4,0,0,1-.15.14.32.32,0,0,1-.35-.19,2.7,2.7,0,0,1-.08-.41.42.42,0,0,0-.28-.41c-.08.09,0,.22,0,.34s-.12.26-.2.19a1.85,1.85,0,0,0-.45-1.17A2.83,2.83,0,0,0,6.24,7.9Z"/><path class="cls-6" d="M7.36,8.84a2.27,2.27,0,0,0,1.5,0,1.59,1.59,0,0,0,.64-.31A1.84,1.84,0,0,0,10,7.94a1.7,1.7,0,0,1-.53,1A1.65,1.65,0,0,1,9,9.12,2.41,2.41,0,0,1,8,9.35a1.88,1.88,0,0,1-.57-.17,1.19,1.19,0,0,1-.59-.42l-.12-.14c-.06-.07-.15-.11-.23-.19a1.14,1.14,0,0,1-.22-.88C6.15,8.11,6.9,8.62,7.36,8.84Z"/><path class="cls-5" d="M2,9.86A2.67,2.67,0,0,1,.37,9.19,1.33,1.33,0,0,1,.09,8.7.89.89,0,0,0,.57,9.85h0A4.32,4.32,0,0,0,2,10.08c.51,0,1,.15,1.53.16A4.56,4.56,0,0,0,5.12,10,11.85,11.85,0,0,1,2,9.86Z"/><path class="cls-5" d="M3.3,2.42c.12.78.56,1.48.71,2.26A6.12,6.12,0,0,1,3,2.3,2.6,2.6,0,0,1,3,1.06c.08-.31.39-.87.77-.85A3.66,3.66,0,0,0,3.3,2.42Z"/><path class="cls-5" d="M8.53,14.11a1.65,1.65,0,0,0,.4.35,1.8,1.8,0,0,0,.76.14,1.83,1.83,0,0,0,1.25-.28c.12-.11.23-.24.38-.24a1.46,1.46,0,0,1-.43.64,1.65,1.65,0,0,1-.68.22l-.89.15A1.11,1.11,0,0,1,8.66,15a.88.88,0,0,1-.12-.26,1.17,1.17,0,0,0-.26-.46A1.53,1.53,0,0,1,8,13.94a1.8,1.8,0,0,1-.17-.51A2.93,2.93,0,0,1,8.53,14.11Z"/><path class="cls-5" d="M15.92,10.1l-.16.48a.78.78,0,0,1-.09.21.61.61,0,0,1-.16.16,2.28,2.28,0,0,1-.76.46,4.59,4.59,0,0,1-2.95-.2A4.48,4.48,0,0,0,15.92,10.1Z"/><path class="cls-5" d="M13,.48a.84.84,0,0,0-.26.07l-.31.17-.54.46a1.55,1.55,0,0,1-.63.37l.31-.37a2.79,2.79,0,0,0,.46-.51,1.45,1.45,0,0,1,.46-.58,1.15,1.15,0,0,1,1,.06.46.46,0,0,1,.25.2A6.35,6.35,0,0,1,13,.48Z"/><path class="cls-4" d="M9.45,6.89a1,1,0,0,0-.13.23.24.24,0,0,0,0,.26h.13a.31.31,0,0,0,.31-.29s0,0,0,0a.33.33,0,0,0-.41-.23"/><path class="cls-4" d="M7.32,7.27a1,1,0,0,0-.13.23.2.2,0,0,0,.13.33.29.29,0,0,0,.3-.3v0a.33.33,0,0,0-.41-.22"/><path class="cls-4" d="M8.49,7.28a.7.7,0,0,0-.13.24.24.24,0,0,0,0,.26h.13a.3.3,0,0,0,.3-.28s0,0,0-.06a.32.32,0,0,0-.4-.22h0"/><path class="cls-4" d="M7.15,5A.79.79,0,0,0,7,5.21a.24.24,0,0,0,0,.26.33.33,0,0,0,.14,0,.28.28,0,0,0,.33-.23.06.06,0,0,1,0,0A.32.32,0,0,0,7.09,5"/><path class="cls-4" d="M9,5.32a1.23,1.23,0,0,0-.14.25.24.24,0,0,0,0,.26H9a.3.3,0,0,0,.29-.3.09.09,0,0,0,0,0,.32.32,0,0,0-.39-.21"/><path class="cls-4" d="M6.3,6.74A1.09,1.09,0,0,0,6.16,7a.24.24,0,0,0,0,.26H6.3a.29.29,0,0,0,.3-.29v0a.33.33,0,0,0-.36-.16"/></g></g></g></g></svg>