<svg xmlns="http://www.w3.org/2000/svg" viewBox="0 0 9.23 22.01"><defs><style>.cls-1{fill:#4b4c3c;}.cls-2{fill:#959977;}</style></defs><title>Resurs 19</title><g id="Lager_2" data-name="Lager 2"><g id="CitronRutten"><path class="cls-1" d="M4.72,21.68c0,.37.63.44.91.18a1.47,1.47,0,0,0,.36-1,1.31,1.31,0,0,1,.43-1c.35-.26,1-.27,1-.68s-.85-.92-.52-1.31a3,3,0,0,0,1.25-.45.87.87,0,0,0,.29-1.13c-.25-.35-.86-.51-.84-.93s.66-.56.84-.94c.31-.65-.84-1.49-.3-2a.75.75,0,0,0,1-.34.74.74,0,0,0-.41-.93,5.31,5.31,0,0,1-.68-.2c-.53-.29-.34-1.06,0-1.53s.86-1,.73-1.52c-.08-.38-.41-.64-.61-1s-.2-.86.19-1a2.36,2.36,0,0,1-.85-1.71c0-.28.16-.57,0-.84S6.9,3,6.51,2.79A2.77,2.77,0,0,1,5.44,1.23C5.19.64,4.73,0,4.06,0a6.3,6.3,0,0,1-.42,3.92,3.12,3.12,0,0,0-.43,1.43,8.43,8.43,0,0,0,.53,1.39c.35,1.11-.43,2.27-.39,3.43a11.91,11.91,0,0,1,.23,1.95,7.86,7.86,0,0,1-.39,1.22C2.34,16.14,4.37,18.79,4.72,21.68Z"/><path class="cls-2" d="M5.12,21.37a1.37,1.37,0,0,1,.26-1.61A.88.88,0,0,1,5,18.32c.19-.18.46-.28.59-.5.26-.44-.28-.93-.79-1.11s-1.12-.34-1.28-.82l1.5-.5a2.06,2.06,0,0,0,1-.57.61.61,0,0,0-.16-.94,1.14,1.14,0,0,0-.45-.05c-.55,0-1.22-.24-1.24-.75,0-.78,1.45-1,1.5-1.74s-1.06-.93-1.39-1.56c-.53-1,1.33-2.25.69-3.24C4.62,6,3.65,5.86,3.62,5.24c0-.44.46-.73.85-1s.77-.73.5-1.09c-.14-.19-.4-.25-.59-.39a.8.8,0,0,1,.4-1.36A1.77,1.77,0,0,0,4.5.33a.65.65,0,0,0-1-.12.91.91,0,0,0-.12.56,1.83,1.83,0,0,1-.62,1.57,4.28,4.28,0,0,1-1.13.44c-.38.14-.77.44-.75.82.31,0,.48.38.35.65a2.21,2.21,0,0,1-.66.63c-.24.19-.45.48-.35.76s.32.36.29.58-.39.35-.5.58c-.21.42.49.78.5,1.24s-.33.55-.37.86c-.08.51.62.83.79,1.32s-.18,1-.49,1.4-.56,1-.24,1.41,1.36.44,1.44,1-1,.77-1.29,1.34.28,1.08.8,1.37,1.15.59,1.26,1.15-.16.91.1,1.26a1.5,1.5,0,0,0,.47.34A3.24,3.24,0,0,1,4.65,22C4.9,22,5.23,21.58,5.12,21.37Z"/></g></g></svg>