<?xml version="1.0" encoding="utf-8"?>
<!-- Generator: Adobe Illustrator 22.0.1, SVG Export Plug-In . SVG Version: 6.00 Build 0)  -->
<svg version="1.1" id="Lager_1" xmlns="http://www.w3.org/2000/svg" xmlns:xlink="http://www.w3.org/1999/xlink" x="0px" y="0px"
	 viewBox="0 0 96.9 161.1" style="enable-background:new 0 0 96.9 161.1;" xml:space="preserve">
<style type="text/css">
	.st0{fill:#B78B5E;}
	.st1{fill:#E8BB89;}
	.st2{fill:#C99A6F;}
	.st3{fill:#C99D75;}
	.st4{fill:#C69C77;}
	.st5{fill:#C19874;}
	.st6{fill:#C19770;}
	.st7{fill:#B28F6F;}
	.st8{opacity:0.48;fill:#050100;}
</style>
<title>Resurs 2</title>
<g id="Lager_2_1_">
	<g id="Seed">
		<path class="st0" d="M58.3,32c1.8,2.8,3.6,5.6,5,8.6c3.3,7.4,3.7,16.2,0.7,23.7c-1,2.6-2.6,5.1-4.9,6.6c-2.6,1.6-5.8,1.6-8.9,1.4
			c-1.3-0.1-2.7-0.2-3.8-0.9c-2.4-1.6-2.5-5-2.2-7.9c0.7-6.3,2.1-12.5,4.2-18.5c1.6-4.8,3.7-9.9,2.4-14.8c-0.4-1.6-3.8-9.6,0.1-8.8
			C53.1,21.8,57,30.1,58.3,32z"/>
		<path class="st1" d="M33.3,46.5C32.2,51.6,32,57,33.7,61.8c1.7,4.9,5.6,9.2,10.6,10.7s11-0.4,13.6-4.9c1.6-2.8,1.8-6.2,2-9.4
			c0.3-6.3,0.6-12.8-1.8-18.6c-0.9-2.2-2.1-4.2-2.9-6.5c-1-2.9-1.2-5.9-2.1-8.8c-0.8-2.4-2.2-4.6-4-6.3c-0.4-0.3-0.8-0.7-1.3-0.7
			c-0.6,0.1-1,0.6-1.3,1.1c-2.7,4.6-4.1,9.3-7,13.8C36.4,36.5,34.4,41.4,33.3,46.5z"/>
		<path class="st2" d="M40.8,43.3c-0.8,1.8,0,3.9,0.6,5.8s0.8,4.4-0.6,5.5c-0.8-4.5-0.8-9,0.2-13.4"/>
		<path class="st3" d="M47.9,33.9c-0.6,1.9,0.4,3.9,1.2,5.6c0.8,1.8,1.3,4.2,0,5.6c-1.3-4.3-1.8-8.9-1.3-13.4"/>
		<path class="st4" d="M52.3,56.7c-0.8,1.8,0,3.9,0.6,5.8c0.6,1.9,0.8,4.4-0.6,5.5c-0.8-4.5-0.8-9,0.2-13.5"/>
		<path class="st5" d="M46.5,53.2c-0.8,1.8,0,3.9,0.6,5.8c0.6,1.9,0.8,4.4-0.6,5.5c-0.8-4.4-0.8-9,0.2-13.4"/>
		<path class="st6" d="M39.1,56.7c-0.8,1.8,0,3.9,0.6,5.8c0.6,1.9,0.8,4.4-0.6,5.5c-0.8-4.4-0.8-9,0.2-13.4"/>
		<path class="st7" d="M43.8,27.1c-0.8,1.8,0,3.9,0.6,5.7c0.6,1.8,0.8,4.3-0.6,5.5c-0.8-4.5-0.8-9,0.2-13.4"/>
		<path class="st6" d="M54.7,42.2c-0.8,1.8,0,3.9,0.6,5.8c0.6,1.9,0.8,4.4-0.6,5.5c-0.8-4.5-0.8-9,0.2-13.4"/>
	</g>
</g>
<path class="st8" d="M36,148c-1.6,0.7-3.3,2-3.2,3.7c0.1,1.6,1.7,2.6,3.1,3.2c3.9,1.7,8.2,2.2,12.4,2.8c0.7,0.1,1.4,0.2,2,0
	c0.6-0.1,1.2-0.4,1.8-0.8c1.8-1,3.6-2,5.4-3.1c5.5-3.1,4.6-7.8-1.4-8.5C50,144.8,41.6,145.6,36,148z"/>
</svg>
