<?xml version="1.0" encoding="utf-8"?>
<!-- Generator: Adobe Illustrator 22.0.1, SVG Export Plug-In . SVG Version: 6.00 Build 0)  -->
<svg version="1.1" id="Lager_1" xmlns="http://www.w3.org/2000/svg" xmlns:xlink="http://www.w3.org/1999/xlink" x="0px" y="0px"
	 viewBox="0 0 65 25.2" style="enable-background:new 0 0 65 25.2;" xml:space="preserve">
<style type="text/css">
	.st0{fill:none;stroke:#BA554A;stroke-width:2;stroke-miterlimit:10;}
	.st1{fill:none;}
	.st2{enable-background:new    ;}
	.st3{fill:#BB554A;}
</style>
<title>Resurs 4</title>
<g id="Lager_2_1_">
	<g id="Lager_1-2">
		<polygon class="st0" points="1,1 32.5,1 64,1 64,12.6 64,24.2 32.5,24.2 1,24.2 1,12.6 		"/>
		<polygon class="st1" points="7.6,8.2 32.6,8.2 57.7,8.2 57.7,13.5 57.7,18.7 32.6,18.7 7.6,18.7 7.6,13.5 		"/>
		<g class="st2">
			<path class="st3" d="M13.1,10.2h-2.3V16H9.9v-5.8H7.6V9.4h5.5V10.2z"/>
			<path class="st3" d="M14.8,10.2h-0.9V9.4h0.9V10.2z M14.8,16H14v-4.9h0.8V16z"/>
			<path class="st3" d="M23.6,16h-0.8v-2.8c0-0.2,0-0.4,0-0.6c0-0.2-0.1-0.4-0.1-0.5c-0.1-0.1-0.2-0.2-0.3-0.3
				c-0.1-0.1-0.3-0.1-0.5-0.1c-0.2,0-0.5,0.1-0.7,0.2c-0.2,0.1-0.5,0.3-0.7,0.4c0,0.1,0,0.1,0,0.2c0,0.1,0,0.2,0,0.3V16h-0.8v-2.8
				c0-0.2,0-0.4,0-0.6c0-0.2-0.1-0.4-0.1-0.5c-0.1-0.1-0.2-0.2-0.3-0.3c-0.1-0.1-0.3-0.1-0.5-0.1c-0.2,0-0.5,0.1-0.7,0.2
				c-0.2,0.1-0.5,0.3-0.7,0.4V16h-0.8v-4.9h0.8v0.5c0.3-0.2,0.5-0.4,0.8-0.5c0.3-0.1,0.5-0.2,0.8-0.2c0.3,0,0.6,0.1,0.9,0.2
				c0.2,0.1,0.4,0.3,0.5,0.6c0.3-0.3,0.6-0.5,0.9-0.6c0.3-0.1,0.6-0.2,0.9-0.2c0.5,0,0.9,0.2,1.2,0.5c0.3,0.3,0.4,0.8,0.4,1.4V16z"
				/>
			<path class="st3" d="M29.3,13.6h-3.6c0,0.3,0,0.6,0.1,0.8c0.1,0.2,0.2,0.4,0.4,0.6c0.2,0.1,0.3,0.2,0.5,0.3s0.4,0.1,0.7,0.1
				c0.3,0,0.7-0.1,1-0.2c0.3-0.1,0.6-0.3,0.7-0.4h0v0.9c-0.3,0.1-0.6,0.2-0.9,0.3c-0.3,0.1-0.6,0.1-0.9,0.1c-0.8,0-1.5-0.2-1.9-0.7
				c-0.5-0.4-0.7-1.1-0.7-1.9c0-0.8,0.2-1.4,0.7-1.9c0.4-0.5,1-0.7,1.7-0.7c0.7,0,1.2,0.2,1.5,0.6c0.4,0.4,0.5,0.9,0.5,1.6V13.6z
				 M28.5,13c0-0.4-0.1-0.8-0.3-1c-0.2-0.2-0.5-0.4-1-0.4c-0.4,0-0.8,0.1-1.1,0.4s-0.4,0.6-0.4,1H28.5z"/>
			<path class="st3" d="M34,14.6c0,0.4-0.2,0.8-0.6,1.1c-0.4,0.3-0.9,0.4-1.5,0.4c-0.4,0-0.7,0-1-0.1c-0.3-0.1-0.6-0.2-0.8-0.3v-0.9
				h0c0.3,0.2,0.6,0.4,0.9,0.5c0.3,0.1,0.6,0.2,0.9,0.2c0.4,0,0.6-0.1,0.9-0.2c0.2-0.1,0.3-0.3,0.3-0.6c0-0.2-0.1-0.3-0.2-0.4
				c-0.1-0.1-0.3-0.2-0.6-0.3c-0.1,0-0.3-0.1-0.5-0.1c-0.2,0-0.4-0.1-0.5-0.1c-0.4-0.1-0.7-0.3-0.9-0.5c-0.2-0.2-0.3-0.5-0.3-0.8
				c0-0.2,0-0.4,0.1-0.6c0.1-0.2,0.2-0.3,0.4-0.5c0.2-0.1,0.4-0.2,0.6-0.3c0.3-0.1,0.5-0.1,0.9-0.1c0.3,0,0.6,0,0.9,0.1
				c0.3,0.1,0.6,0.2,0.8,0.3v0.9h0c-0.2-0.2-0.5-0.3-0.8-0.4c-0.3-0.1-0.6-0.2-0.9-0.2c-0.3,0-0.6,0.1-0.8,0.2
				c-0.2,0.1-0.3,0.3-0.3,0.5c0,0.2,0.1,0.4,0.2,0.5c0.1,0.1,0.3,0.2,0.6,0.2c0.2,0,0.3,0.1,0.5,0.1c0.2,0,0.3,0.1,0.5,0.1
				c0.4,0.1,0.7,0.2,0.9,0.5C33.9,13.9,34,14.2,34,14.6z"/>
			<path class="st3" d="M37.8,15.9c-0.2,0-0.3,0.1-0.5,0.1c-0.2,0-0.3,0-0.5,0c-0.5,0-0.9-0.1-1.1-0.4s-0.4-0.7-0.4-1.3v-2.6h-0.6
				v-0.7h0.6V9.7h0.8v1.4h1.7v0.7h-1.7V14c0,0.3,0,0.5,0,0.6c0,0.1,0.1,0.3,0.1,0.4c0.1,0.1,0.2,0.2,0.3,0.3
				c0.1,0.1,0.3,0.1,0.5,0.1c0.1,0,0.3,0,0.4-0.1c0.1,0,0.3-0.1,0.3-0.1h0V15.9z"/>
			<path class="st3" d="M42.6,16h-0.8v-0.5c-0.1,0.1-0.2,0.1-0.3,0.2c-0.1,0.1-0.2,0.2-0.4,0.2C41,15.9,40.8,16,40.6,16
				c-0.2,0-0.4,0.1-0.6,0.1c-0.4,0-0.8-0.1-1.1-0.4s-0.5-0.7-0.5-1.1c0-0.4,0.1-0.7,0.2-0.9c0.2-0.2,0.4-0.4,0.7-0.5
				c0.3-0.1,0.7-0.2,1.1-0.3s0.9-0.1,1.3-0.1v-0.1c0-0.2,0-0.3-0.1-0.5c-0.1-0.1-0.2-0.2-0.3-0.3c-0.1-0.1-0.3-0.1-0.4-0.1
				s-0.3,0-0.5,0c-0.2,0-0.5,0-0.7,0.1c-0.3,0.1-0.5,0.1-0.8,0.2h0v-0.8c0.2,0,0.4-0.1,0.7-0.1s0.6-0.1,0.9-0.1c0.3,0,0.6,0,0.9,0.1
				c0.3,0.1,0.5,0.2,0.7,0.3c0.2,0.1,0.3,0.3,0.4,0.5c0.1,0.2,0.1,0.5,0.1,0.8V16z M41.8,14.8v-1.4c-0.3,0-0.5,0-0.9,0.1
				c-0.3,0-0.6,0.1-0.8,0.1c-0.2,0.1-0.4,0.2-0.6,0.3c-0.1,0.1-0.2,0.3-0.2,0.6c0,0.3,0.1,0.5,0.3,0.6c0.2,0.1,0.4,0.2,0.8,0.2
				c0.3,0,0.6-0.1,0.8-0.2C41.3,15.1,41.6,14.9,41.8,14.8z"/>
			<path class="st3" d="M51.3,16h-0.8v-2.8c0-0.2,0-0.4,0-0.6c0-0.2-0.1-0.4-0.1-0.5c-0.1-0.1-0.2-0.2-0.3-0.3
				c-0.1-0.1-0.3-0.1-0.5-0.1c-0.2,0-0.5,0.1-0.7,0.2c-0.2,0.1-0.5,0.3-0.7,0.4c0,0.1,0,0.1,0,0.2c0,0.1,0,0.2,0,0.3V16h-0.8v-2.8
				c0-0.2,0-0.4,0-0.6c0-0.2-0.1-0.4-0.1-0.5c-0.1-0.1-0.2-0.2-0.3-0.3c-0.1-0.1-0.3-0.1-0.5-0.1c-0.2,0-0.5,0.1-0.7,0.2
				c-0.2,0.1-0.5,0.3-0.7,0.4V16h-0.8v-4.9H45v0.5c0.3-0.2,0.5-0.4,0.8-0.5c0.3-0.1,0.5-0.2,0.8-0.2c0.3,0,0.6,0.1,0.8,0.2
				c0.2,0.1,0.4,0.3,0.5,0.6c0.3-0.3,0.6-0.5,0.9-0.6c0.3-0.1,0.6-0.2,0.9-0.2c0.5,0,0.9,0.2,1.2,0.5c0.3,0.3,0.4,0.8,0.4,1.4V16z"
				/>
			<path class="st3" d="M57.2,13.5c0,0.4-0.1,0.8-0.2,1.1c-0.1,0.3-0.3,0.6-0.5,0.8c-0.2,0.2-0.4,0.4-0.7,0.5
				c-0.3,0.1-0.5,0.2-0.8,0.2c-0.3,0-0.5,0-0.7-0.1c-0.2-0.1-0.4-0.1-0.6-0.3v2.1h-0.8v-6.7h0.8v0.5c0.2-0.2,0.5-0.3,0.7-0.5
				c0.3-0.1,0.6-0.2,0.9-0.2c0.6,0,1.1,0.2,1.4,0.7C57.1,12,57.2,12.7,57.2,13.5z M56.4,13.5c0-0.6-0.1-1-0.3-1.3s-0.5-0.4-0.9-0.4
				c-0.2,0-0.5,0.1-0.7,0.2s-0.5,0.2-0.7,0.4v2.8c0.2,0.1,0.4,0.2,0.6,0.2c0.2,0,0.4,0.1,0.6,0.1c0.5,0,0.8-0.2,1.1-0.5
				S56.4,14.1,56.4,13.5z"/>
		</g>
	</g>
</g>
</svg>
