<svg xmlns="http://www.w3.org/2000/svg" viewBox="0 0 37.98 44.64"><defs><style>.cls-1{fill:#5a3a12;}.cls-2{fill:#c49830;}.cls-3{fill:#f2e73d;}.cls-4{fill:#558f56;}.cls-5{fill:#5c9b5c;}.cls-6{fill:#bb554a;}</style></defs><title>Resurs 10</title><g id="Lager_2" data-name="Lager 2"><g id="Lager_1-2" data-name="Lager 1"><path class="cls-1" d="M15.72,6.88A5.93,5.93,0,0,1,17.4,9.35a1.41,1.41,0,0,1,.11.78.7.7,0,0,1-.58.56c-.43.06-.73-.33-.93-.67-.58-1-1.17-2.16-.64-3.2l.37,0"/><path class="cls-2" d="M17.6,10.46a1.12,1.12,0,0,1,.62-1.57c.35.2.75,0,1.13,0A1.89,1.89,0,0,1,21.16,10a.63.63,0,0,1,.08.29c0,.25-.29.36-.52.41a7.77,7.77,0,0,1-3.39-.11"/><path class="cls-2" d="M27.39,11.68a8.66,8.66,0,0,1,2.68,1.58,8.32,8.32,0,0,1,1.81,2.89,14.24,14.24,0,0,1,.83,9.18C31.79,28.46,29.45,31,29,34.22a10.68,10.68,0,0,1-.48,2.67A1.64,1.64,0,0,1,26.45,38c-.76-.36-1-1.36-1.16-2.23-1-5.54-1.82-11.2-4.18-16.32a44.3,44.3,0,0,1-2.65-5.94,4.45,4.45,0,0,1,0-3.05C19.68,7.75,25.56,10.91,27.39,11.68Z"/><path class="cls-3" d="M11.72,13.26a10.78,10.78,0,0,0-3.43,7.9A15.45,15.45,0,0,0,11.19,29C13.09,32,15.8,34.76,19.05,35c1.82.13,3.95-.47,5.27,1,.75.81,1.11,2.17,2.13,2.42.59.06,1-.67.93-1.31a14.28,14.28,0,0,0-.53-1.85c-.39-1.58.32-3.14.78-4.66C29,26,28.06,20.77,26,16.29c-1.19-2.62-3.12-5.58-5.83-6.54S13.65,11.4,11.72,13.26Z"/><path class="cls-3" d="M19.16,11.88a2,2,0,0,0,.54-1.36C19,9.66,18.06,8.71,17,8.85a12.24,12.24,0,0,0-1.49.56c-.69.19-1.66.14-1.81.89.27.15.22.56.27.89a1.51,1.51,0,0,0,1.45,1.13,5.36,5.36,0,0,0,1.83-.46,2.29,2.29,0,0,1,1.85,0"/><path class="cls-4" d="M15.14,16.83a5.45,5.45,0,0,0,2.39-2.09A4.29,4.29,0,0,0,18,13.12a4.4,4.4,0,0,0-.51-2.64A2.76,2.76,0,0,0,15.41,9c-.79,1-.92,2.46-1.41,3.68a7.08,7.08,0,0,1-2.25,2.87c-2.22,1.73-4.86,1.9-7.4,2.77C6.87,20.22,12.79,18.08,15.14,16.83Z"/><path class="cls-5" d="M11.59,10.55a19.45,19.45,0,0,0-2.82,3.79,13.44,13.44,0,0,1-5.32,4.45,21.54,21.54,0,0,0,6.83-1.64,10.63,10.63,0,0,0,5.16-4.75c.47-1,1.33-2.92.07-3.5C14.52,8.44,12.28,10,11.59,10.55Z"/><path class="cls-6" d="M34.5,8.76a15.47,15.47,0,0,0-5.28-3.63,17.94,17.94,0,0,0-7-1.29,17.43,17.43,0,0,0-7.35,1.5,16.64,16.64,0,0,0-5.55,4,18.06,18.06,0,0,0-3.51,5.9,20.93,20.93,0,0,0,0,14.14A17.72,17.72,0,0,0,9.3,35.29a16.84,16.84,0,0,0,5.55,4,17.43,17.43,0,0,0,7.35,1.5A26.2,26.2,0,0,0,28.8,40a16.79,16.79,0,0,0,4.86-2V25.14h-9.9V21.3H38V40.49a27.56,27.56,0,0,1-7.5,3.13,33.78,33.78,0,0,1-8.34,1A23.1,23.1,0,0,1,13.26,43a21,21,0,0,1-7-4.65,21.19,21.19,0,0,1-4.59-7A23.63,23.63,0,0,1,0,22.32a23.26,23.26,0,0,1,1.68-8.94A21.08,21.08,0,0,1,13.35,1.68,22.71,22.71,0,0,1,22.14,0,23.79,23.79,0,0,1,31,1.52,19.14,19.14,0,0,1,37.5,5.76Z"/></g></g></svg>