<svg xmlns="http://www.w3.org/2000/svg" viewBox="0 0 79.82 32.14"><defs><style>.cls-1{font-size:24px;fill:#1d1d1b;font-family:AvenirNext-Regular, Avenir Next;}.cls-2{letter-spacing:-0.01em;}.cls-3{fill:#5a3a12;}.cls-4{fill:#c49830;}.cls-5{fill:#f2e73d;}.cls-6{fill:#558f56;}.cls-7{fill:#5c9b5c;}</style></defs><title>Resurs 2</title><g id="Lager_2" data-name="Lager 2"><g id="Lager_2-2" data-name="Lager 2"><text class="cls-1" transform="translate(0 22.28)"><tspan xml:space="preserve">GR   </tspan><tspan class="cls-2" x="51.07" y="0" xml:space="preserve"> W</tspan></text><path class="cls-3" d="M42.24.05a5,5,0,0,1,1.4,2.06,1.16,1.16,0,0,1,.09.66.59.59,0,0,1-.48.46c-.36,0-.61-.28-.78-.56C42,1.85,41.5.87,41.94,0l.3,0"/><path class="cls-4" d="M43.81,3a.93.93,0,0,1,.52-1.31c.29.16.63,0,.94,0a1.56,1.56,0,0,1,1.51.91.43.43,0,0,1,.06.24c0,.21-.24.3-.43.34a6.45,6.45,0,0,1-2.83-.09"/><path class="cls-4" d="M52,4.06a7,7,0,0,1,2.24,1.32,6.79,6.79,0,0,1,1.51,2.41,11.76,11.76,0,0,1,.69,7.66c-.76,2.62-2.71,4.71-3.11,7.43a8.62,8.62,0,0,1-.4,2.23A1.37,1.37,0,0,1,51.2,26c-.63-.3-.84-1.13-1-1.85-.8-4.63-1.52-9.36-3.49-13.64a35.38,35.38,0,0,1-2.21-5A3.7,3.7,0,0,1,44.5,3C45.55.78,50.46,3.41,52,4.06Z"/><path class="cls-5" d="M38.89,5.37A9.09,9.09,0,0,0,36,12a13.05,13.05,0,0,0,2.42,6.59c1.6,2.44,3.86,4.77,6.57,5,1.52.1,3.3-.39,4.4.8.62.67.93,1.81,1.78,2,.49.05.81-.56.77-1.09a9.42,9.42,0,0,0-.44-1.55c-.33-1.32.27-2.62.66-3.89,1.15-3.81.35-8.16-1.36-11.9-1-2.19-2.61-4.67-4.87-5.46S40.51,3.82,38.89,5.37Z"/><path class="cls-5" d="M45.11,4.22a1.62,1.62,0,0,0,.45-1.13c-.6-.72-1.37-1.52-2.23-1.4a9.47,9.47,0,0,0-1.25.48c-.57.15-1.39.11-1.51.73.23.13.19.48.23.75A1.24,1.24,0,0,0,42,4.59a4.53,4.53,0,0,0,1.52-.38,1.9,1.9,0,0,1,1.55,0"/><path class="cls-6" d="M41.75,8.36a4.59,4.59,0,0,0,2-1.75,3.7,3.7,0,0,0,.4-1.35,3.73,3.73,0,0,0-.42-2.2A2.32,2.32,0,0,0,42,1.85,12.15,12.15,0,0,0,40.8,4.92a5.94,5.94,0,0,1-1.88,2.4c-1.85,1.44-4.05,1.59-6.18,2.31C34.85,11.19,39.79,9.4,41.75,8.36Z"/><path class="cls-7" d="M38.79,3.11a16.65,16.65,0,0,0-2.36,3.17A11.17,11.17,0,0,1,32,10,18.28,18.28,0,0,0,37.7,8.63a8.87,8.87,0,0,0,4.3-4c.4-.79,1.11-2.44.06-2.93C41.23,1.35,39.37,2.62,38.79,3.11Z"/></g></g></svg>